<mxfile host="app.diagrams.net" modified="2023-08-09T18:03:50.657Z" agent="Mozilla/5.0 (Windows NT 10.0; Win64; x64) AppleWebKit/537.36 (KHTML, like Gecko) Chrome/115.0.0.0 Safari/537.36" etag="DAmNwynEjR6Wx1nVwl7H" version="21.6.1" type="device" pages="3">
  <diagram name="Infrastructure" id="_kcfRqlVlDmMWVpbrI-F">
    <mxGraphModel dx="1194" dy="752" grid="0" gridSize="10" guides="1" tooltips="1" connect="1" arrows="1" fold="1" page="1" pageScale="1" pageWidth="3400" pageHeight="3400" math="0" shadow="0">
      <root>
        <mxCell id="MfRl1qd8HDbjMKbQs_gc-0" />
        <mxCell id="MfRl1qd8HDbjMKbQs_gc-1" parent="MfRl1qd8HDbjMKbQs_gc-0" />
        <mxCell id="MfRl1qd8HDbjMKbQs_gc-2" value="" style="rounded=1;whiteSpace=wrap;html=1;" vertex="1" parent="MfRl1qd8HDbjMKbQs_gc-1">
          <mxGeometry x="472.5" y="161" width="813.5" height="332" as="geometry" />
        </mxCell>
        <mxCell id="MfRl1qd8HDbjMKbQs_gc-3" value="" style="image;sketch=0;aspect=fixed;html=1;points=[];align=center;fontSize=12;image=img/lib/mscae/DNS.svg;" vertex="1" parent="MfRl1qd8HDbjMKbQs_gc-1">
          <mxGeometry x="868" y="354" width="50" height="50" as="geometry" />
        </mxCell>
        <mxCell id="MfRl1qd8HDbjMKbQs_gc-4" value="" style="sketch=0;aspect=fixed;pointerEvents=1;shadow=0;dashed=0;html=1;strokeColor=none;labelPosition=center;verticalLabelPosition=bottom;verticalAlign=top;align=center;fillColor=#00188D;shape=mxgraph.mscae.enterprise.domain_controller" vertex="1" parent="MfRl1qd8HDbjMKbQs_gc-1">
          <mxGeometry x="875" y="281" width="36" height="50" as="geometry" />
        </mxCell>
        <mxCell id="MfRl1qd8HDbjMKbQs_gc-5" value="" style="shape=image;verticalLabelPosition=bottom;labelBackgroundColor=default;verticalAlign=top;aspect=fixed;imageAspect=0;image=data:image/png,iVBORw0KGgoAAAANSUhEUgAAALEAAABACAYAAABV55Z5AAAAAXNSR0IArs4c6QAAAARnQU1BAACxjwv8YQUAAAAJcEhZcwAADsMAAA7DAcdvqGQAAAASdEVYdFNvZnR3YXJlAEdyZWVuc2hvdF5VCAUAAAuySURBVHhe7ZzNriRHEYXvSyGewg/AjgfwE1g8AjvvLFnIQrJASMgSCyRAQiA2IITYAAtYIITBHozxgGGWzfnOrWiHw1HVVX27Z7rauTi63Vn5E5nxZWRUdc08vHjx4jA0tGcNiId2rwHx0O41IB7ave4W4mfP/3f4yz//e/jjs08Pv/rrfw7f/d0nh2/84qPDGz/7qK0/tF/dBcSA+uM/PT+8/dt/Hb75y48Pr//0H4ev/fDZ4Svf++Dw8O2/Hx6+9bfHvxJlXR9D+9XNQ/z808eI+vsPHiPqe3/45PDmrz82pA/fmSANvavvWVwvGhDfn24KYlKA37z/2dH/+k8eI+pXvz9BWIEtgK7RgPj+9NIgjojK0R9lpACAakg58tE7Jao2ID5FA+L701UgJqL+/M//do4aEfW1H3xogPKNFfmrwW1gu5YGxPenzRATUYmmQEp+Gkf/1380HftLEVXfATr6MsTUKaBdUwPixxth1h7/ddf3plmIgZWbKSYad/yvvfehQQUEQwGcQBiwFmC+INXZI8SkPWxU/nbXEesVJw/r1tUJcWNKPdrwnZMrTqucbl1LzINAw3hhw541CzER1hF1C6SntFOIge7hbTldm7i7jsj3qcOaMa+uDuIJS6wp8FLGzezDW2qr9ksb5VIyxPIFN833D/ElwM3aKcRER9Ij2s5FWYNBCqUxOK26OiiCQ743AGa+c9qxGXL9a2hA/BTtFGIg4+gF0rlICYDHuQjSiLJVwEo91re7/jI0IH6KdgoxClvnfrYm+gK6f4QRxB2kABN21IhOtO/yYcpydOY76Qea2yhZ1In60c8aiGmHjbVtFeXUm+uHa3NtY4w6D/qKsbvrVQPileIGN2yt11hs5gbgXjdBTGSu9ZyW6Fq1ASezCVB2OM6jLn3hWOfmzEN9YAv1ybFzX1ncaFLHac40LmXOyxcgBnLyf/t/yvNpy/wqkPgTW7oTKsbp1gzZ/7INm6KMtfSpRzvuEzQ2c1h6kjIg3qBwanVkgMtfwAvAaj1DqHrMO5dTD7tqmyjn8aUdq7asH+0d8bFHY3UgByDUAT6ehriNygy21qKD2OmOxuE6bZgTdnt8fCXlEwMA6ZPruR909K+uA2e97o2isaI/oq7ra2zG5DEu48cJV9uHBsQbZEfKIaxNLrfjNQ9gAgrX01xxQq4HjDitOvQUxAFrjXaRhwNbLqed20jZ1mM0B1JdqxBjr8FXn9mOaGv7dT370GPRn9rU+o7Sk+2Mm6/79JI/mHOkC+ZBfdW69JU3TtWAeIO8JsWJqPYbzsjHZACZndZdy/BEOWvURTJHLo1T5xTREehyeSjWvUJs6NRu7ug2sJO/sj1eW5XnTeu68vdc1PdaynZsiTI2I2UV4lMaEG9QHHcZNjtLKUYGJvLnfMT6ZkplXa4csM5CLLu7mxugcM6qfnN5RMy8ibK6GzvGCuCYZ22DqEsbxsunQkT3DKSjumzDBttT+vWGKf24jfqhLu0y9EsaEG8QIDlVkM0RibxOchZ/o57hYu1UHmXh6A6sJ0OssXK5YRTENZ0JdRD7plNl1YaqyJlztPYNnNaEtQk7HVV1Y8Z3+zm1sd2T36OPUJwiATNtl1IJNCDeqDjyAkZHGX2vC23YVR6RJuDvALk0xG5zDsQa5xyIvbm5SdP8ItpiQ6y1IZc9cVr5u+zOLGRhC+vsecCHbJ1LcdCAeKMMgBwSqUK8T1Ihc0SRs+OmC6fNjX1piL1hZGM+HbLmII6xtqYTKOBmTG8I9Y9/47qjq9rx2YFAdtc+qpizTzDaqr+5zTUgPkM4C7t9h605BahZzp+1+Djd0Mhp2alZl4bY66qxu/wbGQzZnyE+AroAv+ekdl20dnTVuhznq35y9IwTi9PB42hOc1BWub7GnTtZBsRnKFIDO0Z/uzwX6HA2shPkQBxd66FLQ+zNxUZTu/pUA7AismFXQIyO+aiu1fEy5N2mtS2TL+NGLqdYHneCnDnBQR4bwVwtQ6wLfde5hAbEZ8gOCbs1p+ysLB+xrKHURa/QkyGWLfVaPLtGrDOAGgbV9/Nl9VkhRrFBEfXgwH5iHgKYPnL9rDzfSLdCjuLTeqEu2vuaQGc8ojnrbHtUFvl0pwHxGXKkmxyNujrIawhkcn6edxWwhm15Q7gcH2iMWYj5aVb9d9cY05GVqIzUDzY5Z9VnAKkQM479Em2SiMCdHSHPN9XN1xgnIjnX82YNOQ3BT6xZSHXZTEvjDojPFIs6F4GzcNbaep1jKVtyIH0vXQcecsmaypzqF7FZaTt3jHdami+2nLIX0Qf2orrJOi1DDGCAfEEBcRj2BYib+ova2k51l15sH9qnZiHOu2Gt2LHkPuw22nfKu5DPuRy4tyjbO/Tl1SzEQ0N70SzERFaOe54pIu5uL6H87JCIXaP5y1Ce59D+dTonDnU55lapn/yo5JgTd3WvpEvd2A3djpYhxvFx83QJqb97eToxdDsaEJ8pbkRPPSoaejkaEG8U68Ic+KEA8Zmyru7Qy9GAeKWIuv7Zll+kNI+A2P2+9fi/6XTthq6vAfFKha2AHL86IT5zbUD86jQgXqFjFJat4xHd7WlAvEL8ohjtz4GYaM3zcZ6T85IL/XX1+BWSdxXiOu3wA224Rjmf515aR1GnG4My+o/n9fRf64TyOxNsYuxAXb+vWgPiFcKJzn9lK68bdnU60Y75+m0s3jYLqR9+QKr1AYfrXPMbXeTfU1v84VdApze7atuQx5vqRxkbwC/C01/YgNTX3BtiD2++7zkDrddusiP771Y0IF4popdtlXjN8FREOoL/zmf1KSOS+9+jqbyCbIhV7lcWtVa0xw9sHKCmjuchGKmb2yL6xz7mmKOs3x9WG9aeKA7UXDfwGq97VxdoGZ++EPPH3m7zvWoNiDfITiciYbPmgv1dFEOGXuB0/woCgAK2vBkMMX1LANS95ER/gNedCI7UGpNNEGV+91ll3cvs9O9cX3Oqr1t6npojNi6lL7egAfFGAUrc5IWYRwXO4wmeDkTkDaG29BdlEYnpfy7S+19IqF1Xx5FfY0bURv7XFirrIjea22wB8Vy7W9KA+AwRfZ2z0if2C7w8L+Dy2kmkD4BQ5X+Hpnasc7SjfC7KhnKakm8yie7MjTHjdGADOTWRjcBabUDhgxy9UUCcy25VA+InKufKEVV9hMfa5RupLEU/1EXivEadfJOm8XIua3+pP9Y0yo7AYwfjdXYAazPmgHhOdwgxclTVPAKgI8QSxz/f55Rz6rUQO6cGStWNsrAhpxIZYjZLNz4iotfUZEA8pzuF2NFYQEUaADxeO4FW6y5pLcQo8nLgJG1grDo3yg23rm19vm2I1X937dY0IF4hYJi7QUMRBYE5yhgHIAEz113SFogjfeCGzJ8FXU4lQvE0o3tKsqS7iMQcS3YEkE1Hlz8/BeydQgycRL58VOdrnoOUn80SIVkz2nVRkLrAlzfHFoidUmg+9B9RuXsU5ptM/Kfrnf2cGtiR0xp0FxCzuEwMsTgsAA7jwTl5FgtnyIEDsCdH+vMc6DuFmLkHCLRn/o6+zJPNrb8VENYvoiDtaMN31i+go68MjyHWOGsgRtSL9ebpwtxpcTxVNSZjk/Zgi/NlynWDVzeAb/pUP5fdqmYhPiUWjGhAlMGBLBRQsrB2Es6rEVx/9wgxAjCc77lNd/Z8BgZujro2iHWJdMPttCa0Y+41QtMP67T26Df0rKvmlZ9ydGIsQ886TPazFsypi9Dhl1p+izob4jUiyrB4ATjO5G9cN8RThLMmh1xT50KcxQaei3pLOqfNNXSu/beqq0J8SkTyiOKfO97Ix2oUvxDgl4B46Lb0SiFeEjckHJfk4Rx5HIXkfT7OATqi98YIPiC+P90sxJ04Aone8YCePJAI7p9WgbSCnTUgvlvtCuI1iggeeThR/HMRXOraDe1Xdwdxp3hUSBTvnqUO7VtfCoiH7lsD4qHda0A8tHsNiId2rwHx0M714vB/aqd4vAIC3nsAAAAASUVORK5CYII=;" vertex="1" parent="MfRl1qd8HDbjMKbQs_gc-1">
          <mxGeometry x="529" y="224" width="127" height="45.92" as="geometry" />
        </mxCell>
        <mxCell id="MfRl1qd8HDbjMKbQs_gc-6" style="edgeStyle=orthogonalEdgeStyle;rounded=1;orthogonalLoop=1;jettySize=auto;html=1;exitX=0;exitY=0.5;exitDx=0;exitDy=0;endArrow=none;endFill=0;" edge="1" parent="MfRl1qd8HDbjMKbQs_gc-1" source="MfRl1qd8HDbjMKbQs_gc-7">
          <mxGeometry relative="1" as="geometry">
            <mxPoint x="988" y="218" as="targetPoint" />
            <Array as="points">
              <mxPoint x="840" y="218" />
              <mxPoint x="840" y="467" />
              <mxPoint x="1228" y="467" />
              <mxPoint x="1228" y="219" />
            </Array>
          </mxGeometry>
        </mxCell>
        <mxCell id="MfRl1qd8HDbjMKbQs_gc-7" value="" style="shape=image;verticalLabelPosition=bottom;labelBackgroundColor=default;verticalAlign=top;aspect=fixed;imageAspect=0;image=data:image/png,iVBORw0KGgoAAAANSUhEUgAAALEAAABACAYAAABV55Z5AAAAAXNSR0IArs4c6QAAAARnQU1BAACxjwv8YQUAAAAJcEhZcwAADsMAAA7DAcdvqGQAAAASdEVYdFNvZnR3YXJlAEdyZWVuc2hvdF5VCAUAAAuySURBVHhe7ZzNriRHEYXvSyGewg/AjgfwE1g8AjvvLFnIQrJASMgSCyRAQiA2IITYAAtYIITBHozxgGGWzfnOrWiHw1HVVX27Z7rauTi63Vn5E5nxZWRUdc08vHjx4jA0tGcNiId2rwHx0O41IB7ave4W4mfP/3f4yz//e/jjs08Pv/rrfw7f/d0nh2/84qPDGz/7qK0/tF/dBcSA+uM/PT+8/dt/Hb75y48Pr//0H4ev/fDZ4Svf++Dw8O2/Hx6+9bfHvxJlXR9D+9XNQ/z808eI+vsPHiPqe3/45PDmrz82pA/fmSANvavvWVwvGhDfn24KYlKA37z/2dH/+k8eI+pXvz9BWIEtgK7RgPj+9NIgjojK0R9lpACAakg58tE7Jao2ID5FA+L701UgJqL+/M//do4aEfW1H3xogPKNFfmrwW1gu5YGxPenzRATUYmmQEp+Gkf/1380HftLEVXfATr6MsTUKaBdUwPixxth1h7/ddf3plmIgZWbKSYad/yvvfehQQUEQwGcQBiwFmC+INXZI8SkPWxU/nbXEesVJw/r1tUJcWNKPdrwnZMrTqucbl1LzINAw3hhw541CzER1hF1C6SntFOIge7hbTldm7i7jsj3qcOaMa+uDuIJS6wp8FLGzezDW2qr9ksb5VIyxPIFN833D/ElwM3aKcRER9Ij2s5FWYNBCqUxOK26OiiCQ743AGa+c9qxGXL9a2hA/BTtFGIg4+gF0rlICYDHuQjSiLJVwEo91re7/jI0IH6KdgoxClvnfrYm+gK6f4QRxB2kABN21IhOtO/yYcpydOY76Qea2yhZ1In60c8aiGmHjbVtFeXUm+uHa3NtY4w6D/qKsbvrVQPileIGN2yt11hs5gbgXjdBTGSu9ZyW6Fq1ASezCVB2OM6jLn3hWOfmzEN9YAv1ybFzX1ncaFLHac40LmXOyxcgBnLyf/t/yvNpy/wqkPgTW7oTKsbp1gzZ/7INm6KMtfSpRzvuEzQ2c1h6kjIg3qBwanVkgMtfwAvAaj1DqHrMO5dTD7tqmyjn8aUdq7asH+0d8bFHY3UgByDUAT6ehriNygy21qKD2OmOxuE6bZgTdnt8fCXlEwMA6ZPruR909K+uA2e97o2isaI/oq7ra2zG5DEu48cJV9uHBsQbZEfKIaxNLrfjNQ9gAgrX01xxQq4HjDitOvQUxAFrjXaRhwNbLqed20jZ1mM0B1JdqxBjr8FXn9mOaGv7dT370GPRn9rU+o7Sk+2Mm6/79JI/mHOkC+ZBfdW69JU3TtWAeIO8JsWJqPYbzsjHZACZndZdy/BEOWvURTJHLo1T5xTREehyeSjWvUJs6NRu7ug2sJO/sj1eW5XnTeu68vdc1PdaynZsiTI2I2UV4lMaEG9QHHcZNjtLKUYGJvLnfMT6ZkplXa4csM5CLLu7mxugcM6qfnN5RMy8ibK6GzvGCuCYZ22DqEsbxsunQkT3DKSjumzDBttT+vWGKf24jfqhLu0y9EsaEG8QIDlVkM0RibxOchZ/o57hYu1UHmXh6A6sJ0OssXK5YRTENZ0JdRD7plNl1YaqyJlztPYNnNaEtQk7HVV1Y8Z3+zm1sd2T36OPUJwiATNtl1IJNCDeqDjyAkZHGX2vC23YVR6RJuDvALk0xG5zDsQa5xyIvbm5SdP8ItpiQ6y1IZc9cVr5u+zOLGRhC+vsecCHbJ1LcdCAeKMMgBwSqUK8T1Ihc0SRs+OmC6fNjX1piL1hZGM+HbLmII6xtqYTKOBmTG8I9Y9/47qjq9rx2YFAdtc+qpizTzDaqr+5zTUgPkM4C7t9h605BahZzp+1+Djd0Mhp2alZl4bY66qxu/wbGQzZnyE+AroAv+ekdl20dnTVuhznq35y9IwTi9PB42hOc1BWub7GnTtZBsRnKFIDO0Z/uzwX6HA2shPkQBxd66FLQ+zNxUZTu/pUA7AismFXQIyO+aiu1fEy5N2mtS2TL+NGLqdYHneCnDnBQR4bwVwtQ6wLfde5hAbEZ8gOCbs1p+ysLB+xrKHURa/QkyGWLfVaPLtGrDOAGgbV9/Nl9VkhRrFBEfXgwH5iHgKYPnL9rDzfSLdCjuLTeqEu2vuaQGc8ojnrbHtUFvl0pwHxGXKkmxyNujrIawhkcn6edxWwhm15Q7gcH2iMWYj5aVb9d9cY05GVqIzUDzY5Z9VnAKkQM479Em2SiMCdHSHPN9XN1xgnIjnX82YNOQ3BT6xZSHXZTEvjDojPFIs6F4GzcNbaep1jKVtyIH0vXQcecsmaypzqF7FZaTt3jHdami+2nLIX0Qf2orrJOi1DDGCAfEEBcRj2BYib+ova2k51l15sH9qnZiHOu2Gt2LHkPuw22nfKu5DPuRy4tyjbO/Tl1SzEQ0N70SzERFaOe54pIu5uL6H87JCIXaP5y1Ce59D+dTonDnU55lapn/yo5JgTd3WvpEvd2A3djpYhxvFx83QJqb97eToxdDsaEJ8pbkRPPSoaejkaEG8U68Ic+KEA8Zmyru7Qy9GAeKWIuv7Zll+kNI+A2P2+9fi/6XTthq6vAfFKha2AHL86IT5zbUD86jQgXqFjFJat4xHd7WlAvEL8ohjtz4GYaM3zcZ6T85IL/XX1+BWSdxXiOu3wA224Rjmf515aR1GnG4My+o/n9fRf64TyOxNsYuxAXb+vWgPiFcKJzn9lK68bdnU60Y75+m0s3jYLqR9+QKr1AYfrXPMbXeTfU1v84VdApze7atuQx5vqRxkbwC/C01/YgNTX3BtiD2++7zkDrddusiP771Y0IF4popdtlXjN8FREOoL/zmf1KSOS+9+jqbyCbIhV7lcWtVa0xw9sHKCmjuchGKmb2yL6xz7mmKOs3x9WG9aeKA7UXDfwGq97VxdoGZ++EPPH3m7zvWoNiDfITiciYbPmgv1dFEOGXuB0/woCgAK2vBkMMX1LANS95ER/gNedCI7UGpNNEGV+91ll3cvs9O9cX3Oqr1t6npojNi6lL7egAfFGAUrc5IWYRwXO4wmeDkTkDaG29BdlEYnpfy7S+19IqF1Xx5FfY0bURv7XFirrIjea22wB8Vy7W9KA+AwRfZ2z0if2C7w8L+Dy2kmkD4BQ5X+Hpnasc7SjfC7KhnKakm8yie7MjTHjdGADOTWRjcBabUDhgxy9UUCcy25VA+InKufKEVV9hMfa5RupLEU/1EXivEadfJOm8XIua3+pP9Y0yo7AYwfjdXYAazPmgHhOdwgxclTVPAKgI8QSxz/f55Rz6rUQO6cGStWNsrAhpxIZYjZLNz4iotfUZEA8pzuF2NFYQEUaADxeO4FW6y5pLcQo8nLgJG1grDo3yg23rm19vm2I1X937dY0IF4hYJi7QUMRBYE5yhgHIAEz113SFogjfeCGzJ8FXU4lQvE0o3tKsqS7iMQcS3YEkE1Hlz8/BeydQgycRL58VOdrnoOUn80SIVkz2nVRkLrAlzfHFoidUmg+9B9RuXsU5ptM/Kfrnf2cGtiR0xp0FxCzuEwMsTgsAA7jwTl5FgtnyIEDsCdH+vMc6DuFmLkHCLRn/o6+zJPNrb8VENYvoiDtaMN31i+go68MjyHWOGsgRtSL9ebpwtxpcTxVNSZjk/Zgi/NlynWDVzeAb/pUP5fdqmYhPiUWjGhAlMGBLBRQsrB2Es6rEVx/9wgxAjCc77lNd/Z8BgZujro2iHWJdMPttCa0Y+41QtMP67T26Df0rKvmlZ9ydGIsQ886TPazFsypi9Dhl1p+izob4jUiyrB4ATjO5G9cN8RThLMmh1xT50KcxQaei3pLOqfNNXSu/beqq0J8SkTyiOKfO97Ix2oUvxDgl4B46Lb0SiFeEjckHJfk4Rx5HIXkfT7OATqi98YIPiC+P90sxJ04Aone8YCePJAI7p9WgbSCnTUgvlvtCuI1iggeeThR/HMRXOraDe1Xdwdxp3hUSBTvnqUO7VtfCoiH7lsD4qHda0A8tHsNiId2rwHx0M714vB/aqd4vAIC3nsAAAAASUVORK5CYII=;" vertex="1" parent="MfRl1qd8HDbjMKbQs_gc-1">
          <mxGeometry x="860" y="195" width="127" height="45.92" as="geometry" />
        </mxCell>
        <mxCell id="MfRl1qd8HDbjMKbQs_gc-8" value="&lt;font style=&quot;font-size: 24px;&quot;&gt;Domain : marvel.local&lt;/font&gt;" style="text;strokeColor=none;align=center;fillColor=none;html=1;verticalAlign=middle;whiteSpace=wrap;rounded=0;" vertex="1" parent="MfRl1qd8HDbjMKbQs_gc-1">
          <mxGeometry x="495" y="171" width="245" height="30" as="geometry" />
        </mxCell>
        <mxCell id="MfRl1qd8HDbjMKbQs_gc-9" style="edgeStyle=orthogonalEdgeStyle;rounded=1;orthogonalLoop=1;jettySize=auto;html=1;entryX=0;entryY=0.75;entryDx=0;entryDy=0;exitX=1;exitY=0.5;exitDx=0;exitDy=0;endArrow=none;endFill=0;" edge="1" parent="MfRl1qd8HDbjMKbQs_gc-1">
          <mxGeometry relative="1" as="geometry">
            <mxPoint x="655" y="246.96000000000004" as="sourcePoint" />
            <mxPoint x="528" y="258.44000000000005" as="targetPoint" />
            <Array as="points">
              <mxPoint x="741" y="247" />
              <mxPoint x="741" y="411" />
              <mxPoint x="520" y="411" />
              <mxPoint x="520" y="258" />
            </Array>
          </mxGeometry>
        </mxCell>
        <mxCell id="MfRl1qd8HDbjMKbQs_gc-10" value="&lt;font style=&quot;font-size: 18px;&quot;&gt;vormir.marvel.local&lt;/font&gt;" style="text;strokeColor=none;align=center;fillColor=none;html=1;verticalAlign=middle;whiteSpace=wrap;rounded=0;" vertex="1" parent="MfRl1qd8HDbjMKbQs_gc-1">
          <mxGeometry x="596" y="266" width="60" height="30" as="geometry" />
        </mxCell>
        <mxCell id="MfRl1qd8HDbjMKbQs_gc-11" value="&lt;font style=&quot;font-size: 18px;&quot;&gt;Domain&amp;nbsp;&lt;br&gt;Controller&lt;br&gt;&lt;/font&gt;" style="text;strokeColor=none;align=left;fillColor=none;html=1;verticalAlign=middle;whiteSpace=wrap;rounded=0;" vertex="1" parent="MfRl1qd8HDbjMKbQs_gc-1">
          <mxGeometry x="926" y="288" width="98" height="33" as="geometry" />
        </mxCell>
        <mxCell id="MfRl1qd8HDbjMKbQs_gc-12" value="&lt;font style=&quot;font-size: 18px;&quot;&gt;&lt;b&gt;&lt;u&gt;A-record&lt;/u&gt;&lt;/b&gt;&lt;br&gt;vormir.marvel.local&lt;br&gt;=&lt;br&gt;192.168.44.138&lt;br&gt;&lt;br&gt;&lt;/font&gt;" style="text;strokeColor=none;align=left;fillColor=none;html=1;verticalAlign=middle;whiteSpace=wrap;rounded=0;" vertex="1" parent="MfRl1qd8HDbjMKbQs_gc-1">
          <mxGeometry x="1024" y="397" width="100" height="30" as="geometry" />
        </mxCell>
        <mxCell id="MfRl1qd8HDbjMKbQs_gc-13" value="&lt;font style=&quot;font-size: 18px;&quot;&gt;hydra-dc.marvel.local&lt;/font&gt;" style="text;strokeColor=none;align=center;fillColor=none;html=1;verticalAlign=middle;whiteSpace=wrap;rounded=0;" vertex="1" parent="MfRl1qd8HDbjMKbQs_gc-1">
          <mxGeometry x="968" y="227" width="236" height="30" as="geometry" />
        </mxCell>
        <mxCell id="MfRl1qd8HDbjMKbQs_gc-14" value="" style="shape=image;verticalLabelPosition=bottom;labelBackgroundColor=default;verticalAlign=top;aspect=fixed;imageAspect=0;image=data:image/png,iVBORw0KGgoAAAANSUhEUgAAARQAAACDCAYAAABMZOQ2AAAAAXNSR0IArs4c6QAAAARnQU1BAACxjwv8YQUAAAAJcEhZcwAADsMAAA7DAcdvqGQAAAASdEVYdFNvZnR3YXJlAEdyZWVuc2hvdF5VCAUAABtpSURBVHhe7Z0JeFTlucdbra29drXtbWuX21YgICAgSwEXBEQEuXAB6YWwVDYFiiBXRUFAoCIiV6+I7KKgrJadEPY1MRgChC1AQggQIUBYMjNJZjLZ3vv9vzlj5oRvJpNlcs6cvH+fv8/D5MycJXN++d73e8/7fYdYLBarisRAYbFYVSYGCovFqjIxUFgsVpWJgcJisapMDBQWi1VlYqCwWKwqEwOFxWJVmRgoLJZFVVxcTIWFhVRQUEBFRUXy36EWAyXMVSC+I7fzi+lcdhElZhVS3K0C2nYtnw7dLqQc/JBlWQEUt2/fpvPnz9OJEyfo0KFDtG/fPoqOjqZ169bR2rVrafXq1bRy5Ur617/+JV+Dd+zYQTExMZSQkEAnT56k1NRUunHjBuXl5WmfXHExUMJAhYILWQIaKQIaCQIU+28U0OaMfFp60U0fpebRhCQn9U/IpU6x2fToPgfV2m6noUdy6WJukfYJ5hBuALfbrXR+fr78Kxoq4a9zoP3jZ9XxF7wywvEBIMeOHaNdu3bR0qVLaebMmTRq1Cjq378/devWjdq0aUONGjWiBx980K9btGhBTz31FPXo0YMGDBhAI0eOpHfeeYc++eQTCaHY2FgJmlu3bpX7d8JAMYnwVXYKcmS4iui4rZBibxZQ1NV8WnzBTTNTXDTulJP6HcqlpwU0Wu11UO1tdvrxRht9d20WfUfhvmLbCyYCCobe+KLOnTtX6VWrVlFaWpq2ddXL4XDQzp07ad68eUrv2bOH7Ha7trW55HQ66ejRo3KUMX36dAmBdu3aUe3atZXAqIwbNGhAXbp0oYEDB9K0adNoyZIlctSTkpJCLpdLOyL/YqBUsxCF3HIX0wkBDYw0NomRxvy0PJp21kVvCmgMO5pL3eJyqM3+bGqw00E/22RTAqMsmw0oGE6//fbbyi8x3KlTJ3nDh0rffPMNvfzyy8p9w2PHjqX09HRta3MIIwSADqOQfv36UbNmzZTHHkrXrVuXnn32WRoxYgTNmjWL9u/fL/84+BMDJQTyhihJ9kLam+kJT7645Kb3kvPkSGN4Yi51FdB4TIQnDXfa6Reb/Y80KmoGil7hBJTc3FyZ55g0aZIcLaiO1wgDLriGgXItDJQKCrcqQpQrIkQ5fLuQtorwZEW6CE+SXfTKCafMYXSN8+Q0mux20F+0EOUuxc0fCjNQ9AoHoCBHgtzFjBkzqHPnziEJaSrrwYMHBwx9GCgBhBxdXlExZTiRDC2gKDHSWCagMV2EJ/8Qo4xBAhq9vs6hdgeyqamARsR2O90vQpS71qlv8uo0A0UvswMFeRLMwAwaNEjmMVTHaAYzUIIQbjubCFGOZxXKROjnIjxBTmPI4Vx5Y/6XltNovMtBdQQ0EKLcbQJoBDIDRa+ygPL666/LbYzQ1atXZX6iQ4cOFBERoTw+f65fvz4988wz9Pe//51Gjx4tZ2tmz55N8+fPp8+WfEbLli+jxYsXy3/jdSR1x4wZQ0OGDKE+ffrQo48+Wq6REIDCIY+QGGiQo6CYTtsLKVpAAzmND8/l0SvHnRR5KEfmNB7fl00NdzqolghPfimgYYaRRkXNQNHLrEBBDQlyJZjKrVWrlvLYfI1tsC2SpHPmzKGoqCiKj4+npKQkOUuWmZkpZ6tycnLkNcd0uNPllP/G66g3uXDhAp09e1bWrhw4cIA2b94soYNr0Lt3b2rYsKFy3zADRWh3ZoGExtMxninX+gIaDwpoPLDF5slrhDE4/JmBopcZgYKCMuy3cePGymPyNUYRqDP56KOP5PQ7QGSz2aqkdgefAeDg/AGmvXv30qeffkrDhg2jli1b6o7DkkApKi6mm+4iir9dQMvT3TQ7NY/GnnTS/4jRxiXFTTQvLY/u21Cx6ddwNQNFL7MBBaMJ7LOsIjS4ffv29Nlnn8mbPSsrK+QFePj87OxsOZL5+uuv5eilb9++VK9evfAECq4XZlBQ6Ynw5JMLefR+iotePeGkHgc9owwkQevtsNMfo+30GzHSQL0GchxnHHfOkX98Po9+sF5941nVDBS9zAQU5EwmT55c5sgE+ZQpU6ZIkOAGN0JeuACAmMpes2aNrCz2J8OAAsYCGuniS48Cr6WXPFOuIxNz5axJIwGHugDGVg8wkNP4iYDG9wOAAYVgpxko0gwUvcwCFMzmoDIYeRDVcXjdqlUrWRmLnEeoRyTBCo9HAC6BjiekQEEiFLMnuMk3ZuR7njs55aLe8Tn0iBhh4JmTPwtgPLDFTr+KstHPBTAQmlR0BoWBUmIGil5mAApuxE2bNsnZnEAJWIQ4SJYCPuGmSgMFsMLsSZK4kfGwGmo0RiY66QkxysDoArD4tYDF/RhhbPQAA6OMUBR4MVBKzEDRywxAOXPmjEx0Bpqmbdu2rXwKGKOBcFRQQCkQ1LjuKqI9mfny5px82kXDj+ZShwMO+n20BxY/1UYXP9yQJW9eI+o0GCglZqDoZTRQUAyGad5ARWuPPPKIfIo4UI7C7FICBcnQBWl5NPhwLjUToQkSnvcKUGBkcY/w9wQsAAyzTbcyUErMQNHLaKB89dVX1LNnT+W+vf7iiy/k9G04SwkUPNDWel+28otqZjNQSsxA0ctIoGB0gvoR1X69Rk+Sy5cva+8IXzFQLGoGil5GAgW9TCIjI5X7hZs3b05xcXEhbTBVXWKgWNQMFL2MAgoggRaMeOZGtV944sSJsjbFCvILlEfDFCiYbSotBorxqqlAuXbtGk2dOlW5TxhJWpx3oKZF4SQGikXNQNHLKKAkJibKB+5U+4TRiQ0P6llFDBSLmoGilxFAQSEbytVR9araJ4y+rdevX9feEf5ioFjUDBS9jAAKWgesWLFCuT8Y1bJffvll2BaxqaQEyj4GStibgaKXEUBB/5GPP/5YuT8Y+ROMYKwkNVBuMFDC3QwUvYwAypUrV2jChAnK/cFYG+fgwYPa1tYQA8WiZqDoZQRQzp07JzurqfYHo3IWSVsriYFiUTNQ9DICKFgcCw8DqvYH1yigPMZACWszUPRioFSPGCgWNQNFLzMCBeeMBc6tJAaKRc1A0csIoKCRNB76U+0PxtKiWGrUSrIUUNDNnoHiMQNFLyOAUtYsT506deQSFlZ4KNArJVDQ45WBEt5moOhlBFBQh1JW2wJ0s8daxlYRA8WiZqDoZQRQUAG7bNky5f68HjdunCX6oHhlPaDYGSgwA0UvI4CCZ3m2bt0asMM9Fu86fvy49o7wFwPFomag6GUEUKDDhw9Tr169lPuEseznli1bLPM8DwPFomag6GUUUBDOvPnmm8p9eo2fZ2RkaO8Ib/kFChYOV31RzWwGSokZKHoZBRR0sF+6dCk99NBDyv3Cf/3rXykmJsYSTZb8A2U/AyWczUDRyyigQOh437VrV+V+YbQxGDVqlHWbVDNQwt8MFL2MBMqtW7cCnjuMXIpll9FgoIS/GSh6GQkUFK5tiY6mdu3bK/ftNWaDUDkbzglaJVAOMFDC3gwUvYwECnTz5k166623lPv29eOPP06xsbGy21s4ynJAOcVAkWag6GU0UFCTggXQu3fvrty/18intG7dWuZdwjFJy0CxqBkoehkNFAijjoULF8o1jFXH4Gus47Nx48awgwoDxaJmoOhlBqBAWKfntddekw8Gqo6jtP/5z3+GVU7FL1CeYKCEtRkoepkFKFBycjINHTo0aKig0jY9PT0sRisMFIuagaKXmYCCfEpSUhINGjSIIiIilMdT2ih+Q4k+nkzG+80qBopFzUDRy0xAgQCFU6dOSajUq1dPeUylje1Qpo/jRAWuGaUESgwDJezNQNHLbEDx6syZMzR8+HBZ2IYZHtWx+RphUufOnSk6OloWzJmtORMDxaJmoOhlVqBAKLl/4403qHnz5lS7dm3l8ZV248aNaeLEiXT69GlTVddaDignGSjSDBS9zAwUyNvdDYt/BZusRf6lS5cutHLlSnnsZpgNUgPlJgMl3M1A0cvsQIEQvmzatIl69+4t61BUx6kyRiujR4+mffv2yYpcI5O2DBSLmoGiVzgAxSska3E8LVu2DCqvAmO7J598kj744AM6ceKEYWGQX6C0MQlQvqv5rnUe3+3j7wnf47UARuNd6hzKJxfc9MAWO/1ys41+BUfZ6N81/1r499F2+oPwHzX/B7zV4z/5+M/wNjv9RbiWcJ3tekd4vcNOdRWuJ/zQTrsAX4kbfGuHXzf0tTjHh4UbacY5N9ntoEeEm2putsdBE5NclOEKI6B0FkDZxUDxKjs7W1bV9ujZI+i8Coy+K3369KHly5fLZTyqezZICZSzjkKactpFveNzqM+hEkf6uK90LvXT3D8hl54/7N8DFR5U2kdKPFh4iOahwi8czaUXNQ8THp6YSyOE/5HolB55zEnTzqpvosNZhfRusoveET+Hpwu/m5xHM4TfE56dmkdzxChmrvA84fnCC9I8Xqh5kfAnF2A3LRZeeslNy9LdtFzzCs0r4W/ctMrHqzV/KbzmspvWXnHTOs3rv3W+zht8neHxRs2bhaOu5tMW4a3C267l047r+bRTeNf1AtqTWUCnxe/QVWieeoWygdJZAGWXtnXVK9yAAiF0iY+Pl8cdqC+tykjwIgyKioqiq1evVttskBIoBeJ7mC3+Z8v32K7ZIV6D8TM4RzhXfGlhp3B+UTEVwOJCwIV3WMSJPhYv6S32DbOsJwZKxYXp4UWLFsncSrCFcF4jDJoyZYrsCOdwOLRPDJ2UQGGxqloMlMoJZfcJCQmyBQIgoToHfwaEevToQfPmzZN1L6EMgxgorGpRWUBBsRYDJbAQAmVlZdGaNWvohRdekLM7qnPxZzzljPetXbtWjnpCMRvkFyi+YQiLVVkBKNOmTVN+0WEAZRcDJSihDQJGGvPnz6eePXuWK2kLt2vXToZBiYmJVV67ogRKanYR/d+5PBqpJTvhlzSPEh4t/PJxJ40RfuWEx68Jjz3ppNeF3xAed8pJ44XfFJ6Q5KS3TnsSoh+k5MnPhj8UniX8UaonMQpjivfbBGlaHs0XXpDmlv5cS4SWToZ6E6Fbr+XLHE9p3XQXy05upX26tB16n/FjJK19nSxdpLe4hill+NwdLqQrzqKgnFHaLr2z8j05K7OIgVL1wtQwGjFNnTqV2rRpozwvf8ZsUN++feVskM1m0z6x8lICxd/Dgd9O4Qrrpm7Xe/x9YdR73AtvyKIfCv+b8H3CP9poo59vKpmqhX8j/NstHj+g+XdwNKZybfQHzXI6d6udam23U23NqqnarnE5dLFU7QXuqbWX8+npmGydO6ocq/czQbqTdM6d/qrEnYNyNnU/mBOUe5RhAPt6nnmIwkAJjTB7c/36dbnoOmZ1mjZtqjw/f37iiSdo/PjxsoS/KkKgcgHF7EadBv7y+wqX6H0xKlJtb2WbsbCNgRI6IdGamppKn3/+ueyfgkSs6jxV9tauAEqV7bliQaDoLwgDxRxioFSPUBB35MgRmj59umx4rTpXf27fvj299957MvFbUTFQLGoGil41BSgQwqDMzEy5UDs6w6E1guqcVW7SpAmNGDGCUlJStE8rnywHlGQGijQDRa+aBBSvcM3T0tJkCX/btm2V560yGjk999xzFBcXp31S8LIeUBwMFJiBoldNBAqERCtaIwAOGK00aNBAef6ljalo/E5Qul+eZC0DxaJmoOhVU4HiFWpXMjIy5GgF6/6orkFpAyrIq2BqOVioWBAod95EqH1RbW9lM1D0qulA8QpNrg8ePChrUOrWrau8Fr4GVFDqv2LFiqCgwkCxqBkoejFQSoSp4Rs3btCkSZOCCoHQa6Vjx460e/du7RP8i4FiUTNQ9GKg3CnUrqxfv56aNWumvCa+BlRQ5o8CuEBioFjUDBS9GChqIYxBh7dgalYQIr300ksyyetPlgIKupudZaBIM1D0YqAEFsr3n3322TJbTqJx09y5c/3mUywIFP0sD/TBOQaK0WKgmF9Op5MiIyPLfHoZpf3Hjh3T3qUXA8WiZqDoxUAJTghnunXrprxGXqPyFr9LVesDBopFzUDRi4ESvFB2j7WUVdfJa1TSot9taTFQLGoGil4MlOCFIrhVq1bJp5BV1wpGm4Q5c+bc8XQyA8WiZqDoxUApnxD6DBgwQHmtvMaazOnp6do7PGKgWNQMFL0YKOUTRinbt28POEpBsRsWbfcVA8WiZqDoxUApv9ACIVCCFk2yMYXsu+YPA8WiZqDoxUApv9Czdvbs2crr5fWECRN06/0wUCxqBopeDJTyCwnXQ4cOUZ06dZTXDMayHL7NmCwHFHSlLy0GivFioISnLl68GLAsH8/3oPO+VzUCKOgAr9reymag6MVAqZiuXbtGgwcPVl4zGOX6vk8hM1AsagaKXgyUiunmzZs0duxY5TWDn3rqKdqyZYu2dQ0CCtYTUr3Hqmag6MVAqZiwCBg66KuuGfzYY4/JpVG9UgIlhoES9mag6MVAqZiwLAeWPFVdMxgl+ujm5lWNAAqWPP3uOvV7rGoGil4MlIoJU8effvqp8prBWHlw3bp12tYWBArWJC4tAOUuBoqhYqCEp8oCSocOHcrOoTBQwt8MFL0YKBUTcihYTVB1zeCgZnkYKOFvBopeDJSK6datWzRu3DjlNYN79OhBsbGx2tY1BCizUvPobgaKoWKghKfwPM/IkSOV1wx+/vnn6eTJk9rWNQUoYoTCQDFWDJTwFNoToNZEdc1gXDeMYrxioFjUDBS9GCjlF54iPn78OEVERCivGV5HfsW3yZLlgJLkJ+T5HgPFUDFQwk9YZRBd2VTXC8aKgmvWlhS1QQwUi5qBohcDpfxC2T16x6quF9wnsg8dOXpE29qjGgGUjxgohssUQBnDQAlW3o5t/loXYKkN9ELB0hu+YqBY1AwUvRgo5RN6yvbu3Vt5reC2bdvS2rVrta1LpAQKytdHH3PSH6JtYZXMDASUexgohopDnvCRt+u96jp5jcZKGRkZ2jtKpASKr/KKiumi+GJuvJJPM5Jd9JIATfsD2fTLzTb64YYsund9Fn1f+B5hjAIAIKMexAsIFHF8qvdY1QwUvYwACpbr9Ldkp1mF4z179iw1adJEeZ3gli1b0uLFi7V36FUmUPwJ18lZKGCTU0jbr+XLatQJSS6KjM+lejvsdL8Azs822ehHGwEeG90r4APwhLJitb4foMxmoBiumgYUTLmiKCz1/HlyK1bYM6MAk6tXr1LHZzoqrxGM3MmLL74o10JWqcJAKUsuAZsURxGtFyOb/03JozeTnDQgIYda7nXQH6Pt9NstNvqFgM5Pv4WOZ4RTmdENA6XEDBS9JFCqMYeC2oz169fLh+cQPty4cUO5dKdZhOPF+eP3oLo+MBZS7/B0B9q8ebP2rjsVMqAEUr74nl9xFdHuzHxakJZH75x10ahjufRMbLYMW/6yzU6/F9D5VZSNfi6Ac58ATjC5HAkUuxooGB2p3mNVM1D0Mgoo+GysbYMS9R07d1DmjUxyu93aVuYQ6k2OHj0aECYwwqAZM2bIHIs/GQKUQCoSw66b7mI6dLuQPr/klqObUcec9OR+BzXe5ZDQqL3dTr+LttGvNeD8QIMFA6XEDBS9jASK140aNaLhI4bTjh076MqVK+RyuQzNsWDEhONYsmRJmWsZA4ojRoygy5cva+9Wy3RACaQCcfEz84rouK2QVn/jprnn82iSCKX+9nUutRKh1H/H51Bq9p030cdiOwaKsappORQVULx++OGHZeNnTLsiAXr79m25fXUJvwuABG0HcBx169ZVHqfX+Hm/fv3o2LFj2if4V1gBJZAKxL1jzy+Ws1KltTEjn56OyZb5G4xi/rTVk8O5b4PNsm0NGCh6mWGEUtpIcGJlvvfff1/e3MnJySHLtSDMQgf7U6dOyeMaPXq0BJvquHwNmKAexXepjECyDFDKklvcW984i2hvZgF9IUKpD0QoNTwxl7rF5UjYPL4/mxqJkArhFOpvfrLRFtZ9aBkoepkRKL6uX78+9enTR+YoNm3aRAkJCRIwCDHQ1zVQ3sJXCKEADxSm4XwwAoqPj5fHMnnyZNkQqV69espjKO2IiAiKjIwMGiZQjQGKP2FAk11QTBdyPLBBKDVPhEivnXTKEKqrAA6qhhuKkU2EgA1mqDAzZfaRDQNFL7MDpbRRiTpw4EDZ3GjhwoUyPMLC5Pv375cNjQCJxMRECZ6YmBg6cOAA7dy5U8IIs0p4qA/n1L9/f7lQF+Cg2o8/A3BDhgyR+ymPajxQAgm0t4kw6qStkDaLsGmVBpsJSU4adDhXAqdjbDY134NQyk5/3uapvzFDmT8DRS8jgIJeqw0bNlTuryJGiISisjZt2lCnTp3kqn1dunSRjaJbt24dVAgTjPFZeE4nNTVVO5vgxUCpoDCycQjYYC3lndfzac1lNy2+4KZpcgrcSc8L4CCcenRfNj0sQimMbFBrU11hFANFr+oGCv4YJaek0JSpU6hr165VCpZQGaFQ37595awPQqaKiIESAmEmMEeEUedzCuWiaRvE6GZRGmakXPTycScNPZJLz32dQ21EKNVst4NqiVAKsFGBoaI2JVDeMRooY5T7hqsaKFCx+C8rK4v27t0rGxGhFqVVq1ZypKE6BqOMcAi9Yd99913ZUKkyU9kMlGoWZqMQRp3LLpJPdW+9lk/L0t2yuO/1k0568Wgu/edXOfTYPgc1FbBBkd+PN9qU0Ahk0wHFXfOA4isUj6H3KhbFmjRpksxtILTw1x6gOoxCNYxIkAhGHgbQr6wYKCaSGNTQDa3OZp8GmxUCNni4ccppF40Ro5u/iZFN2wPZ1ESEUSjs81dBbDagYCp0+fLlsp5BZSQfjxzRN+upSmE6ds7cOdSvv9ifzv3lzb1o0SL57E2ohb/+6MGKhCoSrR9++KGcwkUjo+bNm4d89NK0aVPq3r07jR8/npYuXSqveemeJpURAyVMhKK+W+5i2Vriq5sFtE3ABpXEWGZ12hkXvXrCSZECIkgSt9jjoFfEvzFNbhbhYTlMgaLEW+UzZ87INWBCJUylXrh4Qblv+NKlS4aUxKNaNi0tjQ4ePCgBM2/ePDmCQXiEGpUWLVoowRCMkRNBwrZXr140atQoWe+yevVqOUuEhwBDUUzHQAlzIdzNK/Q8rpAswqiE24W0V4xujmYVUq54nRVe8hagITyKi4ujqKgoWrZsGS1YsIBmzpwpZ1/wtO/QoUN1HjZsGL366qv09ttv06xZs2R7AcADZf6YWj5//rysZwHYQykGCotlciFMwkgGJfoomUfBG0Z0vsZrFy9elGGbw+GQYKpMcrWiYqCwWKwqEwOFxWJVmRgoLBarysRAYbFYVSYGCovFqjIxUFgsVpWJgcJisapIRP8Pkf6SWDM4ihgAAAAASUVORK5CYII=;" vertex="1" parent="MfRl1qd8HDbjMKbQs_gc-1">
          <mxGeometry x="551" y="348" width="68.5" height="32.51" as="geometry" />
        </mxCell>
        <mxCell id="MfRl1qd8HDbjMKbQs_gc-15" value="&lt;font style=&quot;font-size: 18px;&quot;&gt;IIS Web server&lt;br&gt;&lt;/font&gt;" style="text;strokeColor=none;align=left;fillColor=none;html=1;verticalAlign=middle;whiteSpace=wrap;rounded=0;" vertex="1" parent="MfRl1qd8HDbjMKbQs_gc-1">
          <mxGeometry x="636" y="348" width="98" height="33" as="geometry" />
        </mxCell>
        <mxCell id="MfRl1qd8HDbjMKbQs_gc-31" value="&lt;font style=&quot;font-size: 18px;&quot;&gt;DNS&amp;nbsp;&lt;br&gt;Server&lt;br&gt;&lt;/font&gt;" style="text;strokeColor=none;align=left;fillColor=none;html=1;verticalAlign=middle;whiteSpace=wrap;rounded=0;" vertex="1" parent="MfRl1qd8HDbjMKbQs_gc-1">
          <mxGeometry x="929" y="360.51" width="98" height="33" as="geometry" />
        </mxCell>
        <mxCell id="MfRl1qd8HDbjMKbQs_gc-32" value="&lt;font style=&quot;font-size: 18px;&quot;&gt;192.168.44.137&lt;/font&gt;" style="text;strokeColor=none;align=center;fillColor=none;html=1;verticalAlign=middle;whiteSpace=wrap;rounded=0;" vertex="1" parent="MfRl1qd8HDbjMKbQs_gc-1">
          <mxGeometry x="1049" y="248" width="60" height="30" as="geometry" />
        </mxCell>
        <mxCell id="MfRl1qd8HDbjMKbQs_gc-33" value="&lt;font style=&quot;font-size: 18px;&quot;&gt;192.168.44.138&lt;/font&gt;" style="text;strokeColor=none;align=center;fillColor=none;html=1;verticalAlign=middle;whiteSpace=wrap;rounded=0;" vertex="1" parent="MfRl1qd8HDbjMKbQs_gc-1">
          <mxGeometry x="593" y="288" width="60" height="30" as="geometry" />
        </mxCell>
      </root>
    </mxGraphModel>
  </diagram>
  <diagram name="Nameserver attack - Legit queries 2" id="VrLr67qDOyfmeuDxJHLk">
    <mxGraphModel dx="1194" dy="752" grid="0" gridSize="10" guides="1" tooltips="1" connect="1" arrows="1" fold="1" page="1" pageScale="1" pageWidth="3400" pageHeight="3400" math="0" shadow="0">
      <root>
        <mxCell id="0WjlItf-CRWbp25ZSryx-0" />
        <mxCell id="0WjlItf-CRWbp25ZSryx-1" parent="0WjlItf-CRWbp25ZSryx-0" />
        <mxCell id="0WjlItf-CRWbp25ZSryx-2" value="" style="rounded=1;whiteSpace=wrap;html=1;" vertex="1" parent="0WjlItf-CRWbp25ZSryx-1">
          <mxGeometry x="472.5" y="161" width="813.5" height="332" as="geometry" />
        </mxCell>
        <mxCell id="0WjlItf-CRWbp25ZSryx-3" value="" style="image;sketch=0;aspect=fixed;html=1;points=[];align=center;fontSize=12;image=img/lib/mscae/DNS.svg;" vertex="1" parent="0WjlItf-CRWbp25ZSryx-1">
          <mxGeometry x="868" y="354" width="50" height="50" as="geometry" />
        </mxCell>
        <mxCell id="0WjlItf-CRWbp25ZSryx-4" value="" style="sketch=0;aspect=fixed;pointerEvents=1;shadow=0;dashed=0;html=1;strokeColor=none;labelPosition=center;verticalLabelPosition=bottom;verticalAlign=top;align=center;fillColor=#00188D;shape=mxgraph.mscae.enterprise.domain_controller" vertex="1" parent="0WjlItf-CRWbp25ZSryx-1">
          <mxGeometry x="875" y="281" width="36" height="50" as="geometry" />
        </mxCell>
        <mxCell id="0WjlItf-CRWbp25ZSryx-5" value="" style="shape=image;verticalLabelPosition=bottom;labelBackgroundColor=default;verticalAlign=top;aspect=fixed;imageAspect=0;image=data:image/png,iVBORw0KGgoAAAANSUhEUgAAALEAAABACAYAAABV55Z5AAAAAXNSR0IArs4c6QAAAARnQU1BAACxjwv8YQUAAAAJcEhZcwAADsMAAA7DAcdvqGQAAAASdEVYdFNvZnR3YXJlAEdyZWVuc2hvdF5VCAUAAAuySURBVHhe7ZzNriRHEYXvSyGewg/AjgfwE1g8AjvvLFnIQrJASMgSCyRAQiA2IITYAAtYIITBHozxgGGWzfnOrWiHw1HVVX27Z7rauTi63Vn5E5nxZWRUdc08vHjx4jA0tGcNiId2rwHx0O41IB7ave4W4mfP/3f4yz//e/jjs08Pv/rrfw7f/d0nh2/84qPDGz/7qK0/tF/dBcSA+uM/PT+8/dt/Hb75y48Pr//0H4ev/fDZ4Svf++Dw8O2/Hx6+9bfHvxJlXR9D+9XNQ/z808eI+vsPHiPqe3/45PDmrz82pA/fmSANvavvWVwvGhDfn24KYlKA37z/2dH/+k8eI+pXvz9BWIEtgK7RgPj+9NIgjojK0R9lpACAakg58tE7Jao2ID5FA+L701UgJqL+/M//do4aEfW1H3xogPKNFfmrwW1gu5YGxPenzRATUYmmQEp+Gkf/1380HftLEVXfATr6MsTUKaBdUwPixxth1h7/ddf3plmIgZWbKSYad/yvvfehQQUEQwGcQBiwFmC+INXZI8SkPWxU/nbXEesVJw/r1tUJcWNKPdrwnZMrTqucbl1LzINAw3hhw541CzER1hF1C6SntFOIge7hbTldm7i7jsj3qcOaMa+uDuIJS6wp8FLGzezDW2qr9ksb5VIyxPIFN833D/ElwM3aKcRER9Ij2s5FWYNBCqUxOK26OiiCQ743AGa+c9qxGXL9a2hA/BTtFGIg4+gF0rlICYDHuQjSiLJVwEo91re7/jI0IH6KdgoxClvnfrYm+gK6f4QRxB2kABN21IhOtO/yYcpydOY76Qea2yhZ1In60c8aiGmHjbVtFeXUm+uHa3NtY4w6D/qKsbvrVQPileIGN2yt11hs5gbgXjdBTGSu9ZyW6Fq1ASezCVB2OM6jLn3hWOfmzEN9YAv1ybFzX1ncaFLHac40LmXOyxcgBnLyf/t/yvNpy/wqkPgTW7oTKsbp1gzZ/7INm6KMtfSpRzvuEzQ2c1h6kjIg3qBwanVkgMtfwAvAaj1DqHrMO5dTD7tqmyjn8aUdq7asH+0d8bFHY3UgByDUAT6ehriNygy21qKD2OmOxuE6bZgTdnt8fCXlEwMA6ZPruR909K+uA2e97o2isaI/oq7ra2zG5DEu48cJV9uHBsQbZEfKIaxNLrfjNQ9gAgrX01xxQq4HjDitOvQUxAFrjXaRhwNbLqed20jZ1mM0B1JdqxBjr8FXn9mOaGv7dT370GPRn9rU+o7Sk+2Mm6/79JI/mHOkC+ZBfdW69JU3TtWAeIO8JsWJqPYbzsjHZACZndZdy/BEOWvURTJHLo1T5xTREehyeSjWvUJs6NRu7ug2sJO/sj1eW5XnTeu68vdc1PdaynZsiTI2I2UV4lMaEG9QHHcZNjtLKUYGJvLnfMT6ZkplXa4csM5CLLu7mxugcM6qfnN5RMy8ibK6GzvGCuCYZ22DqEsbxsunQkT3DKSjumzDBttT+vWGKf24jfqhLu0y9EsaEG8QIDlVkM0RibxOchZ/o57hYu1UHmXh6A6sJ0OssXK5YRTENZ0JdRD7plNl1YaqyJlztPYNnNaEtQk7HVV1Y8Z3+zm1sd2T36OPUJwiATNtl1IJNCDeqDjyAkZHGX2vC23YVR6RJuDvALk0xG5zDsQa5xyIvbm5SdP8ItpiQ6y1IZc9cVr5u+zOLGRhC+vsecCHbJ1LcdCAeKMMgBwSqUK8T1Ihc0SRs+OmC6fNjX1piL1hZGM+HbLmII6xtqYTKOBmTG8I9Y9/47qjq9rx2YFAdtc+qpizTzDaqr+5zTUgPkM4C7t9h605BahZzp+1+Djd0Mhp2alZl4bY66qxu/wbGQzZnyE+AroAv+ekdl20dnTVuhznq35y9IwTi9PB42hOc1BWub7GnTtZBsRnKFIDO0Z/uzwX6HA2shPkQBxd66FLQ+zNxUZTu/pUA7AismFXQIyO+aiu1fEy5N2mtS2TL+NGLqdYHneCnDnBQR4bwVwtQ6wLfde5hAbEZ8gOCbs1p+ysLB+xrKHURa/QkyGWLfVaPLtGrDOAGgbV9/Nl9VkhRrFBEfXgwH5iHgKYPnL9rDzfSLdCjuLTeqEu2vuaQGc8ojnrbHtUFvl0pwHxGXKkmxyNujrIawhkcn6edxWwhm15Q7gcH2iMWYj5aVb9d9cY05GVqIzUDzY5Z9VnAKkQM479Em2SiMCdHSHPN9XN1xgnIjnX82YNOQ3BT6xZSHXZTEvjDojPFIs6F4GzcNbaep1jKVtyIH0vXQcecsmaypzqF7FZaTt3jHdami+2nLIX0Qf2orrJOi1DDGCAfEEBcRj2BYib+ova2k51l15sH9qnZiHOu2Gt2LHkPuw22nfKu5DPuRy4tyjbO/Tl1SzEQ0N70SzERFaOe54pIu5uL6H87JCIXaP5y1Ce59D+dTonDnU55lapn/yo5JgTd3WvpEvd2A3djpYhxvFx83QJqb97eToxdDsaEJ8pbkRPPSoaejkaEG8U68Ic+KEA8Zmyru7Qy9GAeKWIuv7Zll+kNI+A2P2+9fi/6XTthq6vAfFKha2AHL86IT5zbUD86jQgXqFjFJat4xHd7WlAvEL8ohjtz4GYaM3zcZ6T85IL/XX1+BWSdxXiOu3wA224Rjmf515aR1GnG4My+o/n9fRf64TyOxNsYuxAXb+vWgPiFcKJzn9lK68bdnU60Y75+m0s3jYLqR9+QKr1AYfrXPMbXeTfU1v84VdApze7atuQx5vqRxkbwC/C01/YgNTX3BtiD2++7zkDrddusiP771Y0IF4popdtlXjN8FREOoL/zmf1KSOS+9+jqbyCbIhV7lcWtVa0xw9sHKCmjuchGKmb2yL6xz7mmKOs3x9WG9aeKA7UXDfwGq97VxdoGZ++EPPH3m7zvWoNiDfITiciYbPmgv1dFEOGXuB0/woCgAK2vBkMMX1LANS95ER/gNedCI7UGpNNEGV+91ll3cvs9O9cX3Oqr1t6npojNi6lL7egAfFGAUrc5IWYRwXO4wmeDkTkDaG29BdlEYnpfy7S+19IqF1Xx5FfY0bURv7XFirrIjea22wB8Vy7W9KA+AwRfZ2z0if2C7w8L+Dy2kmkD4BQ5X+Hpnasc7SjfC7KhnKakm8yie7MjTHjdGADOTWRjcBabUDhgxy9UUCcy25VA+InKufKEVV9hMfa5RupLEU/1EXivEadfJOm8XIua3+pP9Y0yo7AYwfjdXYAazPmgHhOdwgxclTVPAKgI8QSxz/f55Rz6rUQO6cGStWNsrAhpxIZYjZLNz4iotfUZEA8pzuF2NFYQEUaADxeO4FW6y5pLcQo8nLgJG1grDo3yg23rm19vm2I1X937dY0IF4hYJi7QUMRBYE5yhgHIAEz113SFogjfeCGzJ8FXU4lQvE0o3tKsqS7iMQcS3YEkE1Hlz8/BeydQgycRL58VOdrnoOUn80SIVkz2nVRkLrAlzfHFoidUmg+9B9RuXsU5ptM/Kfrnf2cGtiR0xp0FxCzuEwMsTgsAA7jwTl5FgtnyIEDsCdH+vMc6DuFmLkHCLRn/o6+zJPNrb8VENYvoiDtaMN31i+go68MjyHWOGsgRtSL9ebpwtxpcTxVNSZjk/Zgi/NlynWDVzeAb/pUP5fdqmYhPiUWjGhAlMGBLBRQsrB2Es6rEVx/9wgxAjCc77lNd/Z8BgZujro2iHWJdMPttCa0Y+41QtMP67T26Df0rKvmlZ9ydGIsQ886TPazFsypi9Dhl1p+izob4jUiyrB4ATjO5G9cN8RThLMmh1xT50KcxQaei3pLOqfNNXSu/beqq0J8SkTyiOKfO97Ix2oUvxDgl4B46Lb0SiFeEjckHJfk4Rx5HIXkfT7OATqi98YIPiC+P90sxJ04Aone8YCePJAI7p9WgbSCnTUgvlvtCuI1iggeeThR/HMRXOraDe1Xdwdxp3hUSBTvnqUO7VtfCoiH7lsD4qHda0A8tHsNiId2rwHx0M714vB/aqd4vAIC3nsAAAAASUVORK5CYII=;" vertex="1" parent="0WjlItf-CRWbp25ZSryx-1">
          <mxGeometry x="529" y="224" width="127" height="45.92" as="geometry" />
        </mxCell>
        <mxCell id="0WjlItf-CRWbp25ZSryx-6" style="edgeStyle=orthogonalEdgeStyle;rounded=1;orthogonalLoop=1;jettySize=auto;html=1;exitX=0;exitY=0.5;exitDx=0;exitDy=0;endArrow=none;endFill=0;" edge="1" parent="0WjlItf-CRWbp25ZSryx-1" source="0WjlItf-CRWbp25ZSryx-7">
          <mxGeometry relative="1" as="geometry">
            <mxPoint x="988" y="218" as="targetPoint" />
            <Array as="points">
              <mxPoint x="840" y="218" />
              <mxPoint x="840" y="467" />
              <mxPoint x="1228" y="467" />
              <mxPoint x="1228" y="219" />
            </Array>
          </mxGeometry>
        </mxCell>
        <mxCell id="0WjlItf-CRWbp25ZSryx-7" value="" style="shape=image;verticalLabelPosition=bottom;labelBackgroundColor=default;verticalAlign=top;aspect=fixed;imageAspect=0;image=data:image/png,iVBORw0KGgoAAAANSUhEUgAAALEAAABACAYAAABV55Z5AAAAAXNSR0IArs4c6QAAAARnQU1BAACxjwv8YQUAAAAJcEhZcwAADsMAAA7DAcdvqGQAAAASdEVYdFNvZnR3YXJlAEdyZWVuc2hvdF5VCAUAAAuySURBVHhe7ZzNriRHEYXvSyGewg/AjgfwE1g8AjvvLFnIQrJASMgSCyRAQiA2IITYAAtYIITBHozxgGGWzfnOrWiHw1HVVX27Z7rauTi63Vn5E5nxZWRUdc08vHjx4jA0tGcNiId2rwHx0O41IB7ave4W4mfP/3f4yz//e/jjs08Pv/rrfw7f/d0nh2/84qPDGz/7qK0/tF/dBcSA+uM/PT+8/dt/Hb75y48Pr//0H4ev/fDZ4Svf++Dw8O2/Hx6+9bfHvxJlXR9D+9XNQ/z808eI+vsPHiPqe3/45PDmrz82pA/fmSANvavvWVwvGhDfn24KYlKA37z/2dH/+k8eI+pXvz9BWIEtgK7RgPj+9NIgjojK0R9lpACAakg58tE7Jao2ID5FA+L701UgJqL+/M//do4aEfW1H3xogPKNFfmrwW1gu5YGxPenzRATUYmmQEp+Gkf/1380HftLEVXfATr6MsTUKaBdUwPixxth1h7/ddf3plmIgZWbKSYad/yvvfehQQUEQwGcQBiwFmC+INXZI8SkPWxU/nbXEesVJw/r1tUJcWNKPdrwnZMrTqucbl1LzINAw3hhw541CzER1hF1C6SntFOIge7hbTldm7i7jsj3qcOaMa+uDuIJS6wp8FLGzezDW2qr9ksb5VIyxPIFN833D/ElwM3aKcRER9Ij2s5FWYNBCqUxOK26OiiCQ743AGa+c9qxGXL9a2hA/BTtFGIg4+gF0rlICYDHuQjSiLJVwEo91re7/jI0IH6KdgoxClvnfrYm+gK6f4QRxB2kABN21IhOtO/yYcpydOY76Qea2yhZ1In60c8aiGmHjbVtFeXUm+uHa3NtY4w6D/qKsbvrVQPileIGN2yt11hs5gbgXjdBTGSu9ZyW6Fq1ASezCVB2OM6jLn3hWOfmzEN9YAv1ybFzX1ncaFLHac40LmXOyxcgBnLyf/t/yvNpy/wqkPgTW7oTKsbp1gzZ/7INm6KMtfSpRzvuEzQ2c1h6kjIg3qBwanVkgMtfwAvAaj1DqHrMO5dTD7tqmyjn8aUdq7asH+0d8bFHY3UgByDUAT6ehriNygy21qKD2OmOxuE6bZgTdnt8fCXlEwMA6ZPruR909K+uA2e97o2isaI/oq7ra2zG5DEu48cJV9uHBsQbZEfKIaxNLrfjNQ9gAgrX01xxQq4HjDitOvQUxAFrjXaRhwNbLqed20jZ1mM0B1JdqxBjr8FXn9mOaGv7dT370GPRn9rU+o7Sk+2Mm6/79JI/mHOkC+ZBfdW69JU3TtWAeIO8JsWJqPYbzsjHZACZndZdy/BEOWvURTJHLo1T5xTREehyeSjWvUJs6NRu7ug2sJO/sj1eW5XnTeu68vdc1PdaynZsiTI2I2UV4lMaEG9QHHcZNjtLKUYGJvLnfMT6ZkplXa4csM5CLLu7mxugcM6qfnN5RMy8ibK6GzvGCuCYZ22DqEsbxsunQkT3DKSjumzDBttT+vWGKf24jfqhLu0y9EsaEG8QIDlVkM0RibxOchZ/o57hYu1UHmXh6A6sJ0OssXK5YRTENZ0JdRD7plNl1YaqyJlztPYNnNaEtQk7HVV1Y8Z3+zm1sd2T36OPUJwiATNtl1IJNCDeqDjyAkZHGX2vC23YVR6RJuDvALk0xG5zDsQa5xyIvbm5SdP8ItpiQ6y1IZc9cVr5u+zOLGRhC+vsecCHbJ1LcdCAeKMMgBwSqUK8T1Ihc0SRs+OmC6fNjX1piL1hZGM+HbLmII6xtqYTKOBmTG8I9Y9/47qjq9rx2YFAdtc+qpizTzDaqr+5zTUgPkM4C7t9h605BahZzp+1+Djd0Mhp2alZl4bY66qxu/wbGQzZnyE+AroAv+ekdl20dnTVuhznq35y9IwTi9PB42hOc1BWub7GnTtZBsRnKFIDO0Z/uzwX6HA2shPkQBxd66FLQ+zNxUZTu/pUA7AismFXQIyO+aiu1fEy5N2mtS2TL+NGLqdYHneCnDnBQR4bwVwtQ6wLfde5hAbEZ8gOCbs1p+ysLB+xrKHURa/QkyGWLfVaPLtGrDOAGgbV9/Nl9VkhRrFBEfXgwH5iHgKYPnL9rDzfSLdCjuLTeqEu2vuaQGc8ojnrbHtUFvl0pwHxGXKkmxyNujrIawhkcn6edxWwhm15Q7gcH2iMWYj5aVb9d9cY05GVqIzUDzY5Z9VnAKkQM479Em2SiMCdHSHPN9XN1xgnIjnX82YNOQ3BT6xZSHXZTEvjDojPFIs6F4GzcNbaep1jKVtyIH0vXQcecsmaypzqF7FZaTt3jHdami+2nLIX0Qf2orrJOi1DDGCAfEEBcRj2BYib+ova2k51l15sH9qnZiHOu2Gt2LHkPuw22nfKu5DPuRy4tyjbO/Tl1SzEQ0N70SzERFaOe54pIu5uL6H87JCIXaP5y1Ce59D+dTonDnU55lapn/yo5JgTd3WvpEvd2A3djpYhxvFx83QJqb97eToxdDsaEJ8pbkRPPSoaejkaEG8U68Ic+KEA8Zmyru7Qy9GAeKWIuv7Zll+kNI+A2P2+9fi/6XTthq6vAfFKha2AHL86IT5zbUD86jQgXqFjFJat4xHd7WlAvEL8ohjtz4GYaM3zcZ6T85IL/XX1+BWSdxXiOu3wA224Rjmf515aR1GnG4My+o/n9fRf64TyOxNsYuxAXb+vWgPiFcKJzn9lK68bdnU60Y75+m0s3jYLqR9+QKr1AYfrXPMbXeTfU1v84VdApze7atuQx5vqRxkbwC/C01/YgNTX3BtiD2++7zkDrddusiP771Y0IF4popdtlXjN8FREOoL/zmf1KSOS+9+jqbyCbIhV7lcWtVa0xw9sHKCmjuchGKmb2yL6xz7mmKOs3x9WG9aeKA7UXDfwGq97VxdoGZ++EPPH3m7zvWoNiDfITiciYbPmgv1dFEOGXuB0/woCgAK2vBkMMX1LANS95ER/gNedCI7UGpNNEGV+91ll3cvs9O9cX3Oqr1t6npojNi6lL7egAfFGAUrc5IWYRwXO4wmeDkTkDaG29BdlEYnpfy7S+19IqF1Xx5FfY0bURv7XFirrIjea22wB8Vy7W9KA+AwRfZ2z0if2C7w8L+Dy2kmkD4BQ5X+Hpnasc7SjfC7KhnKakm8yie7MjTHjdGADOTWRjcBabUDhgxy9UUCcy25VA+InKufKEVV9hMfa5RupLEU/1EXivEadfJOm8XIua3+pP9Y0yo7AYwfjdXYAazPmgHhOdwgxclTVPAKgI8QSxz/f55Rz6rUQO6cGStWNsrAhpxIZYjZLNz4iotfUZEA8pzuF2NFYQEUaADxeO4FW6y5pLcQo8nLgJG1grDo3yg23rm19vm2I1X937dY0IF4hYJi7QUMRBYE5yhgHIAEz113SFogjfeCGzJ8FXU4lQvE0o3tKsqS7iMQcS3YEkE1Hlz8/BeydQgycRL58VOdrnoOUn80SIVkz2nVRkLrAlzfHFoidUmg+9B9RuXsU5ptM/Kfrnf2cGtiR0xp0FxCzuEwMsTgsAA7jwTl5FgtnyIEDsCdH+vMc6DuFmLkHCLRn/o6+zJPNrb8VENYvoiDtaMN31i+go68MjyHWOGsgRtSL9ebpwtxpcTxVNSZjk/Zgi/NlynWDVzeAb/pUP5fdqmYhPiUWjGhAlMGBLBRQsrB2Es6rEVx/9wgxAjCc77lNd/Z8BgZujro2iHWJdMPttCa0Y+41QtMP67T26Df0rKvmlZ9ydGIsQ886TPazFsypi9Dhl1p+izob4jUiyrB4ATjO5G9cN8RThLMmh1xT50KcxQaei3pLOqfNNXSu/beqq0J8SkTyiOKfO97Ix2oUvxDgl4B46Lb0SiFeEjckHJfk4Rx5HIXkfT7OATqi98YIPiC+P90sxJ04Aone8YCePJAI7p9WgbSCnTUgvlvtCuI1iggeeThR/HMRXOraDe1Xdwdxp3hUSBTvnqUO7VtfCoiH7lsD4qHda0A8tHsNiId2rwHx0M714vB/aqd4vAIC3nsAAAAASUVORK5CYII=;" vertex="1" parent="0WjlItf-CRWbp25ZSryx-1">
          <mxGeometry x="860" y="195" width="127" height="45.92" as="geometry" />
        </mxCell>
        <mxCell id="0WjlItf-CRWbp25ZSryx-8" value="&lt;font style=&quot;font-size: 24px;&quot;&gt;marvel.local&lt;/font&gt;" style="text;strokeColor=none;align=center;fillColor=none;html=1;verticalAlign=middle;whiteSpace=wrap;rounded=0;" vertex="1" parent="0WjlItf-CRWbp25ZSryx-1">
          <mxGeometry x="538" y="165" width="60" height="30" as="geometry" />
        </mxCell>
        <mxCell id="0WjlItf-CRWbp25ZSryx-9" style="edgeStyle=orthogonalEdgeStyle;rounded=1;orthogonalLoop=1;jettySize=auto;html=1;entryX=0;entryY=0.75;entryDx=0;entryDy=0;exitX=1;exitY=0.5;exitDx=0;exitDy=0;endArrow=none;endFill=0;" edge="1" parent="0WjlItf-CRWbp25ZSryx-1">
          <mxGeometry relative="1" as="geometry">
            <mxPoint x="655" y="246.96000000000004" as="sourcePoint" />
            <mxPoint x="528" y="258.44000000000005" as="targetPoint" />
            <Array as="points">
              <mxPoint x="741" y="247" />
              <mxPoint x="741" y="411" />
              <mxPoint x="520" y="411" />
              <mxPoint x="520" y="258" />
            </Array>
          </mxGeometry>
        </mxCell>
        <mxCell id="0WjlItf-CRWbp25ZSryx-10" value="&lt;font style=&quot;font-size: 18px;&quot;&gt;vormir.marvel.local&lt;/font&gt;" style="text;strokeColor=none;align=center;fillColor=none;html=1;verticalAlign=middle;whiteSpace=wrap;rounded=0;" vertex="1" parent="0WjlItf-CRWbp25ZSryx-1">
          <mxGeometry x="596" y="266" width="60" height="30" as="geometry" />
        </mxCell>
        <mxCell id="0WjlItf-CRWbp25ZSryx-11" value="&lt;font style=&quot;font-size: 18px;&quot;&gt;Domain&amp;nbsp;&lt;br&gt;Controller&lt;br&gt;&lt;/font&gt;" style="text;strokeColor=none;align=left;fillColor=none;html=1;verticalAlign=middle;whiteSpace=wrap;rounded=0;" vertex="1" parent="0WjlItf-CRWbp25ZSryx-1">
          <mxGeometry x="926" y="288" width="98" height="33" as="geometry" />
        </mxCell>
        <mxCell id="0WjlItf-CRWbp25ZSryx-12" value="&lt;font style=&quot;font-size: 18px;&quot;&gt;&lt;b&gt;&lt;u&gt;A-record&lt;/u&gt;&lt;/b&gt;&lt;br&gt;vormir.marvel.local&lt;br&gt;=&lt;br&gt;192.168.44.138&lt;br&gt;&lt;br&gt;&lt;/font&gt;" style="text;strokeColor=none;align=left;fillColor=none;html=1;verticalAlign=middle;whiteSpace=wrap;rounded=0;" vertex="1" parent="0WjlItf-CRWbp25ZSryx-1">
          <mxGeometry x="1024" y="397" width="100" height="30" as="geometry" />
        </mxCell>
        <mxCell id="0WjlItf-CRWbp25ZSryx-13" value="&lt;font style=&quot;font-size: 18px;&quot;&gt;hydra-dc.marvel.local&lt;/font&gt;" style="text;strokeColor=none;align=center;fillColor=none;html=1;verticalAlign=middle;whiteSpace=wrap;rounded=0;" vertex="1" parent="0WjlItf-CRWbp25ZSryx-1">
          <mxGeometry x="968" y="227" width="236" height="30" as="geometry" />
        </mxCell>
        <mxCell id="0WjlItf-CRWbp25ZSryx-14" value="" style="shape=image;verticalLabelPosition=bottom;labelBackgroundColor=default;verticalAlign=top;aspect=fixed;imageAspect=0;image=data:image/png,iVBORw0KGgoAAAANSUhEUgAAARQAAACDCAYAAABMZOQ2AAAAAXNSR0IArs4c6QAAAARnQU1BAACxjwv8YQUAAAAJcEhZcwAADsMAAA7DAcdvqGQAAAASdEVYdFNvZnR3YXJlAEdyZWVuc2hvdF5VCAUAABtpSURBVHhe7Z0JeFTlucdbra29drXtbWuX21YgICAgSwEXBEQEuXAB6YWwVDYFiiBXRUFAoCIiV6+I7KKgrJadEPY1MRgChC1AQggQIUBYMjNJZjLZ3vv9vzlj5oRvJpNlcs6cvH+fv8/D5MycJXN++d73e8/7fYdYLBarisRAYbFYVSYGCovFqjIxUFgsVpWJgcJisapMDBQWi1VlYqCwWKwqEwOFxWJVmRgoLJZFVVxcTIWFhVRQUEBFRUXy36EWAyXMVSC+I7fzi+lcdhElZhVS3K0C2nYtnw7dLqQc/JBlWQEUt2/fpvPnz9OJEyfo0KFDtG/fPoqOjqZ169bR2rVrafXq1bRy5Ur617/+JV+Dd+zYQTExMZSQkEAnT56k1NRUunHjBuXl5WmfXHExUMJAhYILWQIaKQIaCQIU+28U0OaMfFp60U0fpebRhCQn9U/IpU6x2fToPgfV2m6noUdy6WJukfYJ5hBuALfbrXR+fr78Kxoq4a9zoP3jZ9XxF7wywvEBIMeOHaNdu3bR0qVLaebMmTRq1Cjq378/devWjdq0aUONGjWiBx980K9btGhBTz31FPXo0YMGDBhAI0eOpHfeeYc++eQTCaHY2FgJmlu3bpX7d8JAMYnwVXYKcmS4iui4rZBibxZQ1NV8WnzBTTNTXDTulJP6HcqlpwU0Wu11UO1tdvrxRht9d20WfUfhvmLbCyYCCobe+KLOnTtX6VWrVlFaWpq2ddXL4XDQzp07ad68eUrv2bOH7Ha7trW55HQ66ejRo3KUMX36dAmBdu3aUe3atZXAqIwbNGhAXbp0oYEDB9K0adNoyZIlctSTkpJCLpdLOyL/YqBUsxCF3HIX0wkBDYw0NomRxvy0PJp21kVvCmgMO5pL3eJyqM3+bGqw00E/22RTAqMsmw0oGE6//fbbyi8x3KlTJ3nDh0rffPMNvfzyy8p9w2PHjqX09HRta3MIIwSADqOQfv36UbNmzZTHHkrXrVuXnn32WRoxYgTNmjWL9u/fL/84+BMDJQTyhihJ9kLam+kJT7645Kb3kvPkSGN4Yi51FdB4TIQnDXfa6Reb/Y80KmoGil7hBJTc3FyZ55g0aZIcLaiO1wgDLriGgXItDJQKCrcqQpQrIkQ5fLuQtorwZEW6CE+SXfTKCafMYXSN8+Q0mux20F+0EOUuxc0fCjNQ9AoHoCBHgtzFjBkzqHPnziEJaSrrwYMHBwx9GCgBhBxdXlExZTiRDC2gKDHSWCagMV2EJ/8Qo4xBAhq9vs6hdgeyqamARsR2O90vQpS71qlv8uo0A0UvswMFeRLMwAwaNEjmMVTHaAYzUIIQbjubCFGOZxXKROjnIjxBTmPI4Vx5Y/6XltNovMtBdQQ0EKLcbQJoBDIDRa+ygPL666/LbYzQ1atXZX6iQ4cOFBERoTw+f65fvz4988wz9Pe//51Gjx4tZ2tmz55N8+fPp8+WfEbLli+jxYsXy3/jdSR1x4wZQ0OGDKE+ffrQo48+Wq6REIDCIY+QGGiQo6CYTtsLKVpAAzmND8/l0SvHnRR5KEfmNB7fl00NdzqolghPfimgYYaRRkXNQNHLrEBBDQlyJZjKrVWrlvLYfI1tsC2SpHPmzKGoqCiKj4+npKQkOUuWmZkpZ6tycnLkNcd0uNPllP/G66g3uXDhAp09e1bWrhw4cIA2b94soYNr0Lt3b2rYsKFy3zADRWh3ZoGExtMxninX+gIaDwpoPLDF5slrhDE4/JmBopcZgYKCMuy3cePGymPyNUYRqDP56KOP5PQ7QGSz2aqkdgefAeDg/AGmvXv30qeffkrDhg2jli1b6o7DkkApKi6mm+4iir9dQMvT3TQ7NY/GnnTS/4jRxiXFTTQvLY/u21Cx6ddwNQNFL7MBBaMJ7LOsIjS4ffv29Nlnn8mbPSsrK+QFePj87OxsOZL5+uuv5eilb9++VK9evfAECq4XZlBQ6Ynw5JMLefR+iotePeGkHgc9owwkQevtsNMfo+30GzHSQL0GchxnHHfOkX98Po9+sF5941nVDBS9zAQU5EwmT55c5sgE+ZQpU6ZIkOAGN0JeuACAmMpes2aNrCz2J8OAAsYCGuniS48Cr6WXPFOuIxNz5axJIwGHugDGVg8wkNP4iYDG9wOAAYVgpxko0gwUvcwCFMzmoDIYeRDVcXjdqlUrWRmLnEeoRyTBCo9HAC6BjiekQEEiFLMnuMk3ZuR7njs55aLe8Tn0iBhh4JmTPwtgPLDFTr+KstHPBTAQmlR0BoWBUmIGil5mAApuxE2bNsnZnEAJWIQ4SJYCPuGmSgMFsMLsSZK4kfGwGmo0RiY66QkxysDoArD4tYDF/RhhbPQAA6OMUBR4MVBKzEDRywxAOXPmjEx0Bpqmbdu2rXwKGKOBcFRQQCkQ1LjuKqI9mfny5px82kXDj+ZShwMO+n20BxY/1UYXP9yQJW9eI+o0GCglZqDoZTRQUAyGad5ARWuPPPKIfIo4UI7C7FICBcnQBWl5NPhwLjUToQkSnvcKUGBkcY/w9wQsAAyzTbcyUErMQNHLaKB89dVX1LNnT+W+vf7iiy/k9G04SwkUPNDWel+28otqZjNQSsxA0ctIoGB0gvoR1X69Rk+Sy5cva+8IXzFQLGoGil5GAgW9TCIjI5X7hZs3b05xcXEhbTBVXWKgWNQMFL2MAgoggRaMeOZGtV944sSJsjbFCvILlEfDFCiYbSotBorxqqlAuXbtGk2dOlW5TxhJWpx3oKZF4SQGikXNQNHLKKAkJibKB+5U+4TRiQ0P6llFDBSLmoGilxFAQSEbytVR9araJ4y+rdevX9feEf5ioFjUDBS9jAAKWgesWLFCuT8Y1bJffvll2BaxqaQEyj4GStibgaKXEUBB/5GPP/5YuT8Y+ROMYKwkNVBuMFDC3QwUvYwAypUrV2jChAnK/cFYG+fgwYPa1tYQA8WiZqDoZQRQzp07JzurqfYHo3IWSVsriYFiUTNQ9DICKFgcCw8DqvYH1yigPMZACWszUPRioFSPGCgWNQNFLzMCBeeMBc6tJAaKRc1A0csIoKCRNB76U+0PxtKiWGrUSrIUUNDNnoHiMQNFLyOAUtYsT506deQSFlZ4KNArJVDQ45WBEt5moOhlBFBQh1JW2wJ0s8daxlYRA8WiZqDoZQRQUAG7bNky5f68HjdunCX6oHhlPaDYGSgwA0UvI4CCZ3m2bt0asMM9Fu86fvy49o7wFwPFomag6GUEUKDDhw9Tr169lPuEseznli1bLPM8DwPFomag6GUUUBDOvPnmm8p9eo2fZ2RkaO8Ib/kFChYOV31RzWwGSokZKHoZBRR0sF+6dCk99NBDyv3Cf/3rXykmJsYSTZb8A2U/AyWczUDRyyigQOh437VrV+V+YbQxGDVqlHWbVDNQwt8MFL2MBMqtW7cCnjuMXIpll9FgoIS/GSh6GQkUFK5tiY6mdu3bK/ftNWaDUDkbzglaJVAOMFDC3gwUvYwECnTz5k166623lPv29eOPP06xsbGy21s4ynJAOcVAkWag6GU0UFCTggXQu3fvrty/18intG7dWuZdwjFJy0CxqBkoehkNFAijjoULF8o1jFXH4Gus47Nx48awgwoDxaJmoOhlBqBAWKfntddekw8Gqo6jtP/5z3+GVU7FL1CeYKCEtRkoepkFKFBycjINHTo0aKig0jY9PT0sRisMFIuagaKXmYCCfEpSUhINGjSIIiIilMdT2ih+Q4k+nkzG+80qBopFzUDRy0xAgQCFU6dOSajUq1dPeUylje1Qpo/jRAWuGaUESgwDJezNQNHLbEDx6syZMzR8+HBZ2IYZHtWx+RphUufOnSk6OloWzJmtORMDxaJmoOhlVqBAKLl/4403qHnz5lS7dm3l8ZV248aNaeLEiXT69GlTVddaDignGSjSDBS9zAwUyNvdDYt/BZusRf6lS5cutHLlSnnsZpgNUgPlJgMl3M1A0cvsQIEQvmzatIl69+4t61BUx6kyRiujR4+mffv2yYpcI5O2DBSLmoGiVzgAxSska3E8LVu2DCqvAmO7J598kj744AM6ceKEYWGQX6C0MQlQvqv5rnUe3+3j7wnf47UARuNd6hzKJxfc9MAWO/1ys41+BUfZ6N81/1r499F2+oPwHzX/B7zV4z/5+M/wNjv9RbiWcJ3tekd4vcNOdRWuJ/zQTrsAX4kbfGuHXzf0tTjHh4UbacY5N9ntoEeEm2putsdBE5NclOEKI6B0FkDZxUDxKjs7W1bV9ujZI+i8Coy+K3369KHly5fLZTyqezZICZSzjkKactpFveNzqM+hEkf6uK90LvXT3D8hl54/7N8DFR5U2kdKPFh4iOahwi8czaUXNQ8THp6YSyOE/5HolB55zEnTzqpvosNZhfRusoveET+Hpwu/m5xHM4TfE56dmkdzxChmrvA84fnCC9I8Xqh5kfAnF2A3LRZeeslNy9LdtFzzCs0r4W/ctMrHqzV/KbzmspvWXnHTOs3rv3W+zht8neHxRs2bhaOu5tMW4a3C267l047r+bRTeNf1AtqTWUCnxe/QVWieeoWygdJZAGWXtnXVK9yAAiF0iY+Pl8cdqC+tykjwIgyKioqiq1evVttskBIoBeJ7mC3+Z8v32K7ZIV6D8TM4RzhXfGlhp3B+UTEVwOJCwIV3WMSJPhYv6S32DbOsJwZKxYXp4UWLFsncSrCFcF4jDJoyZYrsCOdwOLRPDJ2UQGGxqloMlMoJZfcJCQmyBQIgoToHfwaEevToQfPmzZN1L6EMgxgorGpRWUBBsRYDJbAQAmVlZdGaNWvohRdekLM7qnPxZzzljPetXbtWjnpCMRvkFyi+YQiLVVkBKNOmTVN+0WEAZRcDJSihDQJGGvPnz6eePXuWK2kLt2vXToZBiYmJVV67ogRKanYR/d+5PBqpJTvhlzSPEh4t/PJxJ40RfuWEx68Jjz3ppNeF3xAed8pJ44XfFJ6Q5KS3TnsSoh+k5MnPhj8UniX8UaonMQpjivfbBGlaHs0XXpDmlv5cS4SWToZ6E6Fbr+XLHE9p3XQXy05upX26tB16n/FjJK19nSxdpLe4hill+NwdLqQrzqKgnFHaLr2z8j05K7OIgVL1wtQwGjFNnTqV2rRpozwvf8ZsUN++feVskM1m0z6x8lICxd/Dgd9O4Qrrpm7Xe/x9YdR73AtvyKIfCv+b8H3CP9poo59vKpmqhX8j/NstHj+g+XdwNKZybfQHzXI6d6udam23U23NqqnarnE5dLFU7QXuqbWX8+npmGydO6ocq/czQbqTdM6d/qrEnYNyNnU/mBOUe5RhAPt6nnmIwkAJjTB7c/36dbnoOmZ1mjZtqjw/f37iiSdo/PjxsoS/KkKgcgHF7EadBv7y+wqX6H0xKlJtb2WbsbCNgRI6IdGamppKn3/+ueyfgkSs6jxV9tauAEqV7bliQaDoLwgDxRxioFSPUBB35MgRmj59umx4rTpXf27fvj299957MvFbUTFQLGoGil41BSgQwqDMzEy5UDs6w6E1guqcVW7SpAmNGDGCUlJStE8rnywHlGQGijQDRa+aBBSvcM3T0tJkCX/btm2V560yGjk999xzFBcXp31S8LIeUBwMFJiBoldNBAqERCtaIwAOGK00aNBAef6ljalo/E5Qul+eZC0DxaJmoOhVU4HiFWpXMjIy5GgF6/6orkFpAyrIq2BqOVioWBAod95EqH1RbW9lM1D0qulA8QpNrg8ePChrUOrWrau8Fr4GVFDqv2LFiqCgwkCxqBkoejFQSoSp4Rs3btCkSZOCCoHQa6Vjx460e/du7RP8i4FiUTNQ9GKg3CnUrqxfv56aNWumvCa+BlRQ5o8CuEBioFjUDBS9GChqIYxBh7dgalYQIr300ksyyetPlgIKupudZaBIM1D0YqAEFsr3n3322TJbTqJx09y5c/3mUywIFP0sD/TBOQaK0WKgmF9Op5MiIyPLfHoZpf3Hjh3T3qUXA8WiZqDoxUAJTghnunXrprxGXqPyFr9LVesDBopFzUDRi4ESvFB2j7WUVdfJa1TSot9taTFQLGoGil4MlOCFIrhVq1bJp5BV1wpGm4Q5c+bc8XQyA8WiZqDoxUApnxD6DBgwQHmtvMaazOnp6do7PGKgWNQMFL0YKOUTRinbt28POEpBsRsWbfcVA8WiZqDoxUApv9ACIVCCFk2yMYXsu+YPA8WiZqDoxUApv9Czdvbs2crr5fWECRN06/0wUCxqBopeDJTyCwnXQ4cOUZ06dZTXDMayHL7NmCwHFHSlLy0GivFioISnLl68GLAsH8/3oPO+VzUCKOgAr9reymag6MVAqZiuXbtGgwcPVl4zGOX6vk8hM1AsagaKXgyUiunmzZs0duxY5TWDn3rqKdqyZYu2dQ0CCtYTUr3Hqmag6MVAqZiwCBg66KuuGfzYY4/JpVG9UgIlhoES9mag6MVAqZiwLAeWPFVdMxgl+ujm5lWNAAqWPP3uOvV7rGoGil4MlIoJU8effvqp8prBWHlw3bp12tYWBArWJC4tAOUuBoqhYqCEp8oCSocOHcrOoTBQwt8MFL0YKBUTcihYTVB1zeCgZnkYKOFvBopeDJSK6datWzRu3DjlNYN79OhBsbGx2tY1BCizUvPobgaKoWKghKfwPM/IkSOV1wx+/vnn6eTJk9rWNQUoYoTCQDFWDJTwFNoToNZEdc1gXDeMYrxioFjUDBS9GCjlF54iPn78OEVERCivGV5HfsW3yZLlgJLkJ+T5HgPFUDFQwk9YZRBd2VTXC8aKgmvWlhS1QQwUi5qBohcDpfxC2T16x6quF9wnsg8dOXpE29qjGgGUjxgohssUQBnDQAlW3o5t/loXYKkN9ELB0hu+YqBY1AwUvRgo5RN6yvbu3Vt5reC2bdvS2rVrta1LpAQKytdHH3PSH6JtYZXMDASUexgohopDnvCRt+u96jp5jcZKGRkZ2jtKpASKr/KKiumi+GJuvJJPM5Jd9JIATfsD2fTLzTb64YYsund9Fn1f+B5hjAIAIKMexAsIFHF8qvdY1QwUvYwACpbr9Ldkp1mF4z179iw1adJEeZ3gli1b0uLFi7V36FUmUPwJ18lZKGCTU0jbr+XLatQJSS6KjM+lejvsdL8Azs822ehHGwEeG90r4APwhLJitb4foMxmoBiumgYUTLmiKCz1/HlyK1bYM6MAk6tXr1LHZzoqrxGM3MmLL74o10JWqcJAKUsuAZsURxGtFyOb/03JozeTnDQgIYda7nXQH6Pt9NstNvqFgM5Pv4WOZ4RTmdENA6XEDBS9JFCqMYeC2oz169fLh+cQPty4cUO5dKdZhOPF+eP3oLo+MBZS7/B0B9q8ebP2rjsVMqAEUr74nl9xFdHuzHxakJZH75x10ahjufRMbLYMW/6yzU6/F9D5VZSNfi6Ac58ATjC5HAkUuxooGB2p3mNVM1D0Mgoo+GysbYMS9R07d1DmjUxyu93aVuYQ6k2OHj0aECYwwqAZM2bIHIs/GQKUQCoSw66b7mI6dLuQPr/klqObUcec9OR+BzXe5ZDQqL3dTr+LttGvNeD8QIMFA6XEDBS9jASK140aNaLhI4bTjh076MqVK+RyuQzNsWDEhONYsmRJmWsZA4ojRoygy5cva+9Wy3RACaQCcfEz84rouK2QVn/jprnn82iSCKX+9nUutRKh1H/H51Bq9p030cdiOwaKsappORQVULx++OGHZeNnTLsiAXr79m25fXUJvwuABG0HcBx169ZVHqfX+Hm/fv3o2LFj2if4V1gBJZAKxL1jzy+Ws1KltTEjn56OyZb5G4xi/rTVk8O5b4PNsm0NGCh6mWGEUtpIcGJlvvfff1/e3MnJySHLtSDMQgf7U6dOyeMaPXq0BJvquHwNmKAexXepjECyDFDKklvcW984i2hvZgF9IUKpD0QoNTwxl7rF5UjYPL4/mxqJkArhFOpvfrLRFtZ9aBkoepkRKL6uX78+9enTR+YoNm3aRAkJCRIwCDHQ1zVQ3sJXCKEADxSm4XwwAoqPj5fHMnnyZNkQqV69espjKO2IiAiKjIwMGiZQjQGKP2FAk11QTBdyPLBBKDVPhEivnXTKEKqrAA6qhhuKkU2EgA1mqDAzZfaRDQNFL7MDpbRRiTpw4EDZ3GjhwoUyPMLC5Pv375cNjQCJxMRECZ6YmBg6cOAA7dy5U8IIs0p4qA/n1L9/f7lQF+Cg2o8/A3BDhgyR+ymPajxQAgm0t4kw6qStkDaLsGmVBpsJSU4adDhXAqdjbDY134NQyk5/3uapvzFDmT8DRS8jgIJeqw0bNlTuryJGiISisjZt2lCnTp3kqn1dunSRjaJbt24dVAgTjPFZeE4nNTVVO5vgxUCpoDCycQjYYC3lndfzac1lNy2+4KZpcgrcSc8L4CCcenRfNj0sQimMbFBrU11hFANFr+oGCv4YJaek0JSpU6hr165VCpZQGaFQ37595awPQqaKiIESAmEmMEeEUedzCuWiaRvE6GZRGmakXPTycScNPZJLz32dQ21EKNVst4NqiVAKsFGBoaI2JVDeMRooY5T7hqsaKFCx+C8rK4v27t0rGxGhFqVVq1ZypKE6BqOMcAi9Yd99913ZUKkyU9kMlGoWZqMQRp3LLpJPdW+9lk/L0t2yuO/1k0568Wgu/edXOfTYPgc1FbBBkd+PN9qU0Ahk0wHFXfOA4isUj6H3KhbFmjRpksxtILTw1x6gOoxCNYxIkAhGHgbQr6wYKCaSGNTQDa3OZp8GmxUCNni4ccppF40Ro5u/iZFN2wPZ1ESEUSjs81dBbDagYCp0+fLlsp5BZSQfjxzRN+upSmE6ds7cOdSvv9ifzv3lzb1o0SL57E2ohb/+6MGKhCoSrR9++KGcwkUjo+bNm4d89NK0aVPq3r07jR8/npYuXSqveemeJpURAyVMhKK+W+5i2Vriq5sFtE3ABpXEWGZ12hkXvXrCSZECIkgSt9jjoFfEvzFNbhbhYTlMgaLEW+UzZ87INWBCJUylXrh4Qblv+NKlS4aUxKNaNi0tjQ4ePCgBM2/ePDmCQXiEGpUWLVoowRCMkRNBwrZXr140atQoWe+yevVqOUuEhwBDUUzHQAlzIdzNK/Q8rpAswqiE24W0V4xujmYVUq54nRVe8hagITyKi4ujqKgoWrZsGS1YsIBmzpwpZ1/wtO/QoUN1HjZsGL366qv09ttv06xZs2R7AcADZf6YWj5//rysZwHYQykGCotlciFMwkgGJfoomUfBG0Z0vsZrFy9elGGbw+GQYKpMcrWiYqCwWKwqEwOFxWJVmRgoLBarysRAYbFYVSYGCovFqjIxUFgsVpWJgcJisapIRP8Pkf6SWDM4ihgAAAAASUVORK5CYII=;" vertex="1" parent="0WjlItf-CRWbp25ZSryx-1">
          <mxGeometry x="551" y="348" width="68.5" height="32.51" as="geometry" />
        </mxCell>
        <mxCell id="0WjlItf-CRWbp25ZSryx-15" value="&lt;font style=&quot;font-size: 18px;&quot;&gt;IIS Web server&lt;br&gt;&lt;/font&gt;" style="text;strokeColor=none;align=left;fillColor=none;html=1;verticalAlign=middle;whiteSpace=wrap;rounded=0;" vertex="1" parent="0WjlItf-CRWbp25ZSryx-1">
          <mxGeometry x="636" y="348" width="98" height="33" as="geometry" />
        </mxCell>
        <mxCell id="0WjlItf-CRWbp25ZSryx-16" value="" style="shape=image;verticalLabelPosition=bottom;labelBackgroundColor=default;verticalAlign=top;aspect=fixed;imageAspect=0;image=data:image/png,iVBORw0KGgoAAAANSUhEUgAAAOEAAADhCAMAAAAJbSJIAAABblBMVEX///8nd/8knv8llv8llP8lkf8ljv8ljP8kmf8knP8miv8lkv8llf8miP89hf8mg/8mhf8nfP8mgf8ZbrImfv8bU7Imdv8bXLIbWrIbYLIlof8bV7J2dnYaZbIAbf90dHQaZ7Lx8fEASq9SUlIARK0ZarKwsLDh4eEATq7E1v+WlpbX19fu8vl+fn4ATK7Jycnm7v+2zf/b5v+lpaXN3f+lwf/p8P/1+f+ZmZlpaWm6urohdd2ZrdUQcP/Dz+ckb+4AP6wiZ9weg9McesUgjuWRtP9yov9dlv/U4v9yksiux/8dYsE1abiHndBzjsrL1eofcM8dWsBZhMKCqdFYj8TS4O6Grv9rnv+Unq6xx+cvWY9dXV1MXHVZhcAgcdUjdelJdL5pnd6du/8fdtNvtf8NZecAUMKJwv9Idcxoq/9fgssif+ifzf8AL6gAY/+VqNVTkOVynck5frtYdLFbbJAAJ28YTJwRPX9udoabudn2pwhSAAAXuUlEQVR4nO2diVca2baHxYFJAasoppREJKCggIAoiQOKcSJOcUAvnY56NcONdj9ffLcH//t3hhqp6RRFofcuf91rdWLSUB97nz3VOUVf34te9KIXvehFL3rRi170ov8iVReKxXIlWyqVspVysbjw1NfTRRUr85tbPj/NUEAMFPoF7fdvbc5Xik99eZaUq8xvbUMYGuCoCPwc0G5vzVdyT32pHWihdOanKA20dlCK8p+V/pP8tpo98yI3NCFgTe9ZtvrUl06iauncoUIHHBKtP04Mo2JemnGcl547ZPacacMDXA6HIwzlEMX/HrDKKRl6K/vUENoqbjKMHM7RBqYi+BdkLk1T9PXzjLDZbYpuo9Nnk2E6pMZkqO1nZ8jqvJ/qkE5KKX5ElP/DUzNJVb0W3RPimaYTKCWmZJj55xJ1AB//2dNW8ARI/tUYev6p2ZDmBT7GMh4PyYh2fGq8vqyPvxrr5pMy8qua8T9tzClvU7x7dg+Pg+SdldouPx3gJtVd92xjdPCMm0/EV/HjK6Bt4ZMy0v7KUwBuMTbzIUbOS6iznvPt+AP4re3kkzDS/p3eAm4yfp8PLsBeiOn9asxtB3xAfqongPxyZLZ7Ngqo0KMQsDcGxIzYVZkeBZx5GhsQqmeI2IxUT0qcLeShNNes9wqRMyN1bjtfdRt7KNVrQmBGFFO3bW44il6f1+v1S0YuvUN0hBmUNmwdyu2MAj5vgJIOlXppRuSpjI2ZcScAAeVTsydApGwLqZVRl8sFAfnR/BN4KlqMlE0dFQZkmKclRGnDHkQE6GNo3oZPxYjijR2OuuNzOp0+GkrFir1H7Hq4KYuAAuHTWrHDzn9mcXFxcnJyTtTbt9PT02//4USAARnik61FFFLpTvLizBhSXinANwQAAwFtK/Yc0W++upkaz+cx4zjQmER3KM8bqceI9LZpwrf5/NuZmSmgCblyC0hFoPJOpZItfZi/3jzbOt/20eGVFf4uUs/XIr1llhBY0PSn0lctVkrzZ+c+CrH2FtF0MwUIJ8wj8sqVs/Nb3pXXvQIN0+bT4iSIMYuzszPASTsHXcheb1MQsyeIjLnBxgQgHB9/hwVCTX767dzkYqvWXDA7ICmWzgCl7bYE8dRktJmYfqPQL7FYLJTJsHvHjf3l2mGuShqjc6UtSGkzImN2AjcH0jtYju/efeIAf40nEoAxFolEoyzLZjKhyN5VY7l1SJRvy9e0nZAwZ5gt36ZmcVEziQubt9OJRCIe4xTBgqihTCEZvW081ppGDlyc99sHieo3c4ScJiZAUpyZmZ39HOcAIxGBUA6aidzetw71Ia+p1zYxgmhDWxr47wwPDMDJzN3S0sXH3d12RCRs0L3G46GOOXe27IquFjupkcEBl1eQzzc6enkJYHelhJiSDRWShUijpUlZ/QC81QZCqlM/Rfo+PDDEsSGNCgoEAOrFroQQCWBGj5ebGi9XPrPBjGAp0h3f0Sg7BwYF87UhYswADUB3d6WQyJgHGrb024HYea/Y92NkwOXSQgzwgs0UDThZEZLNJFORfZXwYwchXIrmuwyk7NDAkECohUiLYi4vj5ARQ6BCyBRSa2sKU9pCCPy0w8mUewCY0ACR33KI3gm9X/1i7+r2oLF/v7zcarVq8grIHhuGOww2vw26nS4lImLjwWjf9vnW2fUHuHl7p1xcMKro7CEE8bSjfTfD7kEXJz5VIJ8c9Q2fA6jsTtn8oMQmQpD3KXMjjYmp2cl/ut1w+gTwABtAc53/gFhFS7d+bCIEwYa+JoabnZyGw5q/3e5hyOYd6v/y3SqY7YQg2DDGVzgxtTg3PTaORm1jY+uDA1tffqsYrqznQWhsxKnZuTw3RhwbG89PT86WbbkRaR8hpWfEqbn8ODYcgJtbnDE1wsjlms3DGsgLrWWJHh/hT9pzRV/ftm2EYZ1wOjcO6cbHgOGmCJCquWat9bi83zi+irGFQgYrJAok+2Rqjb29rylj7ZlK7W24E5xMlGZOnB3Pj+UN4XLNw9by/uervRgbAmULLEQjEbVmCpSlhch+TaPF+KAkXPFvMd1okcOahQ2w36y2vQDXz0YwBpkQRkymdkJQj+5p0kEVXysuDE51y5tdaJEpreo0n59W/GyiWXs8OQ3GY1GOKR6PqQj8oQSQLbBaLYUoRahZKeE/qJxbNSQwovohBgnhBMj0i9P5d29+gaOLuFxtdLsfP15cLC0tXV6iKo6hhq5JWphsuxHDwtaK3LXDkiHDlEafCPL729lZmArFCWIwmEjEVQgB1d3dnVdaqEI+hj4vkU5UtxSIK2IiK/ktMfpp1becApHmk3xE+ms6LSHcu7m5ubtzunAN52prNADeWcUgd4LwC+LvIY/YBnGUPFoWbWyBMcww6rFmJs+Bffr0Do+5PwfhDBGCDQ9hOZ0cn7zTGKVHz7THQLnD2vL+8R5bSCKxvKHCsoBaBwkmVVgWPiQrjH6Nm1ET0/Au79wcGpIuzs7MbGwMDw6ODA4ODkvwBELeiqM080MDb6G23LiKJmG2DIW42UYoVeNNeiYNKqsoiSaT+4Kfg4+gM8YwTWt4E7y1DcD4GzIVj3sQ4g3LLSizoi8QUD9jtlDbv0oWMihpslKFQleidc9W4F0NnOsxYii5diBUCNcdIlIabtquL57BQQ1EjnCUHlE7J9h8PI4UMrgeaBvCQaUkM7hqdnPbT1HhldcAtc4xpgTGhe2OXDVMeM90gCPUsKJ31LepTDzNx8+hDFcXiHy7u0eXQKsURTGrmQOVN8tV5s8dr78eIcbC2jH/KWQdHQxXw4yDBLDiGRjRRAR85wpPqNYaMUAnrW92d0GmhAdFaXHPxlFKK+aW57e/fisgxtQBvx4VQZdAZG763TMyooHo8vkUhx9zj8eQTqxuABs/g5PvSakXllXfECu79S2ZQb56z//E/GoMEw2HX0FCNUSXz93+CeWWr1g2ItSo0YtLflIs23fDQYZC+u+c/VcKGjLJclG3uq0oY40IKa8x4ILHPTCgguga/dFWllVbx9B4mC8WAXS+9jmqnPDrsVFbvXO7BhnXDri/eG3WUynKeDyW7R8YUCK6vF/a/tfaZwEPVKlL4ig1oIKIthaFS8afb99CI5kEZsxwFVDFpKeGGeM3+e4ZaEcccvq+y+vO5s9YVCjCP975vNJRsRoiQzlowuPLuf0UYEztc8SUqZgaJjg+9AoTiojDTud3mXdVW2kpnmxWrDLwx4QOE7cWqvvAjqkr7k23TSFShtNvtAyliENeOR8wXyQW5/H4abEcMaBANAMIGe9TAJJbF4p2RB/RaCGCbChFHHJ+kfln7TjKdY4CnkiojUg5298nV2vd7x8cHDTuW6r3jqvAV/ki6NoEYtjwJs1vHrdbQBx0/pB+IrnHeIRrjPfuXE5Jo2FwZ4oJyINocz8CbFSAAk1HKsU2an0K5Q7WeMR5csSw4U6wL243jzgy5JHu5Gg2eLz4jXOIK1K9BvcXMWFYFmRaeyjtSZVMFQ6UtxubV79zHcemibVoVJr+cPOIg8O/SX5eexDN5xT7RS/J/UWH9OEBzb1kCN1jZPF/RMjQvcJda4XfM1dnHyoL5IRhlz5g1ePmEJ1fJJ7VSsfiuO2/GRoekncaWlYU1iIjjTKtVIhvp46wpJC3Cm9tLTdu/eH/IU+LYUqfsMwRDvaLBUx1OQb5UN+P0r9Kv6iH6JCs5f0kojuqS/fdrtZ5zEKqoDQkVIkYMezQ3yRVwYRD30W+kzjGS+zdgdyh0/VrIDKSHIwB68LuafHCVo90DNmnMqTTJtQPpr9hEwoGzP2McHw3gyODel2/5lqUJKhlABitMxrnwnhLFlLssrKAJb7lEda/CfXdDYzYz79+8zQWh3M3yDeg2/VrW5ERY1sxxUZZvR3+q3XekMlGu7NWiI2o30B9cXs8bu7Fm59jiTRUYmNgQK/r112Lkr2De2x012iHP2/I5NpB28YjmtCIYf3y6RWw4Sv0q9YDx/ceFDlaLbGAqG1Fn/DarUJ0l+BY2KrgrPKpR4nQiGH9yvSVx+MZKIPqJRFPYz6UGzW7fkNEyQ7XmCqg2g5/zllTt7JrI7y9Gmb0AKv9gNDjXo9j86XXhfrGCFEr9YsbBw8LUUXXr3lOAxsyJVuMhCsx7NDrsxcgoGc9CIT4PO62TkMn3KgjiveeG+ylmQNFkDElzxtq91dVCMN63cWCpx/8A/mC6Q23R6xRSRxVdQ+cWENFdwPmjoWtHhX25ZfnIvLTFb1Wu+zu70eE7zc8fP1mwopKxICQKxYylwF512+I6KhnZFf3gcxNV/Ru8+1Awn7PBjCkAEhuRa8SUZzu1Y7aun6KMT4XVtiT2qNK9piRFb09wxVECCE9ZhHV16L4LKvlevtgg+Bw31EmJU2LVZpkJa7olW0coQerC4i00Djd04rZjfHhvjqc9F9J4s0mwXhRl7DlkdiwG4gi4T6tHE8ZJw2uTm0JV1g0vt+/0lJlayPsCFGlgAsIXnpNq0zgjFK/kPv3RF8tbvr1fVWf0C0ntIwoEs4zqtNww8WIa7jMmiRxFDe7QdiltTgqxNIsozEqNs4ZnBm52qFkdKpBl7AmElpBFJPG6P/yL12mdAb+JIwFFiEa3ztdUeugeR1KCK2sRRHxTnhtWnPgb4yIGAt7IF9Ek3UDQMdrPcKmjLATRJc89XsvheJ5K6Ax8CdJ/Wg9Jg/69uAc8kgf8qvWiRao3IYKoaW1eCl8oGAhqg78idYiNmMSAdZX9W34VW/3UhuhGUQNP738Kbx4QOOeBum5foCYAXz6eIaE6/39aoydI/piwovP05p3psjMCBejMaDjm+4OtPVX3UCU5kVWnNbr3HwzTP0cIgGg40gPsO+9BmHHiK7dhvDiFUoFUS31a148CaAB4UM7oOW1uBQVnWaTUbn5ZsZPSRTe0yU88XQVETJGJPXWFq2N2K3HiIT3tfEg4YaS0MpaBKkxlpGs/C1SK3bO+FWfsKYMNeYQFanftRQ5lrzBvNpaNJX6DQn1ShpQ1ChDjUlHVab+GCt9zx0nE1BY0VTqN9A3/YPl1bgqoaW1eBFjZRmq5KTogJXUr681g21JQVVAAkcd1o6osciV/E3K10MM+kIWgKZjxY4Yw1F9wL5T1VBDuBYVjQZmXIrJliJ2lp3s/PWPc+eogIGYrCN+vVXDkuhRPdSQOKpaL4XDTSwW/az5jtWFnZ0d+Nyi67NzH4O+c8AK4bd7zXfCqiW0CK2sRYCosKK60HN8XGind2eIKf1QCt4hoQVoBfEuFoskzDzkppjd9EJM84gpw7dJay5EsrWomvqdF3ADqtGn26ZqZdP8gybabgSo6ad6RjSNKE/9zo+xWIz9bPphztXStrlHhnxT20wuVyttTNhB6keIEfbe/NFUAGnCkkm9QRvWQlzPTTtfi84ltJc41NCbomhd0zVFaMjVNYIj9A+a+YLMUTVT/x3eL83GGiqnS42UJTuBUY8QvNaJrpuSrUWN1P+R2xTOhiLHjeVWrZkz4bTlcwLGpH5jgVXTyRdkjqqV+kVGQIkeTgQPacT2ruBjxB5rhg/XKhvacdUwGyLFDdzUUhl+JzCK52yj3GPECpk97cf3IO349BnrRmU31qmRm1oabLi8apDCUdtQpnDc0rnMku5poYxRUYrV0k36xGtRY98NaBgB5NLHjyqA/Hnp0L6Ow55pm3GVIFdAVdO6SV/djMSIsidr3S0BXVxciI8Rw0fCQqljbW8tax5Q0D5Z1abTtCGghfuLwhFNmUBHDJ8jtiuc6y9I9+615LtOzzU2ZRTInBRGU6NYY8lRNbeGw9nGaOCSe4JYKCk5CNb6/Vg6nPig6qn1FJmTAiU0O32riC6pFTVOogRoDMlmYiJVbS11JWFUPS0USpECgqS/QWDELqxFDcQAZ0hWksBrqVDqVvTVsvJpGvX2LVQ6asaJjNgRIgY0siL4FzFmIkJUbaXYTEps4IsKxFDKRMn7EDROGCqEXViL4gQucIkjjrC2llMsm4wIFMU2R13N6I/z5aolgiRuaiUvGjgqmr9dIk8V7LZfgIfehfjTthvziKxi4xUkM6LF1G9gRaBdlDf4q7rNgFI2JUx8ZIeFVjOsOoqGHtOERrQh3MgG/pcQUWC6PAJWLET4gCPdvy9LLgSqpoNE4bSLqV/DihAxwyMWw3V0lIjbsZgTjVgPkdYzvE7SZOHUiqMShBvOUwXEUng1BBCT/KG2FdGERnNSFSOSFDYdI5KlfgFRSHXnDgp5KueoTJg3YdL0BMiEEbu1zU9rLUJEfpVVKYqqA0S8QUo4LGTehOClEkGCFsOiFY1TP9YFSBpczZZdgYgsn/zwEYUjEwWbKBBOCTOGzakfW5ENcY4J/JRaBbkf5xB0zmS1ExP2wZxImjGsOGpb6tc6SwwQr/Bl5cIUROSPKsC93yGjpzVoCBQ2xMGme6lfG5F/rMZ1GK9FHFtAOAWZgrhtkushSB5suhdutI5Lg2jD5Qj0vX11LktWV1bRrsWOBFoM8mDTxa5fK/WzHEgJGhEkjRQKPmfJUEr/1r2OTkwkxS6GG03EwiO+LvztkmwIER+mMv/XKSAKNsTxtENHVUv9Goi7LLc1J4uMuMriYBMKWfhqFRBszCxFu9diNNSQGrGOH67V+Lf2kx+NdZo2sxQ7v/nWnvrVrQj8FBsRr0QKd/XNsbHJzgn70kHSJqNzRLJD79hPOSPizQyXGfjbifH8WwuEIJ6aQrQ59UeT3GMkECLD/mGdEMZTU0vReurXQ1wK4fKsGEYbb/786999fZN5S16K8n4H0caucBPl6jMn3CDGsn/99ebNu/y4hW9v6oP7T4Kmok0XUr+OFZcyuED74KCYXZb9882nN5/GFy0BgpQa7xkiQbiJ4sImF6aPQIPRegdsOGMREPRRwIomapt+K6nfCDFwUcAl2jZoEkHPNDM3aR0QZcUeIBI90idAcwnjPsOG4K2mKZJHdBvrwWRatJD6NXtijjCwG0JdU7PAdtpRqKkKT+jbj0i0Fi+5WMOy+S4S9uXSZhFtqFE5RK7ZP/57rDsOygnWNr1aiwaIS7iuWRyzUnB3BdG21P/nP+AFzYzlrZUyCtV6g+gysuLoxV+/wOsB5ajyafJdQHxv3k+7ijga2I38+Qdy046+NpUA0f4y3CVjbEeED/P9A5Vp01brURU1MWJvmik1RN8l2nPzK3LPuXx3gylGTJtNjB2HG7XU71tCe4r+HnsDLwYE024UbG3KBdMmF2P31qLP9xECRnLT+TfQPWe7nS6wqg9ps57aJUSvD36fBntVBS3vJ2i8mbExq22Tuk4TnXmqxbzoXYpFYrEQnHMvjr2btZOw7xHFm/fkZuxC6vf6duE+xgy6dTE7hnpe+wj7DpEVTZjRBKJT3VG5bfC4NZwaQ7nepnWIlMOLkdyM1hBdXrQZlb3i92CM599MwYw/3v1sIegk3pEZO0F0eS/QVtuQuGsNLMQ3+U+f8l1tn9rVRGnDBGMniOi0DXeIISK9vzQNvzfmk50mhPqJzUjqqp2FG44vFmrI3xx+gbgNFU2bDjkzEjJ2sBaHnHg3eDSm2LI2OTfX9aJURdxqNMdIjDjkvMFPRmdPlG89QfQlcdbVfOAZTWy51UUc4jV8d4OfjB696uCkVBdVCyZ4RmNDkjgqxhu628N8kbjJU4s26DGBl2MwuG7ISLQWAeUN9z1hkYi5DYc2qXoiMBoa0hhxcJAzH/witGfBB1U9SfOMhpB6iCMDgyM3Ce4b0WIRlSdCP52qj8GEDFKbUgMRaPDuBj9ZGyBGEo/PiQ+p9hAXGMGa1KRUOCrHydNBwMjx08cXNTVP0gkJ5HtEqcRsQwS/2Fh/j56qjfFisZOnzQ+6qp2mE0GpACbckfPqlYxVgNzYWE8Lwninz9N8oqqt07jUkhzo+/V1wCoI/O79e/w8ZhEQBJfPemcPn4+qtZ/BeFpB2S70FyR4wZ+K7w9+zlp4/BlMJIwxg4gunvj5aP5899MrV3s8fYhrcnKmezh91PuC3f8ANWsnJ6eAB4QRGCpRxITYweDpyUntGUdNs6rmcjn8Dd61w2ZuwcxJ/Be96EUvetGLXvSiF73oRc9f/w9q3llfOwVfBgAAAABJRU5ErkJggg==;" vertex="1" parent="0WjlItf-CRWbp25ZSryx-1">
          <mxGeometry x="97" y="101" width="81" height="81" as="geometry" />
        </mxCell>
        <mxCell id="0WjlItf-CRWbp25ZSryx-17" style="edgeStyle=none;rounded=0;orthogonalLoop=1;jettySize=auto;html=1;exitX=1;exitY=0.5;exitDx=0;exitDy=0;" edge="1" parent="0WjlItf-CRWbp25ZSryx-1" source="0WjlItf-CRWbp25ZSryx-18">
          <mxGeometry relative="1" as="geometry">
            <mxPoint x="465" y="323" as="targetPoint" />
          </mxGeometry>
        </mxCell>
        <mxCell id="0WjlItf-CRWbp25ZSryx-18" value="" style="shape=image;verticalLabelPosition=bottom;labelBackgroundColor=default;verticalAlign=top;aspect=fixed;imageAspect=0;image=data:image/png,iVBORw0KGgoAAAANSUhEUgAAAOEAAADhCAMAAAAJbSJIAAABblBMVEX///8nd/8knv8llv8llP8lkf8ljv8ljP8kmf8knP8miv8lkv8llf8miP89hf8mg/8mhf8nfP8mgf8ZbrImfv8bU7Imdv8bXLIbWrIbYLIlof8bV7J2dnYaZbIAbf90dHQaZ7Lx8fEASq9SUlIARK0ZarKwsLDh4eEATq7E1v+WlpbX19fu8vl+fn4ATK7Jycnm7v+2zf/b5v+lpaXN3f+lwf/p8P/1+f+ZmZlpaWm6urohdd2ZrdUQcP/Dz+ckb+4AP6wiZ9weg9McesUgjuWRtP9yov9dlv/U4v9yksiux/8dYsE1abiHndBzjsrL1eofcM8dWsBZhMKCqdFYj8TS4O6Grv9rnv+Unq6xx+cvWY9dXV1MXHVZhcAgcdUjdelJdL5pnd6du/8fdtNvtf8NZecAUMKJwv9Idcxoq/9fgssif+ifzf8AL6gAY/+VqNVTkOVynck5frtYdLFbbJAAJ28YTJwRPX9udoabudn2pwhSAAAXuUlEQVR4nO2diVca2baHxYFJAasoppREJKCggIAoiQOKcSJOcUAvnY56NcONdj9ffLcH//t3hhqp6RRFofcuf91rdWLSUB97nz3VOUVf34te9KIXvehFL3rRi170ov8iVReKxXIlWyqVspVysbjw1NfTRRUr85tbPj/NUEAMFPoF7fdvbc5Xik99eZaUq8xvbUMYGuCoCPwc0G5vzVdyT32pHWihdOanKA20dlCK8p+V/pP8tpo98yI3NCFgTe9ZtvrUl06iauncoUIHHBKtP04Mo2JemnGcl547ZPacacMDXA6HIwzlEMX/HrDKKRl6K/vUENoqbjKMHM7RBqYi+BdkLk1T9PXzjLDZbYpuo9Nnk2E6pMZkqO1nZ8jqvJ/qkE5KKX5ElP/DUzNJVb0W3RPimaYTKCWmZJj55xJ1AB//2dNW8ARI/tUYev6p2ZDmBT7GMh4PyYh2fGq8vqyPvxrr5pMy8qua8T9tzClvU7x7dg+Pg+SdldouPx3gJtVd92xjdPCMm0/EV/HjK6Bt4ZMy0v7KUwBuMTbzIUbOS6iznvPt+AP4re3kkzDS/p3eAm4yfp8PLsBeiOn9asxtB3xAfqongPxyZLZ7Ngqo0KMQsDcGxIzYVZkeBZx5GhsQqmeI2IxUT0qcLeShNNes9wqRMyN1bjtfdRt7KNVrQmBGFFO3bW44il6f1+v1S0YuvUN0hBmUNmwdyu2MAj5vgJIOlXppRuSpjI2ZcScAAeVTsydApGwLqZVRl8sFAfnR/BN4KlqMlE0dFQZkmKclRGnDHkQE6GNo3oZPxYjijR2OuuNzOp0+GkrFir1H7Hq4KYuAAuHTWrHDzn9mcXFxcnJyTtTbt9PT02//4USAARnik61FFFLpTvLizBhSXinANwQAAwFtK/Yc0W++upkaz+cx4zjQmER3KM8bqceI9LZpwrf5/NuZmSmgCblyC0hFoPJOpZItfZi/3jzbOt/20eGVFf4uUs/XIr1llhBY0PSn0lctVkrzZ+c+CrH2FtF0MwUIJ8wj8sqVs/Nb3pXXvQIN0+bT4iSIMYuzszPASTsHXcheb1MQsyeIjLnBxgQgHB9/hwVCTX767dzkYqvWXDA7ICmWzgCl7bYE8dRktJmYfqPQL7FYLJTJsHvHjf3l2mGuShqjc6UtSGkzImN2AjcH0jtYju/efeIAf40nEoAxFolEoyzLZjKhyN5VY7l1SJRvy9e0nZAwZ5gt36ZmcVEziQubt9OJRCIe4xTBgqihTCEZvW081ppGDlyc99sHieo3c4ScJiZAUpyZmZ39HOcAIxGBUA6aidzetw71Ia+p1zYxgmhDWxr47wwPDMDJzN3S0sXH3d12RCRs0L3G46GOOXe27IquFjupkcEBl1eQzzc6enkJYHelhJiSDRWShUijpUlZ/QC81QZCqlM/Rfo+PDDEsSGNCgoEAOrFroQQCWBGj5ebGi9XPrPBjGAp0h3f0Sg7BwYF87UhYswADUB3d6WQyJgHGrb024HYea/Y92NkwOXSQgzwgs0UDThZEZLNJFORfZXwYwchXIrmuwyk7NDAkECohUiLYi4vj5ARQ6BCyBRSa2sKU9pCCPy0w8mUewCY0ACR33KI3gm9X/1i7+r2oLF/v7zcarVq8grIHhuGOww2vw26nS4lImLjwWjf9vnW2fUHuHl7p1xcMKro7CEE8bSjfTfD7kEXJz5VIJ8c9Q2fA6jsTtn8oMQmQpD3KXMjjYmp2cl/ut1w+gTwABtAc53/gFhFS7d+bCIEwYa+JoabnZyGw5q/3e5hyOYd6v/y3SqY7YQg2DDGVzgxtTg3PTaORm1jY+uDA1tffqsYrqznQWhsxKnZuTw3RhwbG89PT86WbbkRaR8hpWfEqbn8ODYcgJtbnDE1wsjlms3DGsgLrWWJHh/hT9pzRV/ftm2EYZ1wOjcO6cbHgOGmCJCquWat9bi83zi+irGFQgYrJAok+2Rqjb29rylj7ZlK7W24E5xMlGZOnB3Pj+UN4XLNw9by/uervRgbAmULLEQjEbVmCpSlhch+TaPF+KAkXPFvMd1okcOahQ2w36y2vQDXz0YwBpkQRkymdkJQj+5p0kEVXysuDE51y5tdaJEpreo0n59W/GyiWXs8OQ3GY1GOKR6PqQj8oQSQLbBaLYUoRahZKeE/qJxbNSQwovohBgnhBMj0i9P5d29+gaOLuFxtdLsfP15cLC0tXV6iKo6hhq5JWphsuxHDwtaK3LXDkiHDlEafCPL729lZmArFCWIwmEjEVQgB1d3dnVdaqEI+hj4vkU5UtxSIK2IiK/ktMfpp1becApHmk3xE+ms6LSHcu7m5ubtzunAN52prNADeWcUgd4LwC+LvIY/YBnGUPFoWbWyBMcww6rFmJs+Bffr0Do+5PwfhDBGCDQ9hOZ0cn7zTGKVHz7THQLnD2vL+8R5bSCKxvKHCsoBaBwkmVVgWPiQrjH6Nm1ET0/Au79wcGpIuzs7MbGwMDw6ODA4ODkvwBELeiqM080MDb6G23LiKJmG2DIW42UYoVeNNeiYNKqsoiSaT+4Kfg4+gM8YwTWt4E7y1DcD4GzIVj3sQ4g3LLSizoi8QUD9jtlDbv0oWMihpslKFQleidc9W4F0NnOsxYii5diBUCNcdIlIabtquL57BQQ1EjnCUHlE7J9h8PI4UMrgeaBvCQaUkM7hqdnPbT1HhldcAtc4xpgTGhe2OXDVMeM90gCPUsKJ31LepTDzNx8+hDFcXiHy7u0eXQKsURTGrmQOVN8tV5s8dr78eIcbC2jH/KWQdHQxXw4yDBLDiGRjRRAR85wpPqNYaMUAnrW92d0GmhAdFaXHPxlFKK+aW57e/fisgxtQBvx4VQZdAZG763TMyooHo8vkUhx9zj8eQTqxuABs/g5PvSakXllXfECu79S2ZQb56z//E/GoMEw2HX0FCNUSXz93+CeWWr1g2ItSo0YtLflIs23fDQYZC+u+c/VcKGjLJclG3uq0oY40IKa8x4ILHPTCgguga/dFWllVbx9B4mC8WAXS+9jmqnPDrsVFbvXO7BhnXDri/eG3WUynKeDyW7R8YUCK6vF/a/tfaZwEPVKlL4ig1oIKIthaFS8afb99CI5kEZsxwFVDFpKeGGeM3+e4ZaEcccvq+y+vO5s9YVCjCP975vNJRsRoiQzlowuPLuf0UYEztc8SUqZgaJjg+9AoTiojDTud3mXdVW2kpnmxWrDLwx4QOE7cWqvvAjqkr7k23TSFShtNvtAyliENeOR8wXyQW5/H4abEcMaBANAMIGe9TAJJbF4p2RB/RaCGCbChFHHJ+kfln7TjKdY4CnkiojUg5298nV2vd7x8cHDTuW6r3jqvAV/ki6NoEYtjwJs1vHrdbQBx0/pB+IrnHeIRrjPfuXE5Jo2FwZ4oJyINocz8CbFSAAk1HKsU2an0K5Q7WeMR5csSw4U6wL243jzgy5JHu5Gg2eLz4jXOIK1K9BvcXMWFYFmRaeyjtSZVMFQ6UtxubV79zHcemibVoVJr+cPOIg8O/SX5eexDN5xT7RS/J/UWH9OEBzb1kCN1jZPF/RMjQvcJda4XfM1dnHyoL5IRhlz5g1ePmEJ1fJJ7VSsfiuO2/GRoekncaWlYU1iIjjTKtVIhvp46wpJC3Cm9tLTdu/eH/IU+LYUqfsMwRDvaLBUx1OQb5UN+P0r9Kv6iH6JCs5f0kojuqS/fdrtZ5zEKqoDQkVIkYMezQ3yRVwYRD30W+kzjGS+zdgdyh0/VrIDKSHIwB68LuafHCVo90DNmnMqTTJtQPpr9hEwoGzP2McHw3gyODel2/5lqUJKhlABitMxrnwnhLFlLssrKAJb7lEda/CfXdDYzYz79+8zQWh3M3yDeg2/VrW5ERY1sxxUZZvR3+q3XekMlGu7NWiI2o30B9cXs8bu7Fm59jiTRUYmNgQK/r112Lkr2De2x012iHP2/I5NpB28YjmtCIYf3y6RWw4Sv0q9YDx/ceFDlaLbGAqG1Fn/DarUJ0l+BY2KrgrPKpR4nQiGH9yvSVx+MZKIPqJRFPYz6UGzW7fkNEyQ7XmCqg2g5/zllTt7JrI7y9Gmb0AKv9gNDjXo9j86XXhfrGCFEr9YsbBw8LUUXXr3lOAxsyJVuMhCsx7NDrsxcgoGc9CIT4PO62TkMn3KgjiveeG+ylmQNFkDElzxtq91dVCMN63cWCpx/8A/mC6Q23R6xRSRxVdQ+cWENFdwPmjoWtHhX25ZfnIvLTFb1Wu+zu70eE7zc8fP1mwopKxICQKxYylwF512+I6KhnZFf3gcxNV/Ru8+1Awn7PBjCkAEhuRa8SUZzu1Y7aun6KMT4XVtiT2qNK9piRFb09wxVECCE9ZhHV16L4LKvlevtgg+Bw31EmJU2LVZpkJa7olW0coQerC4i00Djd04rZjfHhvjqc9F9J4s0mwXhRl7DlkdiwG4gi4T6tHE8ZJw2uTm0JV1g0vt+/0lJlayPsCFGlgAsIXnpNq0zgjFK/kPv3RF8tbvr1fVWf0C0ntIwoEs4zqtNww8WIa7jMmiRxFDe7QdiltTgqxNIsozEqNs4ZnBm52qFkdKpBl7AmElpBFJPG6P/yL12mdAb+JIwFFiEa3ztdUeugeR1KCK2sRRHxTnhtWnPgb4yIGAt7IF9Ek3UDQMdrPcKmjLATRJc89XsvheJ5K6Ax8CdJ/Wg9Jg/69uAc8kgf8qvWiRao3IYKoaW1eCl8oGAhqg78idYiNmMSAdZX9W34VW/3UhuhGUQNP738Kbx4QOOeBum5foCYAXz6eIaE6/39aoydI/piwovP05p3psjMCBejMaDjm+4OtPVX3UCU5kVWnNbr3HwzTP0cIgGg40gPsO+9BmHHiK7dhvDiFUoFUS31a148CaAB4UM7oOW1uBQVnWaTUbn5ZsZPSRTe0yU88XQVETJGJPXWFq2N2K3HiIT3tfEg4YaS0MpaBKkxlpGs/C1SK3bO+FWfsKYMNeYQFanftRQ5lrzBvNpaNJX6DQn1ShpQ1ChDjUlHVab+GCt9zx0nE1BY0VTqN9A3/YPl1bgqoaW1eBFjZRmq5KTogJXUr681g21JQVVAAkcd1o6osciV/E3K10MM+kIWgKZjxY4Yw1F9wL5T1VBDuBYVjQZmXIrJliJ2lp3s/PWPc+eogIGYrCN+vVXDkuhRPdSQOKpaL4XDTSwW/az5jtWFnZ0d+Nyi67NzH4O+c8AK4bd7zXfCqiW0CK2sRYCosKK60HN8XGind2eIKf1QCt4hoQVoBfEuFoskzDzkppjd9EJM84gpw7dJay5EsrWomvqdF3ADqtGn26ZqZdP8gybabgSo6ad6RjSNKE/9zo+xWIz9bPphztXStrlHhnxT20wuVyttTNhB6keIEfbe/NFUAGnCkkm9QRvWQlzPTTtfi84ltJc41NCbomhd0zVFaMjVNYIj9A+a+YLMUTVT/x3eL83GGiqnS42UJTuBUY8QvNaJrpuSrUWN1P+R2xTOhiLHjeVWrZkz4bTlcwLGpH5jgVXTyRdkjqqV+kVGQIkeTgQPacT2ruBjxB5rhg/XKhvacdUwGyLFDdzUUhl+JzCK52yj3GPECpk97cf3IO349BnrRmU31qmRm1oabLi8apDCUdtQpnDc0rnMku5poYxRUYrV0k36xGtRY98NaBgB5NLHjyqA/Hnp0L6Ow55pm3GVIFdAVdO6SV/djMSIsidr3S0BXVxciI8Rw0fCQqljbW8tax5Q0D5Z1abTtCGghfuLwhFNmUBHDJ8jtiuc6y9I9+615LtOzzU2ZRTInBRGU6NYY8lRNbeGw9nGaOCSe4JYKCk5CNb6/Vg6nPig6qn1FJmTAiU0O32riC6pFTVOogRoDMlmYiJVbS11JWFUPS0USpECgqS/QWDELqxFDcQAZ0hWksBrqVDqVvTVsvJpGvX2LVQ6asaJjNgRIgY0siL4FzFmIkJUbaXYTEps4IsKxFDKRMn7EDROGCqEXViL4gQucIkjjrC2llMsm4wIFMU2R13N6I/z5aolgiRuaiUvGjgqmr9dIk8V7LZfgIfehfjTthvziKxi4xUkM6LF1G9gRaBdlDf4q7rNgFI2JUx8ZIeFVjOsOoqGHtOERrQh3MgG/pcQUWC6PAJWLET4gCPdvy9LLgSqpoNE4bSLqV/DihAxwyMWw3V0lIjbsZgTjVgPkdYzvE7SZOHUiqMShBvOUwXEUng1BBCT/KG2FdGERnNSFSOSFDYdI5KlfgFRSHXnDgp5KueoTJg3YdL0BMiEEbu1zU9rLUJEfpVVKYqqA0S8QUo4LGTehOClEkGCFsOiFY1TP9YFSBpczZZdgYgsn/zwEYUjEwWbKBBOCTOGzakfW5ENcY4J/JRaBbkf5xB0zmS1ExP2wZxImjGsOGpb6tc6SwwQr/Bl5cIUROSPKsC93yGjpzVoCBQ2xMGme6lfG5F/rMZ1GK9FHFtAOAWZgrhtkushSB5suhdutI5Lg2jD5Qj0vX11LktWV1bRrsWOBFoM8mDTxa5fK/WzHEgJGhEkjRQKPmfJUEr/1r2OTkwkxS6GG03EwiO+LvztkmwIER+mMv/XKSAKNsTxtENHVUv9Goi7LLc1J4uMuMriYBMKWfhqFRBszCxFu9diNNSQGrGOH67V+Lf2kx+NdZo2sxQ7v/nWnvrVrQj8FBsRr0QKd/XNsbHJzgn70kHSJqNzRLJD79hPOSPizQyXGfjbifH8WwuEIJ6aQrQ59UeT3GMkECLD/mGdEMZTU0vReurXQ1wK4fKsGEYbb/786999fZN5S16K8n4H0caucBPl6jMn3CDGsn/99ebNu/y4hW9v6oP7T4Kmok0XUr+OFZcyuED74KCYXZb9882nN5/GFy0BgpQa7xkiQbiJ4sImF6aPQIPRegdsOGMREPRRwIomapt+K6nfCDFwUcAl2jZoEkHPNDM3aR0QZcUeIBI90idAcwnjPsOG4K2mKZJHdBvrwWRatJD6NXtijjCwG0JdU7PAdtpRqKkKT+jbj0i0Fi+5WMOy+S4S9uXSZhFtqFE5RK7ZP/57rDsOygnWNr1aiwaIS7iuWRyzUnB3BdG21P/nP+AFzYzlrZUyCtV6g+gysuLoxV+/wOsB5ajyafJdQHxv3k+7ijga2I38+Qdy046+NpUA0f4y3CVjbEeED/P9A5Vp01brURU1MWJvmik1RN8l2nPzK3LPuXx3gylGTJtNjB2HG7XU71tCe4r+HnsDLwYE024UbG3KBdMmF2P31qLP9xECRnLT+TfQPWe7nS6wqg9ps57aJUSvD36fBntVBS3vJ2i8mbExq22Tuk4TnXmqxbzoXYpFYrEQnHMvjr2btZOw7xHFm/fkZuxC6vf6duE+xgy6dTE7hnpe+wj7DpEVTZjRBKJT3VG5bfC4NZwaQ7nepnWIlMOLkdyM1hBdXrQZlb3i92CM599MwYw/3v1sIegk3pEZO0F0eS/QVtuQuGsNLMQ3+U+f8l1tn9rVRGnDBGMniOi0DXeIISK9vzQNvzfmk50mhPqJzUjqqp2FG44vFmrI3xx+gbgNFU2bDjkzEjJ2sBaHnHg3eDSm2LI2OTfX9aJURdxqNMdIjDjkvMFPRmdPlG89QfQlcdbVfOAZTWy51UUc4jV8d4OfjB696uCkVBdVCyZ4RmNDkjgqxhu628N8kbjJU4s26DGBl2MwuG7ISLQWAeUN9z1hkYi5DYc2qXoiMBoa0hhxcJAzH/witGfBB1U9SfOMhpB6iCMDgyM3Ce4b0WIRlSdCP52qj8GEDFKbUgMRaPDuBj9ZGyBGEo/PiQ+p9hAXGMGa1KRUOCrHydNBwMjx08cXNTVP0gkJ5HtEqcRsQwS/2Fh/j56qjfFisZOnzQ+6qp2mE0GpACbckfPqlYxVgNzYWE8Lwninz9N8oqqt07jUkhzo+/V1wCoI/O79e/w8ZhEQBJfPemcPn4+qtZ/BeFpB2S70FyR4wZ+K7w9+zlp4/BlMJIwxg4gunvj5aP5899MrV3s8fYhrcnKmezh91PuC3f8ANWsnJ6eAB4QRGCpRxITYweDpyUntGUdNs6rmcjn8Dd61w2ZuwcxJ/Be96EUvetGLXvSiF73oRc9f/w9q3llfOwVfBgAAAABJRU5ErkJggg==;" vertex="1" parent="0WjlItf-CRWbp25ZSryx-1">
          <mxGeometry x="99" y="230" width="81" height="81" as="geometry" />
        </mxCell>
        <mxCell id="0WjlItf-CRWbp25ZSryx-19" style="edgeStyle=none;rounded=0;orthogonalLoop=1;jettySize=auto;html=1;exitX=1;exitY=0.5;exitDx=0;exitDy=0;" edge="1" parent="0WjlItf-CRWbp25ZSryx-1" source="0WjlItf-CRWbp25ZSryx-20">
          <mxGeometry relative="1" as="geometry">
            <mxPoint x="465" y="323" as="targetPoint" />
          </mxGeometry>
        </mxCell>
        <mxCell id="0WjlItf-CRWbp25ZSryx-20" value="" style="shape=image;verticalLabelPosition=bottom;labelBackgroundColor=default;verticalAlign=top;aspect=fixed;imageAspect=0;image=data:image/png,iVBORw0KGgoAAAANSUhEUgAAAOEAAADhCAMAAAAJbSJIAAABblBMVEX///8nd/8knv8llv8llP8lkf8ljv8ljP8kmf8knP8miv8lkv8llf8miP89hf8mg/8mhf8nfP8mgf8ZbrImfv8bU7Imdv8bXLIbWrIbYLIlof8bV7J2dnYaZbIAbf90dHQaZ7Lx8fEASq9SUlIARK0ZarKwsLDh4eEATq7E1v+WlpbX19fu8vl+fn4ATK7Jycnm7v+2zf/b5v+lpaXN3f+lwf/p8P/1+f+ZmZlpaWm6urohdd2ZrdUQcP/Dz+ckb+4AP6wiZ9weg9McesUgjuWRtP9yov9dlv/U4v9yksiux/8dYsE1abiHndBzjsrL1eofcM8dWsBZhMKCqdFYj8TS4O6Grv9rnv+Unq6xx+cvWY9dXV1MXHVZhcAgcdUjdelJdL5pnd6du/8fdtNvtf8NZecAUMKJwv9Idcxoq/9fgssif+ifzf8AL6gAY/+VqNVTkOVynck5frtYdLFbbJAAJ28YTJwRPX9udoabudn2pwhSAAAXuUlEQVR4nO2diVca2baHxYFJAasoppREJKCggIAoiQOKcSJOcUAvnY56NcONdj9ffLcH//t3hhqp6RRFofcuf91rdWLSUB97nz3VOUVf34te9KIXvehFL3rRi170ov8iVReKxXIlWyqVspVysbjw1NfTRRUr85tbPj/NUEAMFPoF7fdvbc5Xik99eZaUq8xvbUMYGuCoCPwc0G5vzVdyT32pHWihdOanKA20dlCK8p+V/pP8tpo98yI3NCFgTe9ZtvrUl06iauncoUIHHBKtP04Mo2JemnGcl547ZPacacMDXA6HIwzlEMX/HrDKKRl6K/vUENoqbjKMHM7RBqYi+BdkLk1T9PXzjLDZbYpuo9Nnk2E6pMZkqO1nZ8jqvJ/qkE5KKX5ElP/DUzNJVb0W3RPimaYTKCWmZJj55xJ1AB//2dNW8ARI/tUYev6p2ZDmBT7GMh4PyYh2fGq8vqyPvxrr5pMy8qua8T9tzClvU7x7dg+Pg+SdldouPx3gJtVd92xjdPCMm0/EV/HjK6Bt4ZMy0v7KUwBuMTbzIUbOS6iznvPt+AP4re3kkzDS/p3eAm4yfp8PLsBeiOn9asxtB3xAfqongPxyZLZ7Ngqo0KMQsDcGxIzYVZkeBZx5GhsQqmeI2IxUT0qcLeShNNes9wqRMyN1bjtfdRt7KNVrQmBGFFO3bW44il6f1+v1S0YuvUN0hBmUNmwdyu2MAj5vgJIOlXppRuSpjI2ZcScAAeVTsydApGwLqZVRl8sFAfnR/BN4KlqMlE0dFQZkmKclRGnDHkQE6GNo3oZPxYjijR2OuuNzOp0+GkrFir1H7Hq4KYuAAuHTWrHDzn9mcXFxcnJyTtTbt9PT02//4USAARnik61FFFLpTvLizBhSXinANwQAAwFtK/Yc0W++upkaz+cx4zjQmER3KM8bqceI9LZpwrf5/NuZmSmgCblyC0hFoPJOpZItfZi/3jzbOt/20eGVFf4uUs/XIr1llhBY0PSn0lctVkrzZ+c+CrH2FtF0MwUIJ8wj8sqVs/Nb3pXXvQIN0+bT4iSIMYuzszPASTsHXcheb1MQsyeIjLnBxgQgHB9/hwVCTX767dzkYqvWXDA7ICmWzgCl7bYE8dRktJmYfqPQL7FYLJTJsHvHjf3l2mGuShqjc6UtSGkzImN2AjcH0jtYju/efeIAf40nEoAxFolEoyzLZjKhyN5VY7l1SJRvy9e0nZAwZ5gt36ZmcVEziQubt9OJRCIe4xTBgqihTCEZvW081ppGDlyc99sHieo3c4ScJiZAUpyZmZ39HOcAIxGBUA6aidzetw71Ia+p1zYxgmhDWxr47wwPDMDJzN3S0sXH3d12RCRs0L3G46GOOXe27IquFjupkcEBl1eQzzc6enkJYHelhJiSDRWShUijpUlZ/QC81QZCqlM/Rfo+PDDEsSGNCgoEAOrFroQQCWBGj5ebGi9XPrPBjGAp0h3f0Sg7BwYF87UhYswADUB3d6WQyJgHGrb024HYea/Y92NkwOXSQgzwgs0UDThZEZLNJFORfZXwYwchXIrmuwyk7NDAkECohUiLYi4vj5ARQ6BCyBRSa2sKU9pCCPy0w8mUewCY0ACR33KI3gm9X/1i7+r2oLF/v7zcarVq8grIHhuGOww2vw26nS4lImLjwWjf9vnW2fUHuHl7p1xcMKro7CEE8bSjfTfD7kEXJz5VIJ8c9Q2fA6jsTtn8oMQmQpD3KXMjjYmp2cl/ut1w+gTwABtAc53/gFhFS7d+bCIEwYa+JoabnZyGw5q/3e5hyOYd6v/y3SqY7YQg2DDGVzgxtTg3PTaORm1jY+uDA1tffqsYrqznQWhsxKnZuTw3RhwbG89PT86WbbkRaR8hpWfEqbn8ODYcgJtbnDE1wsjlms3DGsgLrWWJHh/hT9pzRV/ftm2EYZ1wOjcO6cbHgOGmCJCquWat9bi83zi+irGFQgYrJAok+2Rqjb29rylj7ZlK7W24E5xMlGZOnB3Pj+UN4XLNw9by/uervRgbAmULLEQjEbVmCpSlhch+TaPF+KAkXPFvMd1okcOahQ2w36y2vQDXz0YwBpkQRkymdkJQj+5p0kEVXysuDE51y5tdaJEpreo0n59W/GyiWXs8OQ3GY1GOKR6PqQj8oQSQLbBaLYUoRahZKeE/qJxbNSQwovohBgnhBMj0i9P5d29+gaOLuFxtdLsfP15cLC0tXV6iKo6hhq5JWphsuxHDwtaK3LXDkiHDlEafCPL729lZmArFCWIwmEjEVQgB1d3dnVdaqEI+hj4vkU5UtxSIK2IiK/ktMfpp1becApHmk3xE+ms6LSHcu7m5ubtzunAN52prNADeWcUgd4LwC+LvIY/YBnGUPFoWbWyBMcww6rFmJs+Bffr0Do+5PwfhDBGCDQ9hOZ0cn7zTGKVHz7THQLnD2vL+8R5bSCKxvKHCsoBaBwkmVVgWPiQrjH6Nm1ET0/Au79wcGpIuzs7MbGwMDw6ODA4ODkvwBELeiqM080MDb6G23LiKJmG2DIW42UYoVeNNeiYNKqsoiSaT+4Kfg4+gM8YwTWt4E7y1DcD4GzIVj3sQ4g3LLSizoi8QUD9jtlDbv0oWMihpslKFQleidc9W4F0NnOsxYii5diBUCNcdIlIabtquL57BQQ1EjnCUHlE7J9h8PI4UMrgeaBvCQaUkM7hqdnPbT1HhldcAtc4xpgTGhe2OXDVMeM90gCPUsKJ31LepTDzNx8+hDFcXiHy7u0eXQKsURTGrmQOVN8tV5s8dr78eIcbC2jH/KWQdHQxXw4yDBLDiGRjRRAR85wpPqNYaMUAnrW92d0GmhAdFaXHPxlFKK+aW57e/fisgxtQBvx4VQZdAZG763TMyooHo8vkUhx9zj8eQTqxuABs/g5PvSakXllXfECu79S2ZQb56z//E/GoMEw2HX0FCNUSXz93+CeWWr1g2ItSo0YtLflIs23fDQYZC+u+c/VcKGjLJclG3uq0oY40IKa8x4ILHPTCgguga/dFWllVbx9B4mC8WAXS+9jmqnPDrsVFbvXO7BhnXDri/eG3WUynKeDyW7R8YUCK6vF/a/tfaZwEPVKlL4ig1oIKIthaFS8afb99CI5kEZsxwFVDFpKeGGeM3+e4ZaEcccvq+y+vO5s9YVCjCP975vNJRsRoiQzlowuPLuf0UYEztc8SUqZgaJjg+9AoTiojDTud3mXdVW2kpnmxWrDLwx4QOE7cWqvvAjqkr7k23TSFShtNvtAyliENeOR8wXyQW5/H4abEcMaBANAMIGe9TAJJbF4p2RB/RaCGCbChFHHJ+kfln7TjKdY4CnkiojUg5298nV2vd7x8cHDTuW6r3jqvAV/ki6NoEYtjwJs1vHrdbQBx0/pB+IrnHeIRrjPfuXE5Jo2FwZ4oJyINocz8CbFSAAk1HKsU2an0K5Q7WeMR5csSw4U6wL243jzgy5JHu5Gg2eLz4jXOIK1K9BvcXMWFYFmRaeyjtSZVMFQ6UtxubV79zHcemibVoVJr+cPOIg8O/SX5eexDN5xT7RS/J/UWH9OEBzb1kCN1jZPF/RMjQvcJda4XfM1dnHyoL5IRhlz5g1ePmEJ1fJJ7VSsfiuO2/GRoekncaWlYU1iIjjTKtVIhvp46wpJC3Cm9tLTdu/eH/IU+LYUqfsMwRDvaLBUx1OQb5UN+P0r9Kv6iH6JCs5f0kojuqS/fdrtZ5zEKqoDQkVIkYMezQ3yRVwYRD30W+kzjGS+zdgdyh0/VrIDKSHIwB68LuafHCVo90DNmnMqTTJtQPpr9hEwoGzP2McHw3gyODel2/5lqUJKhlABitMxrnwnhLFlLssrKAJb7lEda/CfXdDYzYz79+8zQWh3M3yDeg2/VrW5ERY1sxxUZZvR3+q3XekMlGu7NWiI2o30B9cXs8bu7Fm59jiTRUYmNgQK/r112Lkr2De2x012iHP2/I5NpB28YjmtCIYf3y6RWw4Sv0q9YDx/ceFDlaLbGAqG1Fn/DarUJ0l+BY2KrgrPKpR4nQiGH9yvSVx+MZKIPqJRFPYz6UGzW7fkNEyQ7XmCqg2g5/zllTt7JrI7y9Gmb0AKv9gNDjXo9j86XXhfrGCFEr9YsbBw8LUUXXr3lOAxsyJVuMhCsx7NDrsxcgoGc9CIT4PO62TkMn3KgjiveeG+ylmQNFkDElzxtq91dVCMN63cWCpx/8A/mC6Q23R6xRSRxVdQ+cWENFdwPmjoWtHhX25ZfnIvLTFb1Wu+zu70eE7zc8fP1mwopKxICQKxYylwF512+I6KhnZFf3gcxNV/Ru8+1Awn7PBjCkAEhuRa8SUZzu1Y7aun6KMT4XVtiT2qNK9piRFb09wxVECCE9ZhHV16L4LKvlevtgg+Bw31EmJU2LVZpkJa7olW0coQerC4i00Djd04rZjfHhvjqc9F9J4s0mwXhRl7DlkdiwG4gi4T6tHE8ZJw2uTm0JV1g0vt+/0lJlayPsCFGlgAsIXnpNq0zgjFK/kPv3RF8tbvr1fVWf0C0ntIwoEs4zqtNww8WIa7jMmiRxFDe7QdiltTgqxNIsozEqNs4ZnBm52qFkdKpBl7AmElpBFJPG6P/yL12mdAb+JIwFFiEa3ztdUeugeR1KCK2sRRHxTnhtWnPgb4yIGAt7IF9Ek3UDQMdrPcKmjLATRJc89XsvheJ5K6Ax8CdJ/Wg9Jg/69uAc8kgf8qvWiRao3IYKoaW1eCl8oGAhqg78idYiNmMSAdZX9W34VW/3UhuhGUQNP738Kbx4QOOeBum5foCYAXz6eIaE6/39aoydI/piwovP05p3psjMCBejMaDjm+4OtPVX3UCU5kVWnNbr3HwzTP0cIgGg40gPsO+9BmHHiK7dhvDiFUoFUS31a148CaAB4UM7oOW1uBQVnWaTUbn5ZsZPSRTe0yU88XQVETJGJPXWFq2N2K3HiIT3tfEg4YaS0MpaBKkxlpGs/C1SK3bO+FWfsKYMNeYQFanftRQ5lrzBvNpaNJX6DQn1ShpQ1ChDjUlHVab+GCt9zx0nE1BY0VTqN9A3/YPl1bgqoaW1eBFjZRmq5KTogJXUr681g21JQVVAAkcd1o6osciV/E3K10MM+kIWgKZjxY4Yw1F9wL5T1VBDuBYVjQZmXIrJliJ2lp3s/PWPc+eogIGYrCN+vVXDkuhRPdSQOKpaL4XDTSwW/az5jtWFnZ0d+Nyi67NzH4O+c8AK4bd7zXfCqiW0CK2sRYCosKK60HN8XGind2eIKf1QCt4hoQVoBfEuFoskzDzkppjd9EJM84gpw7dJay5EsrWomvqdF3ADqtGn26ZqZdP8gybabgSo6ad6RjSNKE/9zo+xWIz9bPphztXStrlHhnxT20wuVyttTNhB6keIEfbe/NFUAGnCkkm9QRvWQlzPTTtfi84ltJc41NCbomhd0zVFaMjVNYIj9A+a+YLMUTVT/x3eL83GGiqnS42UJTuBUY8QvNaJrpuSrUWN1P+R2xTOhiLHjeVWrZkz4bTlcwLGpH5jgVXTyRdkjqqV+kVGQIkeTgQPacT2ruBjxB5rhg/XKhvacdUwGyLFDdzUUhl+JzCK52yj3GPECpk97cf3IO349BnrRmU31qmRm1oabLi8apDCUdtQpnDc0rnMku5poYxRUYrV0k36xGtRY98NaBgB5NLHjyqA/Hnp0L6Ow55pm3GVIFdAVdO6SV/djMSIsidr3S0BXVxciI8Rw0fCQqljbW8tax5Q0D5Z1abTtCGghfuLwhFNmUBHDJ8jtiuc6y9I9+615LtOzzU2ZRTInBRGU6NYY8lRNbeGw9nGaOCSe4JYKCk5CNb6/Vg6nPig6qn1FJmTAiU0O32riC6pFTVOogRoDMlmYiJVbS11JWFUPS0USpECgqS/QWDELqxFDcQAZ0hWksBrqVDqVvTVsvJpGvX2LVQ6asaJjNgRIgY0siL4FzFmIkJUbaXYTEps4IsKxFDKRMn7EDROGCqEXViL4gQucIkjjrC2llMsm4wIFMU2R13N6I/z5aolgiRuaiUvGjgqmr9dIk8V7LZfgIfehfjTthvziKxi4xUkM6LF1G9gRaBdlDf4q7rNgFI2JUx8ZIeFVjOsOoqGHtOERrQh3MgG/pcQUWC6PAJWLET4gCPdvy9LLgSqpoNE4bSLqV/DihAxwyMWw3V0lIjbsZgTjVgPkdYzvE7SZOHUiqMShBvOUwXEUng1BBCT/KG2FdGERnNSFSOSFDYdI5KlfgFRSHXnDgp5KueoTJg3YdL0BMiEEbu1zU9rLUJEfpVVKYqqA0S8QUo4LGTehOClEkGCFsOiFY1TP9YFSBpczZZdgYgsn/zwEYUjEwWbKBBOCTOGzakfW5ENcY4J/JRaBbkf5xB0zmS1ExP2wZxImjGsOGpb6tc6SwwQr/Bl5cIUROSPKsC93yGjpzVoCBQ2xMGme6lfG5F/rMZ1GK9FHFtAOAWZgrhtkushSB5suhdutI5Lg2jD5Qj0vX11LktWV1bRrsWOBFoM8mDTxa5fK/WzHEgJGhEkjRQKPmfJUEr/1r2OTkwkxS6GG03EwiO+LvztkmwIER+mMv/XKSAKNsTxtENHVUv9Goi7LLc1J4uMuMriYBMKWfhqFRBszCxFu9diNNSQGrGOH67V+Lf2kx+NdZo2sxQ7v/nWnvrVrQj8FBsRr0QKd/XNsbHJzgn70kHSJqNzRLJD79hPOSPizQyXGfjbifH8WwuEIJ6aQrQ59UeT3GMkECLD/mGdEMZTU0vReurXQ1wK4fKsGEYbb/786999fZN5S16K8n4H0caucBPl6jMn3CDGsn/99ebNu/y4hW9v6oP7T4Kmok0XUr+OFZcyuED74KCYXZb9882nN5/GFy0BgpQa7xkiQbiJ4sImF6aPQIPRegdsOGMREPRRwIomapt+K6nfCDFwUcAl2jZoEkHPNDM3aR0QZcUeIBI90idAcwnjPsOG4K2mKZJHdBvrwWRatJD6NXtijjCwG0JdU7PAdtpRqKkKT+jbj0i0Fi+5WMOy+S4S9uXSZhFtqFE5RK7ZP/57rDsOygnWNr1aiwaIS7iuWRyzUnB3BdG21P/nP+AFzYzlrZUyCtV6g+gysuLoxV+/wOsB5ajyafJdQHxv3k+7ijga2I38+Qdy046+NpUA0f4y3CVjbEeED/P9A5Vp01brURU1MWJvmik1RN8l2nPzK3LPuXx3gylGTJtNjB2HG7XU71tCe4r+HnsDLwYE024UbG3KBdMmF2P31qLP9xECRnLT+TfQPWe7nS6wqg9ps57aJUSvD36fBntVBS3vJ2i8mbExq22Tuk4TnXmqxbzoXYpFYrEQnHMvjr2btZOw7xHFm/fkZuxC6vf6duE+xgy6dTE7hnpe+wj7DpEVTZjRBKJT3VG5bfC4NZwaQ7nepnWIlMOLkdyM1hBdXrQZlb3i92CM599MwYw/3v1sIegk3pEZO0F0eS/QVtuQuGsNLMQ3+U+f8l1tn9rVRGnDBGMniOi0DXeIISK9vzQNvzfmk50mhPqJzUjqqp2FG44vFmrI3xx+gbgNFU2bDjkzEjJ2sBaHnHg3eDSm2LI2OTfX9aJURdxqNMdIjDjkvMFPRmdPlG89QfQlcdbVfOAZTWy51UUc4jV8d4OfjB696uCkVBdVCyZ4RmNDkjgqxhu628N8kbjJU4s26DGBl2MwuG7ISLQWAeUN9z1hkYi5DYc2qXoiMBoa0hhxcJAzH/witGfBB1U9SfOMhpB6iCMDgyM3Ce4b0WIRlSdCP52qj8GEDFKbUgMRaPDuBj9ZGyBGEo/PiQ+p9hAXGMGa1KRUOCrHydNBwMjx08cXNTVP0gkJ5HtEqcRsQwS/2Fh/j56qjfFisZOnzQ+6qp2mE0GpACbckfPqlYxVgNzYWE8Lwninz9N8oqqt07jUkhzo+/V1wCoI/O79e/w8ZhEQBJfPemcPn4+qtZ/BeFpB2S70FyR4wZ+K7w9+zlp4/BlMJIwxg4gunvj5aP5899MrV3s8fYhrcnKmezh91PuC3f8ANWsnJ6eAB4QRGCpRxITYweDpyUntGUdNs6rmcjn8Dd61w2ZuwcxJ/Be96EUvetGLXvSiF73oRc9f/w9q3llfOwVfBgAAAABJRU5ErkJggg==;" vertex="1" parent="0WjlItf-CRWbp25ZSryx-1">
          <mxGeometry x="101" y="338" width="81" height="81" as="geometry" />
        </mxCell>
        <mxCell id="0WjlItf-CRWbp25ZSryx-21" value="" style="shape=image;verticalLabelPosition=bottom;labelBackgroundColor=default;verticalAlign=top;aspect=fixed;imageAspect=0;image=data:image/png,iVBORw0KGgoAAAANSUhEUgAAAOEAAADhCAMAAAAJbSJIAAABblBMVEX///8nd/8knv8llv8llP8lkf8ljv8ljP8kmf8knP8miv8lkv8llf8miP89hf8mg/8mhf8nfP8mgf8ZbrImfv8bU7Imdv8bXLIbWrIbYLIlof8bV7J2dnYaZbIAbf90dHQaZ7Lx8fEASq9SUlIARK0ZarKwsLDh4eEATq7E1v+WlpbX19fu8vl+fn4ATK7Jycnm7v+2zf/b5v+lpaXN3f+lwf/p8P/1+f+ZmZlpaWm6urohdd2ZrdUQcP/Dz+ckb+4AP6wiZ9weg9McesUgjuWRtP9yov9dlv/U4v9yksiux/8dYsE1abiHndBzjsrL1eofcM8dWsBZhMKCqdFYj8TS4O6Grv9rnv+Unq6xx+cvWY9dXV1MXHVZhcAgcdUjdelJdL5pnd6du/8fdtNvtf8NZecAUMKJwv9Idcxoq/9fgssif+ifzf8AL6gAY/+VqNVTkOVynck5frtYdLFbbJAAJ28YTJwRPX9udoabudn2pwhSAAAXuUlEQVR4nO2diVca2baHxYFJAasoppREJKCggIAoiQOKcSJOcUAvnY56NcONdj9ffLcH//t3hhqp6RRFofcuf91rdWLSUB97nz3VOUVf34te9KIXvehFL3rRi170ov8iVReKxXIlWyqVspVysbjw1NfTRRUr85tbPj/NUEAMFPoF7fdvbc5Xik99eZaUq8xvbUMYGuCoCPwc0G5vzVdyT32pHWihdOanKA20dlCK8p+V/pP8tpo98yI3NCFgTe9ZtvrUl06iauncoUIHHBKtP04Mo2JemnGcl547ZPacacMDXA6HIwzlEMX/HrDKKRl6K/vUENoqbjKMHM7RBqYi+BdkLk1T9PXzjLDZbYpuo9Nnk2E6pMZkqO1nZ8jqvJ/qkE5KKX5ElP/DUzNJVb0W3RPimaYTKCWmZJj55xJ1AB//2dNW8ARI/tUYev6p2ZDmBT7GMh4PyYh2fGq8vqyPvxrr5pMy8qua8T9tzClvU7x7dg+Pg+SdldouPx3gJtVd92xjdPCMm0/EV/HjK6Bt4ZMy0v7KUwBuMTbzIUbOS6iznvPt+AP4re3kkzDS/p3eAm4yfp8PLsBeiOn9asxtB3xAfqongPxyZLZ7Ngqo0KMQsDcGxIzYVZkeBZx5GhsQqmeI2IxUT0qcLeShNNes9wqRMyN1bjtfdRt7KNVrQmBGFFO3bW44il6f1+v1S0YuvUN0hBmUNmwdyu2MAj5vgJIOlXppRuSpjI2ZcScAAeVTsydApGwLqZVRl8sFAfnR/BN4KlqMlE0dFQZkmKclRGnDHkQE6GNo3oZPxYjijR2OuuNzOp0+GkrFir1H7Hq4KYuAAuHTWrHDzn9mcXFxcnJyTtTbt9PT02//4USAARnik61FFFLpTvLizBhSXinANwQAAwFtK/Yc0W++upkaz+cx4zjQmER3KM8bqceI9LZpwrf5/NuZmSmgCblyC0hFoPJOpZItfZi/3jzbOt/20eGVFf4uUs/XIr1llhBY0PSn0lctVkrzZ+c+CrH2FtF0MwUIJ8wj8sqVs/Nb3pXXvQIN0+bT4iSIMYuzszPASTsHXcheb1MQsyeIjLnBxgQgHB9/hwVCTX767dzkYqvWXDA7ICmWzgCl7bYE8dRktJmYfqPQL7FYLJTJsHvHjf3l2mGuShqjc6UtSGkzImN2AjcH0jtYju/efeIAf40nEoAxFolEoyzLZjKhyN5VY7l1SJRvy9e0nZAwZ5gt36ZmcVEziQubt9OJRCIe4xTBgqihTCEZvW081ppGDlyc99sHieo3c4ScJiZAUpyZmZ39HOcAIxGBUA6aidzetw71Ia+p1zYxgmhDWxr47wwPDMDJzN3S0sXH3d12RCRs0L3G46GOOXe27IquFjupkcEBl1eQzzc6enkJYHelhJiSDRWShUijpUlZ/QC81QZCqlM/Rfo+PDDEsSGNCgoEAOrFroQQCWBGj5ebGi9XPrPBjGAp0h3f0Sg7BwYF87UhYswADUB3d6WQyJgHGrb024HYea/Y92NkwOXSQgzwgs0UDThZEZLNJFORfZXwYwchXIrmuwyk7NDAkECohUiLYi4vj5ARQ6BCyBRSa2sKU9pCCPy0w8mUewCY0ACR33KI3gm9X/1i7+r2oLF/v7zcarVq8grIHhuGOww2vw26nS4lImLjwWjf9vnW2fUHuHl7p1xcMKro7CEE8bSjfTfD7kEXJz5VIJ8c9Q2fA6jsTtn8oMQmQpD3KXMjjYmp2cl/ut1w+gTwABtAc53/gFhFS7d+bCIEwYa+JoabnZyGw5q/3e5hyOYd6v/y3SqY7YQg2DDGVzgxtTg3PTaORm1jY+uDA1tffqsYrqznQWhsxKnZuTw3RhwbG89PT86WbbkRaR8hpWfEqbn8ODYcgJtbnDE1wsjlms3DGsgLrWWJHh/hT9pzRV/ftm2EYZ1wOjcO6cbHgOGmCJCquWat9bi83zi+irGFQgYrJAok+2Rqjb29rylj7ZlK7W24E5xMlGZOnB3Pj+UN4XLNw9by/uervRgbAmULLEQjEbVmCpSlhch+TaPF+KAkXPFvMd1okcOahQ2w36y2vQDXz0YwBpkQRkymdkJQj+5p0kEVXysuDE51y5tdaJEpreo0n59W/GyiWXs8OQ3GY1GOKR6PqQj8oQSQLbBaLYUoRahZKeE/qJxbNSQwovohBgnhBMj0i9P5d29+gaOLuFxtdLsfP15cLC0tXV6iKo6hhq5JWphsuxHDwtaK3LXDkiHDlEafCPL729lZmArFCWIwmEjEVQgB1d3dnVdaqEI+hj4vkU5UtxSIK2IiK/ktMfpp1becApHmk3xE+ms6LSHcu7m5ubtzunAN52prNADeWcUgd4LwC+LvIY/YBnGUPFoWbWyBMcww6rFmJs+Bffr0Do+5PwfhDBGCDQ9hOZ0cn7zTGKVHz7THQLnD2vL+8R5bSCKxvKHCsoBaBwkmVVgWPiQrjH6Nm1ET0/Au79wcGpIuzs7MbGwMDw6ODA4ODkvwBELeiqM080MDb6G23LiKJmG2DIW42UYoVeNNeiYNKqsoiSaT+4Kfg4+gM8YwTWt4E7y1DcD4GzIVj3sQ4g3LLSizoi8QUD9jtlDbv0oWMihpslKFQleidc9W4F0NnOsxYii5diBUCNcdIlIabtquL57BQQ1EjnCUHlE7J9h8PI4UMrgeaBvCQaUkM7hqdnPbT1HhldcAtc4xpgTGhe2OXDVMeM90gCPUsKJ31LepTDzNx8+hDFcXiHy7u0eXQKsURTGrmQOVN8tV5s8dr78eIcbC2jH/KWQdHQxXw4yDBLDiGRjRRAR85wpPqNYaMUAnrW92d0GmhAdFaXHPxlFKK+aW57e/fisgxtQBvx4VQZdAZG763TMyooHo8vkUhx9zj8eQTqxuABs/g5PvSakXllXfECu79S2ZQb56z//E/GoMEw2HX0FCNUSXz93+CeWWr1g2ItSo0YtLflIs23fDQYZC+u+c/VcKGjLJclG3uq0oY40IKa8x4ILHPTCgguga/dFWllVbx9B4mC8WAXS+9jmqnPDrsVFbvXO7BhnXDri/eG3WUynKeDyW7R8YUCK6vF/a/tfaZwEPVKlL4ig1oIKIthaFS8afb99CI5kEZsxwFVDFpKeGGeM3+e4ZaEcccvq+y+vO5s9YVCjCP975vNJRsRoiQzlowuPLuf0UYEztc8SUqZgaJjg+9AoTiojDTud3mXdVW2kpnmxWrDLwx4QOE7cWqvvAjqkr7k23TSFShtNvtAyliENeOR8wXyQW5/H4abEcMaBANAMIGe9TAJJbF4p2RB/RaCGCbChFHHJ+kfln7TjKdY4CnkiojUg5298nV2vd7x8cHDTuW6r3jqvAV/ki6NoEYtjwJs1vHrdbQBx0/pB+IrnHeIRrjPfuXE5Jo2FwZ4oJyINocz8CbFSAAk1HKsU2an0K5Q7WeMR5csSw4U6wL243jzgy5JHu5Gg2eLz4jXOIK1K9BvcXMWFYFmRaeyjtSZVMFQ6UtxubV79zHcemibVoVJr+cPOIg8O/SX5eexDN5xT7RS/J/UWH9OEBzb1kCN1jZPF/RMjQvcJda4XfM1dnHyoL5IRhlz5g1ePmEJ1fJJ7VSsfiuO2/GRoekncaWlYU1iIjjTKtVIhvp46wpJC3Cm9tLTdu/eH/IU+LYUqfsMwRDvaLBUx1OQb5UN+P0r9Kv6iH6JCs5f0kojuqS/fdrtZ5zEKqoDQkVIkYMezQ3yRVwYRD30W+kzjGS+zdgdyh0/VrIDKSHIwB68LuafHCVo90DNmnMqTTJtQPpr9hEwoGzP2McHw3gyODel2/5lqUJKhlABitMxrnwnhLFlLssrKAJb7lEda/CfXdDYzYz79+8zQWh3M3yDeg2/VrW5ERY1sxxUZZvR3+q3XekMlGu7NWiI2o30B9cXs8bu7Fm59jiTRUYmNgQK/r112Lkr2De2x012iHP2/I5NpB28YjmtCIYf3y6RWw4Sv0q9YDx/ceFDlaLbGAqG1Fn/DarUJ0l+BY2KrgrPKpR4nQiGH9yvSVx+MZKIPqJRFPYz6UGzW7fkNEyQ7XmCqg2g5/zllTt7JrI7y9Gmb0AKv9gNDjXo9j86XXhfrGCFEr9YsbBw8LUUXXr3lOAxsyJVuMhCsx7NDrsxcgoGc9CIT4PO62TkMn3KgjiveeG+ylmQNFkDElzxtq91dVCMN63cWCpx/8A/mC6Q23R6xRSRxVdQ+cWENFdwPmjoWtHhX25ZfnIvLTFb1Wu+zu70eE7zc8fP1mwopKxICQKxYylwF512+I6KhnZFf3gcxNV/Ru8+1Awn7PBjCkAEhuRa8SUZzu1Y7aun6KMT4XVtiT2qNK9piRFb09wxVECCE9ZhHV16L4LKvlevtgg+Bw31EmJU2LVZpkJa7olW0coQerC4i00Djd04rZjfHhvjqc9F9J4s0mwXhRl7DlkdiwG4gi4T6tHE8ZJw2uTm0JV1g0vt+/0lJlayPsCFGlgAsIXnpNq0zgjFK/kPv3RF8tbvr1fVWf0C0ntIwoEs4zqtNww8WIa7jMmiRxFDe7QdiltTgqxNIsozEqNs4ZnBm52qFkdKpBl7AmElpBFJPG6P/yL12mdAb+JIwFFiEa3ztdUeugeR1KCK2sRRHxTnhtWnPgb4yIGAt7IF9Ek3UDQMdrPcKmjLATRJc89XsvheJ5K6Ax8CdJ/Wg9Jg/69uAc8kgf8qvWiRao3IYKoaW1eCl8oGAhqg78idYiNmMSAdZX9W34VW/3UhuhGUQNP738Kbx4QOOeBum5foCYAXz6eIaE6/39aoydI/piwovP05p3psjMCBejMaDjm+4OtPVX3UCU5kVWnNbr3HwzTP0cIgGg40gPsO+9BmHHiK7dhvDiFUoFUS31a148CaAB4UM7oOW1uBQVnWaTUbn5ZsZPSRTe0yU88XQVETJGJPXWFq2N2K3HiIT3tfEg4YaS0MpaBKkxlpGs/C1SK3bO+FWfsKYMNeYQFanftRQ5lrzBvNpaNJX6DQn1ShpQ1ChDjUlHVab+GCt9zx0nE1BY0VTqN9A3/YPl1bgqoaW1eBFjZRmq5KTogJXUr681g21JQVVAAkcd1o6osciV/E3K10MM+kIWgKZjxY4Yw1F9wL5T1VBDuBYVjQZmXIrJliJ2lp3s/PWPc+eogIGYrCN+vVXDkuhRPdSQOKpaL4XDTSwW/az5jtWFnZ0d+Nyi67NzH4O+c8AK4bd7zXfCqiW0CK2sRYCosKK60HN8XGind2eIKf1QCt4hoQVoBfEuFoskzDzkppjd9EJM84gpw7dJay5EsrWomvqdF3ADqtGn26ZqZdP8gybabgSo6ad6RjSNKE/9zo+xWIz9bPphztXStrlHhnxT20wuVyttTNhB6keIEfbe/NFUAGnCkkm9QRvWQlzPTTtfi84ltJc41NCbomhd0zVFaMjVNYIj9A+a+YLMUTVT/x3eL83GGiqnS42UJTuBUY8QvNaJrpuSrUWN1P+R2xTOhiLHjeVWrZkz4bTlcwLGpH5jgVXTyRdkjqqV+kVGQIkeTgQPacT2ruBjxB5rhg/XKhvacdUwGyLFDdzUUhl+JzCK52yj3GPECpk97cf3IO349BnrRmU31qmRm1oabLi8apDCUdtQpnDc0rnMku5poYxRUYrV0k36xGtRY98NaBgB5NLHjyqA/Hnp0L6Ow55pm3GVIFdAVdO6SV/djMSIsidr3S0BXVxciI8Rw0fCQqljbW8tax5Q0D5Z1abTtCGghfuLwhFNmUBHDJ8jtiuc6y9I9+615LtOzzU2ZRTInBRGU6NYY8lRNbeGw9nGaOCSe4JYKCk5CNb6/Vg6nPig6qn1FJmTAiU0O32riC6pFTVOogRoDMlmYiJVbS11JWFUPS0USpECgqS/QWDELqxFDcQAZ0hWksBrqVDqVvTVsvJpGvX2LVQ6asaJjNgRIgY0siL4FzFmIkJUbaXYTEps4IsKxFDKRMn7EDROGCqEXViL4gQucIkjjrC2llMsm4wIFMU2R13N6I/z5aolgiRuaiUvGjgqmr9dIk8V7LZfgIfehfjTthvziKxi4xUkM6LF1G9gRaBdlDf4q7rNgFI2JUx8ZIeFVjOsOoqGHtOERrQh3MgG/pcQUWC6PAJWLET4gCPdvy9LLgSqpoNE4bSLqV/DihAxwyMWw3V0lIjbsZgTjVgPkdYzvE7SZOHUiqMShBvOUwXEUng1BBCT/KG2FdGERnNSFSOSFDYdI5KlfgFRSHXnDgp5KueoTJg3YdL0BMiEEbu1zU9rLUJEfpVVKYqqA0S8QUo4LGTehOClEkGCFsOiFY1TP9YFSBpczZZdgYgsn/zwEYUjEwWbKBBOCTOGzakfW5ENcY4J/JRaBbkf5xB0zmS1ExP2wZxImjGsOGpb6tc6SwwQr/Bl5cIUROSPKsC93yGjpzVoCBQ2xMGme6lfG5F/rMZ1GK9FHFtAOAWZgrhtkushSB5suhdutI5Lg2jD5Qj0vX11LktWV1bRrsWOBFoM8mDTxa5fK/WzHEgJGhEkjRQKPmfJUEr/1r2OTkwkxS6GG03EwiO+LvztkmwIER+mMv/XKSAKNsTxtENHVUv9Goi7LLc1J4uMuMriYBMKWfhqFRBszCxFu9diNNSQGrGOH67V+Lf2kx+NdZo2sxQ7v/nWnvrVrQj8FBsRr0QKd/XNsbHJzgn70kHSJqNzRLJD79hPOSPizQyXGfjbifH8WwuEIJ6aQrQ59UeT3GMkECLD/mGdEMZTU0vReurXQ1wK4fKsGEYbb/786999fZN5S16K8n4H0caucBPl6jMn3CDGsn/99ebNu/y4hW9v6oP7T4Kmok0XUr+OFZcyuED74KCYXZb9882nN5/GFy0BgpQa7xkiQbiJ4sImF6aPQIPRegdsOGMREPRRwIomapt+K6nfCDFwUcAl2jZoEkHPNDM3aR0QZcUeIBI90idAcwnjPsOG4K2mKZJHdBvrwWRatJD6NXtijjCwG0JdU7PAdtpRqKkKT+jbj0i0Fi+5WMOy+S4S9uXSZhFtqFE5RK7ZP/57rDsOygnWNr1aiwaIS7iuWRyzUnB3BdG21P/nP+AFzYzlrZUyCtV6g+gysuLoxV+/wOsB5ajyafJdQHxv3k+7ijga2I38+Qdy046+NpUA0f4y3CVjbEeED/P9A5Vp01brURU1MWJvmik1RN8l2nPzK3LPuXx3gylGTJtNjB2HG7XU71tCe4r+HnsDLwYE024UbG3KBdMmF2P31qLP9xECRnLT+TfQPWe7nS6wqg9ps57aJUSvD36fBntVBS3vJ2i8mbExq22Tuk4TnXmqxbzoXYpFYrEQnHMvjr2btZOw7xHFm/fkZuxC6vf6duE+xgy6dTE7hnpe+wj7DpEVTZjRBKJT3VG5bfC4NZwaQ7nepnWIlMOLkdyM1hBdXrQZlb3i92CM599MwYw/3v1sIegk3pEZO0F0eS/QVtuQuGsNLMQ3+U+f8l1tn9rVRGnDBGMniOi0DXeIISK9vzQNvzfmk50mhPqJzUjqqp2FG44vFmrI3xx+gbgNFU2bDjkzEjJ2sBaHnHg3eDSm2LI2OTfX9aJURdxqNMdIjDjkvMFPRmdPlG89QfQlcdbVfOAZTWy51UUc4jV8d4OfjB696uCkVBdVCyZ4RmNDkjgqxhu628N8kbjJU4s26DGBl2MwuG7ISLQWAeUN9z1hkYi5DYc2qXoiMBoa0hhxcJAzH/witGfBB1U9SfOMhpB6iCMDgyM3Ce4b0WIRlSdCP52qj8GEDFKbUgMRaPDuBj9ZGyBGEo/PiQ+p9hAXGMGa1KRUOCrHydNBwMjx08cXNTVP0gkJ5HtEqcRsQwS/2Fh/j56qjfFisZOnzQ+6qp2mE0GpACbckfPqlYxVgNzYWE8Lwninz9N8oqqt07jUkhzo+/V1wCoI/O79e/w8ZhEQBJfPemcPn4+qtZ/BeFpB2S70FyR4wZ+K7w9+zlp4/BlMJIwxg4gunvj5aP5899MrV3s8fYhrcnKmezh91PuC3f8ANWsnJ6eAB4QRGCpRxITYweDpyUntGUdNs6rmcjn8Dd61w2ZuwcxJ/Be96EUvetGLXvSiF73oRc9f/w9q3llfOwVfBgAAAABJRU5ErkJggg==;" vertex="1" parent="0WjlItf-CRWbp25ZSryx-1">
          <mxGeometry x="101" y="461" width="81" height="81" as="geometry" />
        </mxCell>
        <mxCell id="0WjlItf-CRWbp25ZSryx-22" value="" style="endArrow=none;html=1;rounded=0;" edge="1" parent="0WjlItf-CRWbp25ZSryx-1">
          <mxGeometry width="50" height="50" relative="1" as="geometry">
            <mxPoint x="187" y="512" as="sourcePoint" />
            <mxPoint x="179" y="161" as="targetPoint" />
            <Array as="points">
              <mxPoint x="467" y="323" />
            </Array>
          </mxGeometry>
        </mxCell>
        <mxCell id="0WjlItf-CRWbp25ZSryx-23" value="Attacker" style="text;strokeColor=none;align=center;fillColor=none;html=1;verticalAlign=middle;whiteSpace=wrap;rounded=0;" vertex="1" parent="0WjlItf-CRWbp25ZSryx-1">
          <mxGeometry x="107.5" y="182" width="60" height="30" as="geometry" />
        </mxCell>
        <mxCell id="0WjlItf-CRWbp25ZSryx-24" value="Attacker" style="text;strokeColor=none;align=center;fillColor=none;html=1;verticalAlign=middle;whiteSpace=wrap;rounded=0;" vertex="1" parent="0WjlItf-CRWbp25ZSryx-1">
          <mxGeometry x="109.5" y="308" width="60" height="30" as="geometry" />
        </mxCell>
        <mxCell id="0WjlItf-CRWbp25ZSryx-25" value="Attacker" style="text;strokeColor=none;align=center;fillColor=none;html=1;verticalAlign=middle;whiteSpace=wrap;rounded=0;" vertex="1" parent="0WjlItf-CRWbp25ZSryx-1">
          <mxGeometry x="107.5" y="421" width="60" height="30" as="geometry" />
        </mxCell>
        <mxCell id="0WjlItf-CRWbp25ZSryx-26" value="Attacker" style="text;strokeColor=none;align=center;fillColor=none;html=1;verticalAlign=middle;whiteSpace=wrap;rounded=0;" vertex="1" parent="0WjlItf-CRWbp25ZSryx-1">
          <mxGeometry x="109.5" y="552" width="60" height="30" as="geometry" />
        </mxCell>
        <mxCell id="0WjlItf-CRWbp25ZSryx-27" value="vormir.marvel.local" style="text;strokeColor=none;align=center;fillColor=none;html=1;verticalAlign=middle;whiteSpace=wrap;rounded=0;" vertex="1" parent="0WjlItf-CRWbp25ZSryx-1">
          <mxGeometry x="243" y="156" width="95" height="36" as="geometry" />
        </mxCell>
        <mxCell id="0WjlItf-CRWbp25ZSryx-31" value="&lt;font style=&quot;font-size: 18px;&quot;&gt;DNS&amp;nbsp;&lt;br&gt;Server&lt;br&gt;&lt;/font&gt;" style="text;strokeColor=none;align=left;fillColor=none;html=1;verticalAlign=middle;whiteSpace=wrap;rounded=0;" vertex="1" parent="0WjlItf-CRWbp25ZSryx-1">
          <mxGeometry x="929" y="360.51" width="98" height="33" as="geometry" />
        </mxCell>
        <mxCell id="0WjlItf-CRWbp25ZSryx-32" value="&lt;font style=&quot;font-size: 18px;&quot;&gt;192.168.44.137&lt;/font&gt;" style="text;strokeColor=none;align=center;fillColor=none;html=1;verticalAlign=middle;whiteSpace=wrap;rounded=0;" vertex="1" parent="0WjlItf-CRWbp25ZSryx-1">
          <mxGeometry x="1049" y="248" width="60" height="30" as="geometry" />
        </mxCell>
        <mxCell id="0WjlItf-CRWbp25ZSryx-33" value="&lt;font style=&quot;font-size: 18px;&quot;&gt;192.168.44.138&lt;/font&gt;" style="text;strokeColor=none;align=center;fillColor=none;html=1;verticalAlign=middle;whiteSpace=wrap;rounded=0;" vertex="1" parent="0WjlItf-CRWbp25ZSryx-1">
          <mxGeometry x="593" y="288" width="60" height="30" as="geometry" />
        </mxCell>
        <mxCell id="qYodW9jKfsj3fDv3vSFJ-0" value="vormir.marvel.local" style="text;strokeColor=none;align=center;fillColor=none;html=1;verticalAlign=middle;whiteSpace=wrap;rounded=0;" vertex="1" parent="0WjlItf-CRWbp25ZSryx-1">
          <mxGeometry x="202" y="240.92000000000002" width="95" height="36" as="geometry" />
        </mxCell>
        <mxCell id="qYodW9jKfsj3fDv3vSFJ-1" value="vormir.marvel.local" style="text;strokeColor=none;align=center;fillColor=none;html=1;verticalAlign=middle;whiteSpace=wrap;rounded=0;" vertex="1" parent="0WjlItf-CRWbp25ZSryx-1">
          <mxGeometry x="215" y="371" width="95" height="36" as="geometry" />
        </mxCell>
        <mxCell id="qYodW9jKfsj3fDv3vSFJ-2" value="vormir.marvel.local" style="text;strokeColor=none;align=center;fillColor=none;html=1;verticalAlign=middle;whiteSpace=wrap;rounded=0;" vertex="1" parent="0WjlItf-CRWbp25ZSryx-1">
          <mxGeometry x="283" y="457" width="95" height="36" as="geometry" />
        </mxCell>
        <mxCell id="qYodW9jKfsj3fDv3vSFJ-3" value="&lt;b&gt;N&lt;/b&gt;" style="text;strokeColor=none;align=center;fillColor=none;html=1;verticalAlign=middle;whiteSpace=wrap;rounded=0;fontColor=#FF0000;" vertex="1" parent="0WjlItf-CRWbp25ZSryx-1">
          <mxGeometry x="314" y="150" width="60" height="30" as="geometry" />
        </mxCell>
        <mxCell id="qYodW9jKfsj3fDv3vSFJ-4" value="&lt;b&gt;N&lt;/b&gt;" style="text;strokeColor=none;align=center;fillColor=none;html=1;verticalAlign=middle;whiteSpace=wrap;rounded=0;fontColor=#FF0000;" vertex="1" parent="0WjlItf-CRWbp25ZSryx-1">
          <mxGeometry x="269" y="231.95999999999998" width="60" height="30" as="geometry" />
        </mxCell>
        <mxCell id="qYodW9jKfsj3fDv3vSFJ-5" value="&lt;b&gt;N&lt;/b&gt;" style="text;strokeColor=none;align=center;fillColor=none;html=1;verticalAlign=middle;whiteSpace=wrap;rounded=0;fontColor=#FF0000;" vertex="1" parent="0WjlItf-CRWbp25ZSryx-1">
          <mxGeometry x="283" y="360.51" width="60" height="30" as="geometry" />
        </mxCell>
        <mxCell id="qYodW9jKfsj3fDv3vSFJ-6" value="&lt;b&gt;N&lt;/b&gt;" style="text;strokeColor=none;align=center;fillColor=none;html=1;verticalAlign=middle;whiteSpace=wrap;rounded=0;fontColor=#FF0000;" vertex="1" parent="0WjlItf-CRWbp25ZSryx-1">
          <mxGeometry x="349" y="443" width="60" height="30" as="geometry" />
        </mxCell>
      </root>
    </mxGraphModel>
  </diagram>
  <diagram name="NXDOMAIN flood attack" id="Y30cS1R1TQi94Fe__yT1">
    <mxGraphModel dx="1194" dy="752" grid="0" gridSize="10" guides="1" tooltips="1" connect="1" arrows="1" fold="1" page="1" pageScale="1" pageWidth="3400" pageHeight="3400" math="0" shadow="0">
      <root>
        <mxCell id="0" />
        <mxCell id="1" parent="0" />
        <mxCell id="_aATQ9_5qBSlt04u06Cs-10" value="" style="rounded=1;whiteSpace=wrap;html=1;" vertex="1" parent="1">
          <mxGeometry x="472.5" y="161" width="813.5" height="332" as="geometry" />
        </mxCell>
        <mxCell id="_aATQ9_5qBSlt04u06Cs-6" value="" style="image;sketch=0;aspect=fixed;html=1;points=[];align=center;fontSize=12;image=img/lib/mscae/DNS.svg;" vertex="1" parent="1">
          <mxGeometry x="868" y="354" width="50" height="50" as="geometry" />
        </mxCell>
        <mxCell id="_aATQ9_5qBSlt04u06Cs-7" value="" style="sketch=0;aspect=fixed;pointerEvents=1;shadow=0;dashed=0;html=1;strokeColor=none;labelPosition=center;verticalLabelPosition=bottom;verticalAlign=top;align=center;fillColor=#00188D;shape=mxgraph.mscae.enterprise.domain_controller" vertex="1" parent="1">
          <mxGeometry x="875" y="281" width="36" height="50" as="geometry" />
        </mxCell>
        <mxCell id="_aATQ9_5qBSlt04u06Cs-1" value="" style="shape=image;verticalLabelPosition=bottom;labelBackgroundColor=default;verticalAlign=top;aspect=fixed;imageAspect=0;image=data:image/png,iVBORw0KGgoAAAANSUhEUgAAALEAAABACAYAAABV55Z5AAAAAXNSR0IArs4c6QAAAARnQU1BAACxjwv8YQUAAAAJcEhZcwAADsMAAA7DAcdvqGQAAAASdEVYdFNvZnR3YXJlAEdyZWVuc2hvdF5VCAUAAAuySURBVHhe7ZzNriRHEYXvSyGewg/AjgfwE1g8AjvvLFnIQrJASMgSCyRAQiA2IITYAAtYIITBHozxgGGWzfnOrWiHw1HVVX27Z7rauTi63Vn5E5nxZWRUdc08vHjx4jA0tGcNiId2rwHx0O41IB7ave4W4mfP/3f4yz//e/jjs08Pv/rrfw7f/d0nh2/84qPDGz/7qK0/tF/dBcSA+uM/PT+8/dt/Hb75y48Pr//0H4ev/fDZ4Svf++Dw8O2/Hx6+9bfHvxJlXR9D+9XNQ/z808eI+vsPHiPqe3/45PDmrz82pA/fmSANvavvWVwvGhDfn24KYlKA37z/2dH/+k8eI+pXvz9BWIEtgK7RgPj+9NIgjojK0R9lpACAakg58tE7Jao2ID5FA+L701UgJqL+/M//do4aEfW1H3xogPKNFfmrwW1gu5YGxPenzRATUYmmQEp+Gkf/1380HftLEVXfATr6MsTUKaBdUwPixxth1h7/ddf3plmIgZWbKSYad/yvvfehQQUEQwGcQBiwFmC+INXZI8SkPWxU/nbXEesVJw/r1tUJcWNKPdrwnZMrTqucbl1LzINAw3hhw541CzER1hF1C6SntFOIge7hbTldm7i7jsj3qcOaMa+uDuIJS6wp8FLGzezDW2qr9ksb5VIyxPIFN833D/ElwM3aKcRER9Ij2s5FWYNBCqUxOK26OiiCQ743AGa+c9qxGXL9a2hA/BTtFGIg4+gF0rlICYDHuQjSiLJVwEo91re7/jI0IH6KdgoxClvnfrYm+gK6f4QRxB2kABN21IhOtO/yYcpydOY76Qea2yhZ1In60c8aiGmHjbVtFeXUm+uHa3NtY4w6D/qKsbvrVQPileIGN2yt11hs5gbgXjdBTGSu9ZyW6Fq1ASezCVB2OM6jLn3hWOfmzEN9YAv1ybFzX1ncaFLHac40LmXOyxcgBnLyf/t/yvNpy/wqkPgTW7oTKsbp1gzZ/7INm6KMtfSpRzvuEzQ2c1h6kjIg3qBwanVkgMtfwAvAaj1DqHrMO5dTD7tqmyjn8aUdq7asH+0d8bFHY3UgByDUAT6ehriNygy21qKD2OmOxuE6bZgTdnt8fCXlEwMA6ZPruR909K+uA2e97o2isaI/oq7ra2zG5DEu48cJV9uHBsQbZEfKIaxNLrfjNQ9gAgrX01xxQq4HjDitOvQUxAFrjXaRhwNbLqed20jZ1mM0B1JdqxBjr8FXn9mOaGv7dT370GPRn9rU+o7Sk+2Mm6/79JI/mHOkC+ZBfdW69JU3TtWAeIO8JsWJqPYbzsjHZACZndZdy/BEOWvURTJHLo1T5xTREehyeSjWvUJs6NRu7ug2sJO/sj1eW5XnTeu68vdc1PdaynZsiTI2I2UV4lMaEG9QHHcZNjtLKUYGJvLnfMT6ZkplXa4csM5CLLu7mxugcM6qfnN5RMy8ibK6GzvGCuCYZ22DqEsbxsunQkT3DKSjumzDBttT+vWGKf24jfqhLu0y9EsaEG8QIDlVkM0RibxOchZ/o57hYu1UHmXh6A6sJ0OssXK5YRTENZ0JdRD7plNl1YaqyJlztPYNnNaEtQk7HVV1Y8Z3+zm1sd2T36OPUJwiATNtl1IJNCDeqDjyAkZHGX2vC23YVR6RJuDvALk0xG5zDsQa5xyIvbm5SdP8ItpiQ6y1IZc9cVr5u+zOLGRhC+vsecCHbJ1LcdCAeKMMgBwSqUK8T1Ihc0SRs+OmC6fNjX1piL1hZGM+HbLmII6xtqYTKOBmTG8I9Y9/47qjq9rx2YFAdtc+qpizTzDaqr+5zTUgPkM4C7t9h605BahZzp+1+Djd0Mhp2alZl4bY66qxu/wbGQzZnyE+AroAv+ekdl20dnTVuhznq35y9IwTi9PB42hOc1BWub7GnTtZBsRnKFIDO0Z/uzwX6HA2shPkQBxd66FLQ+zNxUZTu/pUA7AismFXQIyO+aiu1fEy5N2mtS2TL+NGLqdYHneCnDnBQR4bwVwtQ6wLfde5hAbEZ8gOCbs1p+ysLB+xrKHURa/QkyGWLfVaPLtGrDOAGgbV9/Nl9VkhRrFBEfXgwH5iHgKYPnL9rDzfSLdCjuLTeqEu2vuaQGc8ojnrbHtUFvl0pwHxGXKkmxyNujrIawhkcn6edxWwhm15Q7gcH2iMWYj5aVb9d9cY05GVqIzUDzY5Z9VnAKkQM479Em2SiMCdHSHPN9XN1xgnIjnX82YNOQ3BT6xZSHXZTEvjDojPFIs6F4GzcNbaep1jKVtyIH0vXQcecsmaypzqF7FZaTt3jHdami+2nLIX0Qf2orrJOi1DDGCAfEEBcRj2BYib+ova2k51l15sH9qnZiHOu2Gt2LHkPuw22nfKu5DPuRy4tyjbO/Tl1SzEQ0N70SzERFaOe54pIu5uL6H87JCIXaP5y1Ce59D+dTonDnU55lapn/yo5JgTd3WvpEvd2A3djpYhxvFx83QJqb97eToxdDsaEJ8pbkRPPSoaejkaEG8U68Ic+KEA8Zmyru7Qy9GAeKWIuv7Zll+kNI+A2P2+9fi/6XTthq6vAfFKha2AHL86IT5zbUD86jQgXqFjFJat4xHd7WlAvEL8ohjtz4GYaM3zcZ6T85IL/XX1+BWSdxXiOu3wA224Rjmf515aR1GnG4My+o/n9fRf64TyOxNsYuxAXb+vWgPiFcKJzn9lK68bdnU60Y75+m0s3jYLqR9+QKr1AYfrXPMbXeTfU1v84VdApze7atuQx5vqRxkbwC/C01/YgNTX3BtiD2++7zkDrddusiP771Y0IF4popdtlXjN8FREOoL/zmf1KSOS+9+jqbyCbIhV7lcWtVa0xw9sHKCmjuchGKmb2yL6xz7mmKOs3x9WG9aeKA7UXDfwGq97VxdoGZ++EPPH3m7zvWoNiDfITiciYbPmgv1dFEOGXuB0/woCgAK2vBkMMX1LANS95ER/gNedCI7UGpNNEGV+91ll3cvs9O9cX3Oqr1t6npojNi6lL7egAfFGAUrc5IWYRwXO4wmeDkTkDaG29BdlEYnpfy7S+19IqF1Xx5FfY0bURv7XFirrIjea22wB8Vy7W9KA+AwRfZ2z0if2C7w8L+Dy2kmkD4BQ5X+Hpnasc7SjfC7KhnKakm8yie7MjTHjdGADOTWRjcBabUDhgxy9UUCcy25VA+InKufKEVV9hMfa5RupLEU/1EXivEadfJOm8XIua3+pP9Y0yo7AYwfjdXYAazPmgHhOdwgxclTVPAKgI8QSxz/f55Rz6rUQO6cGStWNsrAhpxIZYjZLNz4iotfUZEA8pzuF2NFYQEUaADxeO4FW6y5pLcQo8nLgJG1grDo3yg23rm19vm2I1X937dY0IF4hYJi7QUMRBYE5yhgHIAEz113SFogjfeCGzJ8FXU4lQvE0o3tKsqS7iMQcS3YEkE1Hlz8/BeydQgycRL58VOdrnoOUn80SIVkz2nVRkLrAlzfHFoidUmg+9B9RuXsU5ptM/Kfrnf2cGtiR0xp0FxCzuEwMsTgsAA7jwTl5FgtnyIEDsCdH+vMc6DuFmLkHCLRn/o6+zJPNrb8VENYvoiDtaMN31i+go68MjyHWOGsgRtSL9ebpwtxpcTxVNSZjk/Zgi/NlynWDVzeAb/pUP5fdqmYhPiUWjGhAlMGBLBRQsrB2Es6rEVx/9wgxAjCc77lNd/Z8BgZujro2iHWJdMPttCa0Y+41QtMP67T26Df0rKvmlZ9ydGIsQ886TPazFsypi9Dhl1p+izob4jUiyrB4ATjO5G9cN8RThLMmh1xT50KcxQaei3pLOqfNNXSu/beqq0J8SkTyiOKfO97Ix2oUvxDgl4B46Lb0SiFeEjckHJfk4Rx5HIXkfT7OATqi98YIPiC+P90sxJ04Aone8YCePJAI7p9WgbSCnTUgvlvtCuI1iggeeThR/HMRXOraDe1Xdwdxp3hUSBTvnqUO7VtfCoiH7lsD4qHda0A8tHsNiId2rwHx0M714vB/aqd4vAIC3nsAAAAASUVORK5CYII=;" vertex="1" parent="1">
          <mxGeometry x="529" y="224" width="127" height="45.92" as="geometry" />
        </mxCell>
        <mxCell id="_aATQ9_5qBSlt04u06Cs-9" style="edgeStyle=orthogonalEdgeStyle;rounded=1;orthogonalLoop=1;jettySize=auto;html=1;exitX=0;exitY=0.5;exitDx=0;exitDy=0;endArrow=none;endFill=0;" edge="1" parent="1" source="_aATQ9_5qBSlt04u06Cs-8">
          <mxGeometry relative="1" as="geometry">
            <mxPoint x="988" y="218" as="targetPoint" />
            <Array as="points">
              <mxPoint x="840" y="218" />
              <mxPoint x="840" y="467" />
              <mxPoint x="1228" y="467" />
              <mxPoint x="1228" y="219" />
            </Array>
          </mxGeometry>
        </mxCell>
        <mxCell id="_aATQ9_5qBSlt04u06Cs-8" value="" style="shape=image;verticalLabelPosition=bottom;labelBackgroundColor=default;verticalAlign=top;aspect=fixed;imageAspect=0;image=data:image/png,iVBORw0KGgoAAAANSUhEUgAAALEAAABACAYAAABV55Z5AAAAAXNSR0IArs4c6QAAAARnQU1BAACxjwv8YQUAAAAJcEhZcwAADsMAAA7DAcdvqGQAAAASdEVYdFNvZnR3YXJlAEdyZWVuc2hvdF5VCAUAAAuySURBVHhe7ZzNriRHEYXvSyGewg/AjgfwE1g8AjvvLFnIQrJASMgSCyRAQiA2IITYAAtYIITBHozxgGGWzfnOrWiHw1HVVX27Z7rauTi63Vn5E5nxZWRUdc08vHjx4jA0tGcNiId2rwHx0O41IB7ave4W4mfP/3f4yz//e/jjs08Pv/rrfw7f/d0nh2/84qPDGz/7qK0/tF/dBcSA+uM/PT+8/dt/Hb75y48Pr//0H4ev/fDZ4Svf++Dw8O2/Hx6+9bfHvxJlXR9D+9XNQ/z808eI+vsPHiPqe3/45PDmrz82pA/fmSANvavvWVwvGhDfn24KYlKA37z/2dH/+k8eI+pXvz9BWIEtgK7RgPj+9NIgjojK0R9lpACAakg58tE7Jao2ID5FA+L701UgJqL+/M//do4aEfW1H3xogPKNFfmrwW1gu5YGxPenzRATUYmmQEp+Gkf/1380HftLEVXfATr6MsTUKaBdUwPixxth1h7/ddf3plmIgZWbKSYad/yvvfehQQUEQwGcQBiwFmC+INXZI8SkPWxU/nbXEesVJw/r1tUJcWNKPdrwnZMrTqucbl1LzINAw3hhw541CzER1hF1C6SntFOIge7hbTldm7i7jsj3qcOaMa+uDuIJS6wp8FLGzezDW2qr9ksb5VIyxPIFN833D/ElwM3aKcRER9Ij2s5FWYNBCqUxOK26OiiCQ743AGa+c9qxGXL9a2hA/BTtFGIg4+gF0rlICYDHuQjSiLJVwEo91re7/jI0IH6KdgoxClvnfrYm+gK6f4QRxB2kABN21IhOtO/yYcpydOY76Qea2yhZ1In60c8aiGmHjbVtFeXUm+uHa3NtY4w6D/qKsbvrVQPileIGN2yt11hs5gbgXjdBTGSu9ZyW6Fq1ASezCVB2OM6jLn3hWOfmzEN9YAv1ybFzX1ncaFLHac40LmXOyxcgBnLyf/t/yvNpy/wqkPgTW7oTKsbp1gzZ/7INm6KMtfSpRzvuEzQ2c1h6kjIg3qBwanVkgMtfwAvAaj1DqHrMO5dTD7tqmyjn8aUdq7asH+0d8bFHY3UgByDUAT6ehriNygy21qKD2OmOxuE6bZgTdnt8fCXlEwMA6ZPruR909K+uA2e97o2isaI/oq7ra2zG5DEu48cJV9uHBsQbZEfKIaxNLrfjNQ9gAgrX01xxQq4HjDitOvQUxAFrjXaRhwNbLqed20jZ1mM0B1JdqxBjr8FXn9mOaGv7dT370GPRn9rU+o7Sk+2Mm6/79JI/mHOkC+ZBfdW69JU3TtWAeIO8JsWJqPYbzsjHZACZndZdy/BEOWvURTJHLo1T5xTREehyeSjWvUJs6NRu7ug2sJO/sj1eW5XnTeu68vdc1PdaynZsiTI2I2UV4lMaEG9QHHcZNjtLKUYGJvLnfMT6ZkplXa4csM5CLLu7mxugcM6qfnN5RMy8ibK6GzvGCuCYZ22DqEsbxsunQkT3DKSjumzDBttT+vWGKf24jfqhLu0y9EsaEG8QIDlVkM0RibxOchZ/o57hYu1UHmXh6A6sJ0OssXK5YRTENZ0JdRD7plNl1YaqyJlztPYNnNaEtQk7HVV1Y8Z3+zm1sd2T36OPUJwiATNtl1IJNCDeqDjyAkZHGX2vC23YVR6RJuDvALk0xG5zDsQa5xyIvbm5SdP8ItpiQ6y1IZc9cVr5u+zOLGRhC+vsecCHbJ1LcdCAeKMMgBwSqUK8T1Ihc0SRs+OmC6fNjX1piL1hZGM+HbLmII6xtqYTKOBmTG8I9Y9/47qjq9rx2YFAdtc+qpizTzDaqr+5zTUgPkM4C7t9h605BahZzp+1+Djd0Mhp2alZl4bY66qxu/wbGQzZnyE+AroAv+ekdl20dnTVuhznq35y9IwTi9PB42hOc1BWub7GnTtZBsRnKFIDO0Z/uzwX6HA2shPkQBxd66FLQ+zNxUZTu/pUA7AismFXQIyO+aiu1fEy5N2mtS2TL+NGLqdYHneCnDnBQR4bwVwtQ6wLfde5hAbEZ8gOCbs1p+ysLB+xrKHURa/QkyGWLfVaPLtGrDOAGgbV9/Nl9VkhRrFBEfXgwH5iHgKYPnL9rDzfSLdCjuLTeqEu2vuaQGc8ojnrbHtUFvl0pwHxGXKkmxyNujrIawhkcn6edxWwhm15Q7gcH2iMWYj5aVb9d9cY05GVqIzUDzY5Z9VnAKkQM479Em2SiMCdHSHPN9XN1xgnIjnX82YNOQ3BT6xZSHXZTEvjDojPFIs6F4GzcNbaep1jKVtyIH0vXQcecsmaypzqF7FZaTt3jHdami+2nLIX0Qf2orrJOi1DDGCAfEEBcRj2BYib+ova2k51l15sH9qnZiHOu2Gt2LHkPuw22nfKu5DPuRy4tyjbO/Tl1SzEQ0N70SzERFaOe54pIu5uL6H87JCIXaP5y1Ce59D+dTonDnU55lapn/yo5JgTd3WvpEvd2A3djpYhxvFx83QJqb97eToxdDsaEJ8pbkRPPSoaejkaEG8U68Ic+KEA8Zmyru7Qy9GAeKWIuv7Zll+kNI+A2P2+9fi/6XTthq6vAfFKha2AHL86IT5zbUD86jQgXqFjFJat4xHd7WlAvEL8ohjtz4GYaM3zcZ6T85IL/XX1+BWSdxXiOu3wA224Rjmf515aR1GnG4My+o/n9fRf64TyOxNsYuxAXb+vWgPiFcKJzn9lK68bdnU60Y75+m0s3jYLqR9+QKr1AYfrXPMbXeTfU1v84VdApze7atuQx5vqRxkbwC/C01/YgNTX3BtiD2++7zkDrddusiP771Y0IF4popdtlXjN8FREOoL/zmf1KSOS+9+jqbyCbIhV7lcWtVa0xw9sHKCmjuchGKmb2yL6xz7mmKOs3x9WG9aeKA7UXDfwGq97VxdoGZ++EPPH3m7zvWoNiDfITiciYbPmgv1dFEOGXuB0/woCgAK2vBkMMX1LANS95ER/gNedCI7UGpNNEGV+91ll3cvs9O9cX3Oqr1t6npojNi6lL7egAfFGAUrc5IWYRwXO4wmeDkTkDaG29BdlEYnpfy7S+19IqF1Xx5FfY0bURv7XFirrIjea22wB8Vy7W9KA+AwRfZ2z0if2C7w8L+Dy2kmkD4BQ5X+Hpnasc7SjfC7KhnKakm8yie7MjTHjdGADOTWRjcBabUDhgxy9UUCcy25VA+InKufKEVV9hMfa5RupLEU/1EXivEadfJOm8XIua3+pP9Y0yo7AYwfjdXYAazPmgHhOdwgxclTVPAKgI8QSxz/f55Rz6rUQO6cGStWNsrAhpxIZYjZLNz4iotfUZEA8pzuF2NFYQEUaADxeO4FW6y5pLcQo8nLgJG1grDo3yg23rm19vm2I1X937dY0IF4hYJi7QUMRBYE5yhgHIAEz113SFogjfeCGzJ8FXU4lQvE0o3tKsqS7iMQcS3YEkE1Hlz8/BeydQgycRL58VOdrnoOUn80SIVkz2nVRkLrAlzfHFoidUmg+9B9RuXsU5ptM/Kfrnf2cGtiR0xp0FxCzuEwMsTgsAA7jwTl5FgtnyIEDsCdH+vMc6DuFmLkHCLRn/o6+zJPNrb8VENYvoiDtaMN31i+go68MjyHWOGsgRtSL9ebpwtxpcTxVNSZjk/Zgi/NlynWDVzeAb/pUP5fdqmYhPiUWjGhAlMGBLBRQsrB2Es6rEVx/9wgxAjCc77lNd/Z8BgZujro2iHWJdMPttCa0Y+41QtMP67T26Df0rKvmlZ9ydGIsQ886TPazFsypi9Dhl1p+izob4jUiyrB4ATjO5G9cN8RThLMmh1xT50KcxQaei3pLOqfNNXSu/beqq0J8SkTyiOKfO97Ix2oUvxDgl4B46Lb0SiFeEjckHJfk4Rx5HIXkfT7OATqi98YIPiC+P90sxJ04Aone8YCePJAI7p9WgbSCnTUgvlvtCuI1iggeeThR/HMRXOraDe1Xdwdxp3hUSBTvnqUO7VtfCoiH7lsD4qHda0A8tHsNiId2rwHx0M714vB/aqd4vAIC3nsAAAAASUVORK5CYII=;" vertex="1" parent="1">
          <mxGeometry x="860" y="195" width="127" height="45.92" as="geometry" />
        </mxCell>
        <mxCell id="_aATQ9_5qBSlt04u06Cs-12" value="&lt;font style=&quot;font-size: 24px;&quot;&gt;marvel.local&lt;/font&gt;" style="text;strokeColor=none;align=center;fillColor=none;html=1;verticalAlign=middle;whiteSpace=wrap;rounded=0;" vertex="1" parent="1">
          <mxGeometry x="538" y="165" width="60" height="30" as="geometry" />
        </mxCell>
        <mxCell id="_aATQ9_5qBSlt04u06Cs-15" style="edgeStyle=orthogonalEdgeStyle;rounded=1;orthogonalLoop=1;jettySize=auto;html=1;entryX=0;entryY=0.75;entryDx=0;entryDy=0;exitX=1;exitY=0.5;exitDx=0;exitDy=0;endArrow=none;endFill=0;" edge="1" parent="1">
          <mxGeometry relative="1" as="geometry">
            <mxPoint x="655" y="246.96000000000004" as="sourcePoint" />
            <mxPoint x="528" y="258.44000000000005" as="targetPoint" />
            <Array as="points">
              <mxPoint x="741" y="247" />
              <mxPoint x="741" y="411" />
              <mxPoint x="520" y="411" />
              <mxPoint x="520" y="258" />
            </Array>
          </mxGeometry>
        </mxCell>
        <mxCell id="_aATQ9_5qBSlt04u06Cs-16" value="&lt;font style=&quot;font-size: 18px;&quot;&gt;vormir.marvel.local&lt;/font&gt;" style="text;strokeColor=none;align=center;fillColor=none;html=1;verticalAlign=middle;whiteSpace=wrap;rounded=0;" vertex="1" parent="1">
          <mxGeometry x="596" y="266" width="60" height="30" as="geometry" />
        </mxCell>
        <mxCell id="_aATQ9_5qBSlt04u06Cs-17" value="&lt;font style=&quot;font-size: 18px;&quot;&gt;Domain&amp;nbsp;&lt;br&gt;Controller&lt;br&gt;&lt;/font&gt;" style="text;strokeColor=none;align=left;fillColor=none;html=1;verticalAlign=middle;whiteSpace=wrap;rounded=0;" vertex="1" parent="1">
          <mxGeometry x="926" y="288" width="98" height="33" as="geometry" />
        </mxCell>
        <mxCell id="_aATQ9_5qBSlt04u06Cs-18" value="&lt;font style=&quot;font-size: 18px;&quot;&gt;&lt;b&gt;&lt;u&gt;A-record&lt;/u&gt;&lt;/b&gt;&lt;br&gt;vormir.marvel.local&lt;br&gt;=&lt;br&gt;192.168.44.138&lt;br&gt;&lt;br&gt;&lt;/font&gt;" style="text;strokeColor=none;align=left;fillColor=none;html=1;verticalAlign=middle;whiteSpace=wrap;rounded=0;" vertex="1" parent="1">
          <mxGeometry x="1024" y="397" width="100" height="30" as="geometry" />
        </mxCell>
        <mxCell id="_aATQ9_5qBSlt04u06Cs-19" value="&lt;font style=&quot;font-size: 18px;&quot;&gt;hydra-dc.marvel.local&lt;/font&gt;" style="text;strokeColor=none;align=center;fillColor=none;html=1;verticalAlign=middle;whiteSpace=wrap;rounded=0;" vertex="1" parent="1">
          <mxGeometry x="968" y="227" width="236" height="30" as="geometry" />
        </mxCell>
        <mxCell id="_aATQ9_5qBSlt04u06Cs-22" value="" style="shape=image;verticalLabelPosition=bottom;labelBackgroundColor=default;verticalAlign=top;aspect=fixed;imageAspect=0;image=data:image/png,iVBORw0KGgoAAAANSUhEUgAAARQAAACDCAYAAABMZOQ2AAAAAXNSR0IArs4c6QAAAARnQU1BAACxjwv8YQUAAAAJcEhZcwAADsMAAA7DAcdvqGQAAAASdEVYdFNvZnR3YXJlAEdyZWVuc2hvdF5VCAUAABtpSURBVHhe7Z0JeFTlucdbra29drXtbWuX21YgICAgSwEXBEQEuXAB6YWwVDYFiiBXRUFAoCIiV6+I7KKgrJadEPY1MRgChC1AQggQIUBYMjNJZjLZ3vv9vzlj5oRvJpNlcs6cvH+fv8/D5MycJXN++d73e8/7fYdYLBarisRAYbFYVSYGCovFqjIxUFgsVpWJgcJisapMDBQWi1VlYqCwWKwqEwOFxWJVmRgoLJZFVVxcTIWFhVRQUEBFRUXy36EWAyXMVSC+I7fzi+lcdhElZhVS3K0C2nYtnw7dLqQc/JBlWQEUt2/fpvPnz9OJEyfo0KFDtG/fPoqOjqZ169bR2rVrafXq1bRy5Ur617/+JV+Dd+zYQTExMZSQkEAnT56k1NRUunHjBuXl5WmfXHExUMJAhYILWQIaKQIaCQIU+28U0OaMfFp60U0fpebRhCQn9U/IpU6x2fToPgfV2m6noUdy6WJukfYJ5hBuALfbrXR+fr78Kxoq4a9zoP3jZ9XxF7wywvEBIMeOHaNdu3bR0qVLaebMmTRq1Cjq378/devWjdq0aUONGjWiBx980K9btGhBTz31FPXo0YMGDBhAI0eOpHfeeYc++eQTCaHY2FgJmlu3bpX7d8JAMYnwVXYKcmS4iui4rZBibxZQ1NV8WnzBTTNTXDTulJP6HcqlpwU0Wu11UO1tdvrxRht9d20WfUfhvmLbCyYCCobe+KLOnTtX6VWrVlFaWpq2ddXL4XDQzp07ad68eUrv2bOH7Ha7trW55HQ66ejRo3KUMX36dAmBdu3aUe3atZXAqIwbNGhAXbp0oYEDB9K0adNoyZIlctSTkpJCLpdLOyL/YqBUsxCF3HIX0wkBDYw0NomRxvy0PJp21kVvCmgMO5pL3eJyqM3+bGqw00E/22RTAqMsmw0oGE6//fbbyi8x3KlTJ3nDh0rffPMNvfzyy8p9w2PHjqX09HRta3MIIwSADqOQfv36UbNmzZTHHkrXrVuXnn32WRoxYgTNmjWL9u/fL/84+BMDJQTyhihJ9kLam+kJT7645Kb3kvPkSGN4Yi51FdB4TIQnDXfa6Reb/Y80KmoGil7hBJTc3FyZ55g0aZIcLaiO1wgDLriGgXItDJQKCrcqQpQrIkQ5fLuQtorwZEW6CE+SXfTKCafMYXSN8+Q0mux20F+0EOUuxc0fCjNQ9AoHoCBHgtzFjBkzqHPnziEJaSrrwYMHBwx9GCgBhBxdXlExZTiRDC2gKDHSWCagMV2EJ/8Qo4xBAhq9vs6hdgeyqamARsR2O90vQpS71qlv8uo0A0UvswMFeRLMwAwaNEjmMVTHaAYzUIIQbjubCFGOZxXKROjnIjxBTmPI4Vx5Y/6XltNovMtBdQQ0EKLcbQJoBDIDRa+ygPL666/LbYzQ1atXZX6iQ4cOFBERoTw+f65fvz4988wz9Pe//51Gjx4tZ2tmz55N8+fPp8+WfEbLli+jxYsXy3/jdSR1x4wZQ0OGDKE+ffrQo48+Wq6REIDCIY+QGGiQo6CYTtsLKVpAAzmND8/l0SvHnRR5KEfmNB7fl00NdzqolghPfimgYYaRRkXNQNHLrEBBDQlyJZjKrVWrlvLYfI1tsC2SpHPmzKGoqCiKj4+npKQkOUuWmZkpZ6tycnLkNcd0uNPllP/G66g3uXDhAp09e1bWrhw4cIA2b94soYNr0Lt3b2rYsKFy3zADRWh3ZoGExtMxninX+gIaDwpoPLDF5slrhDE4/JmBopcZgYKCMuy3cePGymPyNUYRqDP56KOP5PQ7QGSz2aqkdgefAeDg/AGmvXv30qeffkrDhg2jli1b6o7DkkApKi6mm+4iir9dQMvT3TQ7NY/GnnTS/4jRxiXFTTQvLY/u21Cx6ddwNQNFL7MBBaMJ7LOsIjS4ffv29Nlnn8mbPSsrK+QFePj87OxsOZL5+uuv5eilb9++VK9evfAECq4XZlBQ6Ynw5JMLefR+iotePeGkHgc9owwkQevtsNMfo+30GzHSQL0GchxnHHfOkX98Po9+sF5941nVDBS9zAQU5EwmT55c5sgE+ZQpU6ZIkOAGN0JeuACAmMpes2aNrCz2J8OAAsYCGuniS48Cr6WXPFOuIxNz5axJIwGHugDGVg8wkNP4iYDG9wOAAYVgpxko0gwUvcwCFMzmoDIYeRDVcXjdqlUrWRmLnEeoRyTBCo9HAC6BjiekQEEiFLMnuMk3ZuR7njs55aLe8Tn0iBhh4JmTPwtgPLDFTr+KstHPBTAQmlR0BoWBUmIGil5mAApuxE2bNsnZnEAJWIQ4SJYCPuGmSgMFsMLsSZK4kfGwGmo0RiY66QkxysDoArD4tYDF/RhhbPQAA6OMUBR4MVBKzEDRywxAOXPmjEx0Bpqmbdu2rXwKGKOBcFRQQCkQ1LjuKqI9mfny5px82kXDj+ZShwMO+n20BxY/1UYXP9yQJW9eI+o0GCglZqDoZTRQUAyGad5ARWuPPPKIfIo4UI7C7FICBcnQBWl5NPhwLjUToQkSnvcKUGBkcY/w9wQsAAyzTbcyUErMQNHLaKB89dVX1LNnT+W+vf7iiy/k9G04SwkUPNDWel+28otqZjNQSsxA0ctIoGB0gvoR1X69Rk+Sy5cva+8IXzFQLGoGil5GAgW9TCIjI5X7hZs3b05xcXEhbTBVXWKgWNQMFL2MAgoggRaMeOZGtV944sSJsjbFCvILlEfDFCiYbSotBorxqqlAuXbtGk2dOlW5TxhJWpx3oKZF4SQGikXNQNHLKKAkJibKB+5U+4TRiQ0P6llFDBSLmoGilxFAQSEbytVR9araJ4y+rdevX9feEf5ioFjUDBS9jAAKWgesWLFCuT8Y1bJffvll2BaxqaQEyj4GStibgaKXEUBB/5GPP/5YuT8Y+ROMYKwkNVBuMFDC3QwUvYwAypUrV2jChAnK/cFYG+fgwYPa1tYQA8WiZqDoZQRQzp07JzurqfYHo3IWSVsriYFiUTNQ9DICKFgcCw8DqvYH1yigPMZACWszUPRioFSPGCgWNQNFLzMCBeeMBc6tJAaKRc1A0csIoKCRNB76U+0PxtKiWGrUSrIUUNDNnoHiMQNFLyOAUtYsT506deQSFlZ4KNArJVDQ45WBEt5moOhlBFBQh1JW2wJ0s8daxlYRA8WiZqDoZQRQUAG7bNky5f68HjdunCX6oHhlPaDYGSgwA0UvI4CCZ3m2bt0asMM9Fu86fvy49o7wFwPFomag6GUEUKDDhw9Tr169lPuEseznli1bLPM8DwPFomag6GUUUBDOvPnmm8p9eo2fZ2RkaO8Ib/kFChYOV31RzWwGSokZKHoZBRR0sF+6dCk99NBDyv3Cf/3rXykmJsYSTZb8A2U/AyWczUDRyyigQOh437VrV+V+YbQxGDVqlHWbVDNQwt8MFL2MBMqtW7cCnjuMXIpll9FgoIS/GSh6GQkUFK5tiY6mdu3bK/ftNWaDUDkbzglaJVAOMFDC3gwUvYwECnTz5k166623lPv29eOPP06xsbGy21s4ynJAOcVAkWag6GU0UFCTggXQu3fvrty/18intG7dWuZdwjFJy0CxqBkoehkNFAijjoULF8o1jFXH4Gus47Nx48awgwoDxaJmoOhlBqBAWKfntddekw8Gqo6jtP/5z3+GVU7FL1CeYKCEtRkoepkFKFBycjINHTo0aKig0jY9PT0sRisMFIuagaKXmYCCfEpSUhINGjSIIiIilMdT2ih+Q4k+nkzG+80qBopFzUDRy0xAgQCFU6dOSajUq1dPeUylje1Qpo/jRAWuGaUESgwDJezNQNHLbEDx6syZMzR8+HBZ2IYZHtWx+RphUufOnSk6OloWzJmtORMDxaJmoOhlVqBAKLl/4403qHnz5lS7dm3l8ZV248aNaeLEiXT69GlTVddaDignGSjSDBS9zAwUyNvdDYt/BZusRf6lS5cutHLlSnnsZpgNUgPlJgMl3M1A0cvsQIEQvmzatIl69+4t61BUx6kyRiujR4+mffv2yYpcI5O2DBSLmoGiVzgAxSska3E8LVu2DCqvAmO7J598kj744AM6ceKEYWGQX6C0MQlQvqv5rnUe3+3j7wnf47UARuNd6hzKJxfc9MAWO/1ys41+BUfZ6N81/1r499F2+oPwHzX/B7zV4z/5+M/wNjv9RbiWcJ3tekd4vcNOdRWuJ/zQTrsAX4kbfGuHXzf0tTjHh4UbacY5N9ntoEeEm2putsdBE5NclOEKI6B0FkDZxUDxKjs7W1bV9ujZI+i8Coy+K3369KHly5fLZTyqezZICZSzjkKactpFveNzqM+hEkf6uK90LvXT3D8hl54/7N8DFR5U2kdKPFh4iOahwi8czaUXNQ8THp6YSyOE/5HolB55zEnTzqpvosNZhfRusoveET+Hpwu/m5xHM4TfE56dmkdzxChmrvA84fnCC9I8Xqh5kfAnF2A3LRZeeslNy9LdtFzzCs0r4W/ctMrHqzV/KbzmspvWXnHTOs3rv3W+zht8neHxRs2bhaOu5tMW4a3C267l047r+bRTeNf1AtqTWUCnxe/QVWieeoWygdJZAGWXtnXVK9yAAiF0iY+Pl8cdqC+tykjwIgyKioqiq1evVttskBIoBeJ7mC3+Z8v32K7ZIV6D8TM4RzhXfGlhp3B+UTEVwOJCwIV3WMSJPhYv6S32DbOsJwZKxYXp4UWLFsncSrCFcF4jDJoyZYrsCOdwOLRPDJ2UQGGxqloMlMoJZfcJCQmyBQIgoToHfwaEevToQfPmzZN1L6EMgxgorGpRWUBBsRYDJbAQAmVlZdGaNWvohRdekLM7qnPxZzzljPetXbtWjnpCMRvkFyi+YQiLVVkBKNOmTVN+0WEAZRcDJSihDQJGGvPnz6eePXuWK2kLt2vXToZBiYmJVV67ogRKanYR/d+5PBqpJTvhlzSPEh4t/PJxJ40RfuWEx68Jjz3ppNeF3xAed8pJ44XfFJ6Q5KS3TnsSoh+k5MnPhj8UniX8UaonMQpjivfbBGlaHs0XXpDmlv5cS4SWToZ6E6Fbr+XLHE9p3XQXy05upX26tB16n/FjJK19nSxdpLe4hill+NwdLqQrzqKgnFHaLr2z8j05K7OIgVL1wtQwGjFNnTqV2rRpozwvf8ZsUN++feVskM1m0z6x8lICxd/Dgd9O4Qrrpm7Xe/x9YdR73AtvyKIfCv+b8H3CP9poo59vKpmqhX8j/NstHj+g+XdwNKZybfQHzXI6d6udam23U23NqqnarnE5dLFU7QXuqbWX8+npmGydO6ocq/czQbqTdM6d/qrEnYNyNnU/mBOUe5RhAPt6nnmIwkAJjTB7c/36dbnoOmZ1mjZtqjw/f37iiSdo/PjxsoS/KkKgcgHF7EadBv7y+wqX6H0xKlJtb2WbsbCNgRI6IdGamppKn3/+ueyfgkSs6jxV9tauAEqV7bliQaDoLwgDxRxioFSPUBB35MgRmj59umx4rTpXf27fvj299957MvFbUTFQLGoGil41BSgQwqDMzEy5UDs6w6E1guqcVW7SpAmNGDGCUlJStE8rnywHlGQGijQDRa+aBBSvcM3T0tJkCX/btm2V560yGjk999xzFBcXp31S8LIeUBwMFJiBoldNBAqERCtaIwAOGK00aNBAef6ljalo/E5Qul+eZC0DxaJmoOhVU4HiFWpXMjIy5GgF6/6orkFpAyrIq2BqOVioWBAod95EqH1RbW9lM1D0qulA8QpNrg8ePChrUOrWrau8Fr4GVFDqv2LFiqCgwkCxqBkoejFQSoSp4Rs3btCkSZOCCoHQa6Vjx460e/du7RP8i4FiUTNQ9GKg3CnUrqxfv56aNWumvCa+BlRQ5o8CuEBioFjUDBS9GChqIYxBh7dgalYQIr300ksyyetPlgIKupudZaBIM1D0YqAEFsr3n3322TJbTqJx09y5c/3mUywIFP0sD/TBOQaK0WKgmF9Op5MiIyPLfHoZpf3Hjh3T3qUXA8WiZqDoxUAJTghnunXrprxGXqPyFr9LVesDBopFzUDRi4ESvFB2j7WUVdfJa1TSot9taTFQLGoGil4MlOCFIrhVq1bJp5BV1wpGm4Q5c+bc8XQyA8WiZqDoxUApnxD6DBgwQHmtvMaazOnp6do7PGKgWNQMFL0YKOUTRinbt28POEpBsRsWbfcVA8WiZqDoxUApv9ACIVCCFk2yMYXsu+YPA8WiZqDoxUApv9Czdvbs2crr5fWECRN06/0wUCxqBopeDJTyCwnXQ4cOUZ06dZTXDMayHL7NmCwHFHSlLy0GivFioISnLl68GLAsH8/3oPO+VzUCKOgAr9reymag6MVAqZiuXbtGgwcPVl4zGOX6vk8hM1AsagaKXgyUiunmzZs0duxY5TWDn3rqKdqyZYu2dQ0CCtYTUr3Hqmag6MVAqZiwCBg66KuuGfzYY4/JpVG9UgIlhoES9mag6MVAqZiwLAeWPFVdMxgl+ujm5lWNAAqWPP3uOvV7rGoGil4MlIoJU8effvqp8prBWHlw3bp12tYWBArWJC4tAOUuBoqhYqCEp8oCSocOHcrOoTBQwt8MFL0YKBUTcihYTVB1zeCgZnkYKOFvBopeDJSK6datWzRu3DjlNYN79OhBsbGx2tY1BCizUvPobgaKoWKghKfwPM/IkSOV1wx+/vnn6eTJk9rWNQUoYoTCQDFWDJTwFNoToNZEdc1gXDeMYrxioFjUDBS9GCjlF54iPn78OEVERCivGV5HfsW3yZLlgJLkJ+T5HgPFUDFQwk9YZRBd2VTXC8aKgmvWlhS1QQwUi5qBohcDpfxC2T16x6quF9wnsg8dOXpE29qjGgGUjxgohssUQBnDQAlW3o5t/loXYKkN9ELB0hu+YqBY1AwUvRgo5RN6yvbu3Vt5reC2bdvS2rVrta1LpAQKytdHH3PSH6JtYZXMDASUexgohopDnvCRt+u96jp5jcZKGRkZ2jtKpASKr/KKiumi+GJuvJJPM5Jd9JIATfsD2fTLzTb64YYsund9Fn1f+B5hjAIAIKMexAsIFHF8qvdY1QwUvYwACpbr9Ldkp1mF4z179iw1adJEeZ3gli1b0uLFi7V36FUmUPwJ18lZKGCTU0jbr+XLatQJSS6KjM+lejvsdL8Azs822ehHGwEeG90r4APwhLJitb4foMxmoBiumgYUTLmiKCz1/HlyK1bYM6MAk6tXr1LHZzoqrxGM3MmLL74o10JWqcJAKUsuAZsURxGtFyOb/03JozeTnDQgIYda7nXQH6Pt9NstNvqFgM5Pv4WOZ4RTmdENA6XEDBS9JFCqMYeC2oz169fLh+cQPty4cUO5dKdZhOPF+eP3oLo+MBZS7/B0B9q8ebP2rjsVMqAEUr74nl9xFdHuzHxakJZH75x10ahjufRMbLYMW/6yzU6/F9D5VZSNfi6Ac58ATjC5HAkUuxooGB2p3mNVM1D0Mgoo+GysbYMS9R07d1DmjUxyu93aVuYQ6k2OHj0aECYwwqAZM2bIHIs/GQKUQCoSw66b7mI6dLuQPr/klqObUcec9OR+BzXe5ZDQqL3dTr+LttGvNeD8QIMFA6XEDBS9jASK140aNaLhI4bTjh076MqVK+RyuQzNsWDEhONYsmRJmWsZA4ojRoygy5cva+9Wy3RACaQCcfEz84rouK2QVn/jprnn82iSCKX+9nUutRKh1H/H51Bq9p030cdiOwaKsappORQVULx++OGHZeNnTLsiAXr79m25fXUJvwuABG0HcBx169ZVHqfX+Hm/fv3o2LFj2if4V1gBJZAKxL1jzy+Ws1KltTEjn56OyZb5G4xi/rTVk8O5b4PNsm0NGCh6mWGEUtpIcGJlvvfff1/e3MnJySHLtSDMQgf7U6dOyeMaPXq0BJvquHwNmKAexXepjECyDFDKklvcW984i2hvZgF9IUKpD0QoNTwxl7rF5UjYPL4/mxqJkArhFOpvfrLRFtZ9aBkoepkRKL6uX78+9enTR+YoNm3aRAkJCRIwCDHQ1zVQ3sJXCKEADxSm4XwwAoqPj5fHMnnyZNkQqV69espjKO2IiAiKjIwMGiZQjQGKP2FAk11QTBdyPLBBKDVPhEivnXTKEKqrAA6qhhuKkU2EgA1mqDAzZfaRDQNFL7MDpbRRiTpw4EDZ3GjhwoUyPMLC5Pv375cNjQCJxMRECZ6YmBg6cOAA7dy5U8IIs0p4qA/n1L9/f7lQF+Cg2o8/A3BDhgyR+ymPajxQAgm0t4kw6qStkDaLsGmVBpsJSU4adDhXAqdjbDY134NQyk5/3uapvzFDmT8DRS8jgIJeqw0bNlTuryJGiISisjZt2lCnTp3kqn1dunSRjaJbt24dVAgTjPFZeE4nNTVVO5vgxUCpoDCycQjYYC3lndfzac1lNy2+4KZpcgrcSc8L4CCcenRfNj0sQimMbFBrU11hFANFr+oGCv4YJaek0JSpU6hr165VCpZQGaFQ37595awPQqaKiIESAmEmMEeEUedzCuWiaRvE6GZRGmakXPTycScNPZJLz32dQ21EKNVst4NqiVAKsFGBoaI2JVDeMRooY5T7hqsaKFCx+C8rK4v27t0rGxGhFqVVq1ZypKE6BqOMcAi9Yd99913ZUKkyU9kMlGoWZqMQRp3LLpJPdW+9lk/L0t2yuO/1k0568Wgu/edXOfTYPgc1FbBBkd+PN9qU0Ahk0wHFXfOA4isUj6H3KhbFmjRpksxtILTw1x6gOoxCNYxIkAhGHgbQr6wYKCaSGNTQDa3OZp8GmxUCNni4ccppF40Ro5u/iZFN2wPZ1ESEUSjs81dBbDagYCp0+fLlsp5BZSQfjxzRN+upSmE6ds7cOdSvv9ifzv3lzb1o0SL57E2ohb/+6MGKhCoSrR9++KGcwkUjo+bNm4d89NK0aVPq3r07jR8/npYuXSqveemeJpURAyVMhKK+W+5i2Vriq5sFtE3ABpXEWGZ12hkXvXrCSZECIkgSt9jjoFfEvzFNbhbhYTlMgaLEW+UzZ87INWBCJUylXrh4Qblv+NKlS4aUxKNaNi0tjQ4ePCgBM2/ePDmCQXiEGpUWLVoowRCMkRNBwrZXr140atQoWe+yevVqOUuEhwBDUUzHQAlzIdzNK/Q8rpAswqiE24W0V4xujmYVUq54nRVe8hagITyKi4ujqKgoWrZsGS1YsIBmzpwpZ1/wtO/QoUN1HjZsGL366qv09ttv06xZs2R7AcADZf6YWj5//rysZwHYQykGCotlciFMwkgGJfoomUfBG0Z0vsZrFy9elGGbw+GQYKpMcrWiYqCwWKwqEwOFxWJVmRgoLBarysRAYbFYVSYGCovFqjIxUFgsVpWJgcJisapIRP8Pkf6SWDM4ihgAAAAASUVORK5CYII=;" vertex="1" parent="1">
          <mxGeometry x="551" y="348" width="68.5" height="32.51" as="geometry" />
        </mxCell>
        <mxCell id="_aATQ9_5qBSlt04u06Cs-23" value="&lt;font style=&quot;font-size: 18px;&quot;&gt;IIS Web server&lt;br&gt;&lt;/font&gt;" style="text;strokeColor=none;align=left;fillColor=none;html=1;verticalAlign=middle;whiteSpace=wrap;rounded=0;" vertex="1" parent="1">
          <mxGeometry x="636" y="348" width="98" height="33" as="geometry" />
        </mxCell>
        <mxCell id="_aATQ9_5qBSlt04u06Cs-24" value="" style="shape=image;verticalLabelPosition=bottom;labelBackgroundColor=default;verticalAlign=top;aspect=fixed;imageAspect=0;image=data:image/png,iVBORw0KGgoAAAANSUhEUgAAAOEAAADhCAMAAAAJbSJIAAABblBMVEX///8nd/8knv8llv8llP8lkf8ljv8ljP8kmf8knP8miv8lkv8llf8miP89hf8mg/8mhf8nfP8mgf8ZbrImfv8bU7Imdv8bXLIbWrIbYLIlof8bV7J2dnYaZbIAbf90dHQaZ7Lx8fEASq9SUlIARK0ZarKwsLDh4eEATq7E1v+WlpbX19fu8vl+fn4ATK7Jycnm7v+2zf/b5v+lpaXN3f+lwf/p8P/1+f+ZmZlpaWm6urohdd2ZrdUQcP/Dz+ckb+4AP6wiZ9weg9McesUgjuWRtP9yov9dlv/U4v9yksiux/8dYsE1abiHndBzjsrL1eofcM8dWsBZhMKCqdFYj8TS4O6Grv9rnv+Unq6xx+cvWY9dXV1MXHVZhcAgcdUjdelJdL5pnd6du/8fdtNvtf8NZecAUMKJwv9Idcxoq/9fgssif+ifzf8AL6gAY/+VqNVTkOVynck5frtYdLFbbJAAJ28YTJwRPX9udoabudn2pwhSAAAXuUlEQVR4nO2diVca2baHxYFJAasoppREJKCggIAoiQOKcSJOcUAvnY56NcONdj9ffLcH//t3hhqp6RRFofcuf91rdWLSUB97nz3VOUVf34te9KIXvehFL3rRi170ov8iVReKxXIlWyqVspVysbjw1NfTRRUr85tbPj/NUEAMFPoF7fdvbc5Xik99eZaUq8xvbUMYGuCoCPwc0G5vzVdyT32pHWihdOanKA20dlCK8p+V/pP8tpo98yI3NCFgTe9ZtvrUl06iauncoUIHHBKtP04Mo2JemnGcl547ZPacacMDXA6HIwzlEMX/HrDKKRl6K/vUENoqbjKMHM7RBqYi+BdkLk1T9PXzjLDZbYpuo9Nnk2E6pMZkqO1nZ8jqvJ/qkE5KKX5ElP/DUzNJVb0W3RPimaYTKCWmZJj55xJ1AB//2dNW8ARI/tUYev6p2ZDmBT7GMh4PyYh2fGq8vqyPvxrr5pMy8qua8T9tzClvU7x7dg+Pg+SdldouPx3gJtVd92xjdPCMm0/EV/HjK6Bt4ZMy0v7KUwBuMTbzIUbOS6iznvPt+AP4re3kkzDS/p3eAm4yfp8PLsBeiOn9asxtB3xAfqongPxyZLZ7Ngqo0KMQsDcGxIzYVZkeBZx5GhsQqmeI2IxUT0qcLeShNNes9wqRMyN1bjtfdRt7KNVrQmBGFFO3bW44il6f1+v1S0YuvUN0hBmUNmwdyu2MAj5vgJIOlXppRuSpjI2ZcScAAeVTsydApGwLqZVRl8sFAfnR/BN4KlqMlE0dFQZkmKclRGnDHkQE6GNo3oZPxYjijR2OuuNzOp0+GkrFir1H7Hq4KYuAAuHTWrHDzn9mcXFxcnJyTtTbt9PT02//4USAARnik61FFFLpTvLizBhSXinANwQAAwFtK/Yc0W++upkaz+cx4zjQmER3KM8bqceI9LZpwrf5/NuZmSmgCblyC0hFoPJOpZItfZi/3jzbOt/20eGVFf4uUs/XIr1llhBY0PSn0lctVkrzZ+c+CrH2FtF0MwUIJ8wj8sqVs/Nb3pXXvQIN0+bT4iSIMYuzszPASTsHXcheb1MQsyeIjLnBxgQgHB9/hwVCTX767dzkYqvWXDA7ICmWzgCl7bYE8dRktJmYfqPQL7FYLJTJsHvHjf3l2mGuShqjc6UtSGkzImN2AjcH0jtYju/efeIAf40nEoAxFolEoyzLZjKhyN5VY7l1SJRvy9e0nZAwZ5gt36ZmcVEziQubt9OJRCIe4xTBgqihTCEZvW081ppGDlyc99sHieo3c4ScJiZAUpyZmZ39HOcAIxGBUA6aidzetw71Ia+p1zYxgmhDWxr47wwPDMDJzN3S0sXH3d12RCRs0L3G46GOOXe27IquFjupkcEBl1eQzzc6enkJYHelhJiSDRWShUijpUlZ/QC81QZCqlM/Rfo+PDDEsSGNCgoEAOrFroQQCWBGj5ebGi9XPrPBjGAp0h3f0Sg7BwYF87UhYswADUB3d6WQyJgHGrb024HYea/Y92NkwOXSQgzwgs0UDThZEZLNJFORfZXwYwchXIrmuwyk7NDAkECohUiLYi4vj5ARQ6BCyBRSa2sKU9pCCPy0w8mUewCY0ACR33KI3gm9X/1i7+r2oLF/v7zcarVq8grIHhuGOww2vw26nS4lImLjwWjf9vnW2fUHuHl7p1xcMKro7CEE8bSjfTfD7kEXJz5VIJ8c9Q2fA6jsTtn8oMQmQpD3KXMjjYmp2cl/ut1w+gTwABtAc53/gFhFS7d+bCIEwYa+JoabnZyGw5q/3e5hyOYd6v/y3SqY7YQg2DDGVzgxtTg3PTaORm1jY+uDA1tffqsYrqznQWhsxKnZuTw3RhwbG89PT86WbbkRaR8hpWfEqbn8ODYcgJtbnDE1wsjlms3DGsgLrWWJHh/hT9pzRV/ftm2EYZ1wOjcO6cbHgOGmCJCquWat9bi83zi+irGFQgYrJAok+2Rqjb29rylj7ZlK7W24E5xMlGZOnB3Pj+UN4XLNw9by/uervRgbAmULLEQjEbVmCpSlhch+TaPF+KAkXPFvMd1okcOahQ2w36y2vQDXz0YwBpkQRkymdkJQj+5p0kEVXysuDE51y5tdaJEpreo0n59W/GyiWXs8OQ3GY1GOKR6PqQj8oQSQLbBaLYUoRahZKeE/qJxbNSQwovohBgnhBMj0i9P5d29+gaOLuFxtdLsfP15cLC0tXV6iKo6hhq5JWphsuxHDwtaK3LXDkiHDlEafCPL729lZmArFCWIwmEjEVQgB1d3dnVdaqEI+hj4vkU5UtxSIK2IiK/ktMfpp1becApHmk3xE+ms6LSHcu7m5ubtzunAN52prNADeWcUgd4LwC+LvIY/YBnGUPFoWbWyBMcww6rFmJs+Bffr0Do+5PwfhDBGCDQ9hOZ0cn7zTGKVHz7THQLnD2vL+8R5bSCKxvKHCsoBaBwkmVVgWPiQrjH6Nm1ET0/Au79wcGpIuzs7MbGwMDw6ODA4ODkvwBELeiqM080MDb6G23LiKJmG2DIW42UYoVeNNeiYNKqsoiSaT+4Kfg4+gM8YwTWt4E7y1DcD4GzIVj3sQ4g3LLSizoi8QUD9jtlDbv0oWMihpslKFQleidc9W4F0NnOsxYii5diBUCNcdIlIabtquL57BQQ1EjnCUHlE7J9h8PI4UMrgeaBvCQaUkM7hqdnPbT1HhldcAtc4xpgTGhe2OXDVMeM90gCPUsKJ31LepTDzNx8+hDFcXiHy7u0eXQKsURTGrmQOVN8tV5s8dr78eIcbC2jH/KWQdHQxXw4yDBLDiGRjRRAR85wpPqNYaMUAnrW92d0GmhAdFaXHPxlFKK+aW57e/fisgxtQBvx4VQZdAZG763TMyooHo8vkUhx9zj8eQTqxuABs/g5PvSakXllXfECu79S2ZQb56z//E/GoMEw2HX0FCNUSXz93+CeWWr1g2ItSo0YtLflIs23fDQYZC+u+c/VcKGjLJclG3uq0oY40IKa8x4ILHPTCgguga/dFWllVbx9B4mC8WAXS+9jmqnPDrsVFbvXO7BhnXDri/eG3WUynKeDyW7R8YUCK6vF/a/tfaZwEPVKlL4ig1oIKIthaFS8afb99CI5kEZsxwFVDFpKeGGeM3+e4ZaEcccvq+y+vO5s9YVCjCP975vNJRsRoiQzlowuPLuf0UYEztc8SUqZgaJjg+9AoTiojDTud3mXdVW2kpnmxWrDLwx4QOE7cWqvvAjqkr7k23TSFShtNvtAyliENeOR8wXyQW5/H4abEcMaBANAMIGe9TAJJbF4p2RB/RaCGCbChFHHJ+kfln7TjKdY4CnkiojUg5298nV2vd7x8cHDTuW6r3jqvAV/ki6NoEYtjwJs1vHrdbQBx0/pB+IrnHeIRrjPfuXE5Jo2FwZ4oJyINocz8CbFSAAk1HKsU2an0K5Q7WeMR5csSw4U6wL243jzgy5JHu5Gg2eLz4jXOIK1K9BvcXMWFYFmRaeyjtSZVMFQ6UtxubV79zHcemibVoVJr+cPOIg8O/SX5eexDN5xT7RS/J/UWH9OEBzb1kCN1jZPF/RMjQvcJda4XfM1dnHyoL5IRhlz5g1ePmEJ1fJJ7VSsfiuO2/GRoekncaWlYU1iIjjTKtVIhvp46wpJC3Cm9tLTdu/eH/IU+LYUqfsMwRDvaLBUx1OQb5UN+P0r9Kv6iH6JCs5f0kojuqS/fdrtZ5zEKqoDQkVIkYMezQ3yRVwYRD30W+kzjGS+zdgdyh0/VrIDKSHIwB68LuafHCVo90DNmnMqTTJtQPpr9hEwoGzP2McHw3gyODel2/5lqUJKhlABitMxrnwnhLFlLssrKAJb7lEda/CfXdDYzYz79+8zQWh3M3yDeg2/VrW5ERY1sxxUZZvR3+q3XekMlGu7NWiI2o30B9cXs8bu7Fm59jiTRUYmNgQK/r112Lkr2De2x012iHP2/I5NpB28YjmtCIYf3y6RWw4Sv0q9YDx/ceFDlaLbGAqG1Fn/DarUJ0l+BY2KrgrPKpR4nQiGH9yvSVx+MZKIPqJRFPYz6UGzW7fkNEyQ7XmCqg2g5/zllTt7JrI7y9Gmb0AKv9gNDjXo9j86XXhfrGCFEr9YsbBw8LUUXXr3lOAxsyJVuMhCsx7NDrsxcgoGc9CIT4PO62TkMn3KgjiveeG+ylmQNFkDElzxtq91dVCMN63cWCpx/8A/mC6Q23R6xRSRxVdQ+cWENFdwPmjoWtHhX25ZfnIvLTFb1Wu+zu70eE7zc8fP1mwopKxICQKxYylwF512+I6KhnZFf3gcxNV/Ru8+1Awn7PBjCkAEhuRa8SUZzu1Y7aun6KMT4XVtiT2qNK9piRFb09wxVECCE9ZhHV16L4LKvlevtgg+Bw31EmJU2LVZpkJa7olW0coQerC4i00Djd04rZjfHhvjqc9F9J4s0mwXhRl7DlkdiwG4gi4T6tHE8ZJw2uTm0JV1g0vt+/0lJlayPsCFGlgAsIXnpNq0zgjFK/kPv3RF8tbvr1fVWf0C0ntIwoEs4zqtNww8WIa7jMmiRxFDe7QdiltTgqxNIsozEqNs4ZnBm52qFkdKpBl7AmElpBFJPG6P/yL12mdAb+JIwFFiEa3ztdUeugeR1KCK2sRRHxTnhtWnPgb4yIGAt7IF9Ek3UDQMdrPcKmjLATRJc89XsvheJ5K6Ax8CdJ/Wg9Jg/69uAc8kgf8qvWiRao3IYKoaW1eCl8oGAhqg78idYiNmMSAdZX9W34VW/3UhuhGUQNP738Kbx4QOOeBum5foCYAXz6eIaE6/39aoydI/piwovP05p3psjMCBejMaDjm+4OtPVX3UCU5kVWnNbr3HwzTP0cIgGg40gPsO+9BmHHiK7dhvDiFUoFUS31a148CaAB4UM7oOW1uBQVnWaTUbn5ZsZPSRTe0yU88XQVETJGJPXWFq2N2K3HiIT3tfEg4YaS0MpaBKkxlpGs/C1SK3bO+FWfsKYMNeYQFanftRQ5lrzBvNpaNJX6DQn1ShpQ1ChDjUlHVab+GCt9zx0nE1BY0VTqN9A3/YPl1bgqoaW1eBFjZRmq5KTogJXUr681g21JQVVAAkcd1o6osciV/E3K10MM+kIWgKZjxY4Yw1F9wL5T1VBDuBYVjQZmXIrJliJ2lp3s/PWPc+eogIGYrCN+vVXDkuhRPdSQOKpaL4XDTSwW/az5jtWFnZ0d+Nyi67NzH4O+c8AK4bd7zXfCqiW0CK2sRYCosKK60HN8XGind2eIKf1QCt4hoQVoBfEuFoskzDzkppjd9EJM84gpw7dJay5EsrWomvqdF3ADqtGn26ZqZdP8gybabgSo6ad6RjSNKE/9zo+xWIz9bPphztXStrlHhnxT20wuVyttTNhB6keIEfbe/NFUAGnCkkm9QRvWQlzPTTtfi84ltJc41NCbomhd0zVFaMjVNYIj9A+a+YLMUTVT/x3eL83GGiqnS42UJTuBUY8QvNaJrpuSrUWN1P+R2xTOhiLHjeVWrZkz4bTlcwLGpH5jgVXTyRdkjqqV+kVGQIkeTgQPacT2ruBjxB5rhg/XKhvacdUwGyLFDdzUUhl+JzCK52yj3GPECpk97cf3IO349BnrRmU31qmRm1oabLi8apDCUdtQpnDc0rnMku5poYxRUYrV0k36xGtRY98NaBgB5NLHjyqA/Hnp0L6Ow55pm3GVIFdAVdO6SV/djMSIsidr3S0BXVxciI8Rw0fCQqljbW8tax5Q0D5Z1abTtCGghfuLwhFNmUBHDJ8jtiuc6y9I9+615LtOzzU2ZRTInBRGU6NYY8lRNbeGw9nGaOCSe4JYKCk5CNb6/Vg6nPig6qn1FJmTAiU0O32riC6pFTVOogRoDMlmYiJVbS11JWFUPS0USpECgqS/QWDELqxFDcQAZ0hWksBrqVDqVvTVsvJpGvX2LVQ6asaJjNgRIgY0siL4FzFmIkJUbaXYTEps4IsKxFDKRMn7EDROGCqEXViL4gQucIkjjrC2llMsm4wIFMU2R13N6I/z5aolgiRuaiUvGjgqmr9dIk8V7LZfgIfehfjTthvziKxi4xUkM6LF1G9gRaBdlDf4q7rNgFI2JUx8ZIeFVjOsOoqGHtOERrQh3MgG/pcQUWC6PAJWLET4gCPdvy9LLgSqpoNE4bSLqV/DihAxwyMWw3V0lIjbsZgTjVgPkdYzvE7SZOHUiqMShBvOUwXEUng1BBCT/KG2FdGERnNSFSOSFDYdI5KlfgFRSHXnDgp5KueoTJg3YdL0BMiEEbu1zU9rLUJEfpVVKYqqA0S8QUo4LGTehOClEkGCFsOiFY1TP9YFSBpczZZdgYgsn/zwEYUjEwWbKBBOCTOGzakfW5ENcY4J/JRaBbkf5xB0zmS1ExP2wZxImjGsOGpb6tc6SwwQr/Bl5cIUROSPKsC93yGjpzVoCBQ2xMGme6lfG5F/rMZ1GK9FHFtAOAWZgrhtkushSB5suhdutI5Lg2jD5Qj0vX11LktWV1bRrsWOBFoM8mDTxa5fK/WzHEgJGhEkjRQKPmfJUEr/1r2OTkwkxS6GG03EwiO+LvztkmwIER+mMv/XKSAKNsTxtENHVUv9Goi7LLc1J4uMuMriYBMKWfhqFRBszCxFu9diNNSQGrGOH67V+Lf2kx+NdZo2sxQ7v/nWnvrVrQj8FBsRr0QKd/XNsbHJzgn70kHSJqNzRLJD79hPOSPizQyXGfjbifH8WwuEIJ6aQrQ59UeT3GMkECLD/mGdEMZTU0vReurXQ1wK4fKsGEYbb/786999fZN5S16K8n4H0caucBPl6jMn3CDGsn/99ebNu/y4hW9v6oP7T4Kmok0XUr+OFZcyuED74KCYXZb9882nN5/GFy0BgpQa7xkiQbiJ4sImF6aPQIPRegdsOGMREPRRwIomapt+K6nfCDFwUcAl2jZoEkHPNDM3aR0QZcUeIBI90idAcwnjPsOG4K2mKZJHdBvrwWRatJD6NXtijjCwG0JdU7PAdtpRqKkKT+jbj0i0Fi+5WMOy+S4S9uXSZhFtqFE5RK7ZP/57rDsOygnWNr1aiwaIS7iuWRyzUnB3BdG21P/nP+AFzYzlrZUyCtV6g+gysuLoxV+/wOsB5ajyafJdQHxv3k+7ijga2I38+Qdy046+NpUA0f4y3CVjbEeED/P9A5Vp01brURU1MWJvmik1RN8l2nPzK3LPuXx3gylGTJtNjB2HG7XU71tCe4r+HnsDLwYE024UbG3KBdMmF2P31qLP9xECRnLT+TfQPWe7nS6wqg9ps57aJUSvD36fBntVBS3vJ2i8mbExq22Tuk4TnXmqxbzoXYpFYrEQnHMvjr2btZOw7xHFm/fkZuxC6vf6duE+xgy6dTE7hnpe+wj7DpEVTZjRBKJT3VG5bfC4NZwaQ7nepnWIlMOLkdyM1hBdXrQZlb3i92CM599MwYw/3v1sIegk3pEZO0F0eS/QVtuQuGsNLMQ3+U+f8l1tn9rVRGnDBGMniOi0DXeIISK9vzQNvzfmk50mhPqJzUjqqp2FG44vFmrI3xx+gbgNFU2bDjkzEjJ2sBaHnHg3eDSm2LI2OTfX9aJURdxqNMdIjDjkvMFPRmdPlG89QfQlcdbVfOAZTWy51UUc4jV8d4OfjB696uCkVBdVCyZ4RmNDkjgqxhu628N8kbjJU4s26DGBl2MwuG7ISLQWAeUN9z1hkYi5DYc2qXoiMBoa0hhxcJAzH/witGfBB1U9SfOMhpB6iCMDgyM3Ce4b0WIRlSdCP52qj8GEDFKbUgMRaPDuBj9ZGyBGEo/PiQ+p9hAXGMGa1KRUOCrHydNBwMjx08cXNTVP0gkJ5HtEqcRsQwS/2Fh/j56qjfFisZOnzQ+6qp2mE0GpACbckfPqlYxVgNzYWE8Lwninz9N8oqqt07jUkhzo+/V1wCoI/O79e/w8ZhEQBJfPemcPn4+qtZ/BeFpB2S70FyR4wZ+K7w9+zlp4/BlMJIwxg4gunvj5aP5899MrV3s8fYhrcnKmezh91PuC3f8ANWsnJ6eAB4QRGCpRxITYweDpyUntGUdNs6rmcjn8Dd61w2ZuwcxJ/Be96EUvetGLXvSiF73oRc9f/w9q3llfOwVfBgAAAABJRU5ErkJggg==;" vertex="1" parent="1">
          <mxGeometry x="97" y="101" width="81" height="81" as="geometry" />
        </mxCell>
        <mxCell id="_aATQ9_5qBSlt04u06Cs-35" style="edgeStyle=none;rounded=0;orthogonalLoop=1;jettySize=auto;html=1;exitX=1;exitY=0.5;exitDx=0;exitDy=0;" edge="1" parent="1" source="_aATQ9_5qBSlt04u06Cs-25">
          <mxGeometry relative="1" as="geometry">
            <mxPoint x="465" y="323" as="targetPoint" />
          </mxGeometry>
        </mxCell>
        <mxCell id="_aATQ9_5qBSlt04u06Cs-25" value="" style="shape=image;verticalLabelPosition=bottom;labelBackgroundColor=default;verticalAlign=top;aspect=fixed;imageAspect=0;image=data:image/png,iVBORw0KGgoAAAANSUhEUgAAAOEAAADhCAMAAAAJbSJIAAABblBMVEX///8nd/8knv8llv8llP8lkf8ljv8ljP8kmf8knP8miv8lkv8llf8miP89hf8mg/8mhf8nfP8mgf8ZbrImfv8bU7Imdv8bXLIbWrIbYLIlof8bV7J2dnYaZbIAbf90dHQaZ7Lx8fEASq9SUlIARK0ZarKwsLDh4eEATq7E1v+WlpbX19fu8vl+fn4ATK7Jycnm7v+2zf/b5v+lpaXN3f+lwf/p8P/1+f+ZmZlpaWm6urohdd2ZrdUQcP/Dz+ckb+4AP6wiZ9weg9McesUgjuWRtP9yov9dlv/U4v9yksiux/8dYsE1abiHndBzjsrL1eofcM8dWsBZhMKCqdFYj8TS4O6Grv9rnv+Unq6xx+cvWY9dXV1MXHVZhcAgcdUjdelJdL5pnd6du/8fdtNvtf8NZecAUMKJwv9Idcxoq/9fgssif+ifzf8AL6gAY/+VqNVTkOVynck5frtYdLFbbJAAJ28YTJwRPX9udoabudn2pwhSAAAXuUlEQVR4nO2diVca2baHxYFJAasoppREJKCggIAoiQOKcSJOcUAvnY56NcONdj9ffLcH//t3hhqp6RRFofcuf91rdWLSUB97nz3VOUVf34te9KIXvehFL3rRi170ov8iVReKxXIlWyqVspVysbjw1NfTRRUr85tbPj/NUEAMFPoF7fdvbc5Xik99eZaUq8xvbUMYGuCoCPwc0G5vzVdyT32pHWihdOanKA20dlCK8p+V/pP8tpo98yI3NCFgTe9ZtvrUl06iauncoUIHHBKtP04Mo2JemnGcl547ZPacacMDXA6HIwzlEMX/HrDKKRl6K/vUENoqbjKMHM7RBqYi+BdkLk1T9PXzjLDZbYpuo9Nnk2E6pMZkqO1nZ8jqvJ/qkE5KKX5ElP/DUzNJVb0W3RPimaYTKCWmZJj55xJ1AB//2dNW8ARI/tUYev6p2ZDmBT7GMh4PyYh2fGq8vqyPvxrr5pMy8qua8T9tzClvU7x7dg+Pg+SdldouPx3gJtVd92xjdPCMm0/EV/HjK6Bt4ZMy0v7KUwBuMTbzIUbOS6iznvPt+AP4re3kkzDS/p3eAm4yfp8PLsBeiOn9asxtB3xAfqongPxyZLZ7Ngqo0KMQsDcGxIzYVZkeBZx5GhsQqmeI2IxUT0qcLeShNNes9wqRMyN1bjtfdRt7KNVrQmBGFFO3bW44il6f1+v1S0YuvUN0hBmUNmwdyu2MAj5vgJIOlXppRuSpjI2ZcScAAeVTsydApGwLqZVRl8sFAfnR/BN4KlqMlE0dFQZkmKclRGnDHkQE6GNo3oZPxYjijR2OuuNzOp0+GkrFir1H7Hq4KYuAAuHTWrHDzn9mcXFxcnJyTtTbt9PT02//4USAARnik61FFFLpTvLizBhSXinANwQAAwFtK/Yc0W++upkaz+cx4zjQmER3KM8bqceI9LZpwrf5/NuZmSmgCblyC0hFoPJOpZItfZi/3jzbOt/20eGVFf4uUs/XIr1llhBY0PSn0lctVkrzZ+c+CrH2FtF0MwUIJ8wj8sqVs/Nb3pXXvQIN0+bT4iSIMYuzszPASTsHXcheb1MQsyeIjLnBxgQgHB9/hwVCTX767dzkYqvWXDA7ICmWzgCl7bYE8dRktJmYfqPQL7FYLJTJsHvHjf3l2mGuShqjc6UtSGkzImN2AjcH0jtYju/efeIAf40nEoAxFolEoyzLZjKhyN5VY7l1SJRvy9e0nZAwZ5gt36ZmcVEziQubt9OJRCIe4xTBgqihTCEZvW081ppGDlyc99sHieo3c4ScJiZAUpyZmZ39HOcAIxGBUA6aidzetw71Ia+p1zYxgmhDWxr47wwPDMDJzN3S0sXH3d12RCRs0L3G46GOOXe27IquFjupkcEBl1eQzzc6enkJYHelhJiSDRWShUijpUlZ/QC81QZCqlM/Rfo+PDDEsSGNCgoEAOrFroQQCWBGj5ebGi9XPrPBjGAp0h3f0Sg7BwYF87UhYswADUB3d6WQyJgHGrb024HYea/Y92NkwOXSQgzwgs0UDThZEZLNJFORfZXwYwchXIrmuwyk7NDAkECohUiLYi4vj5ARQ6BCyBRSa2sKU9pCCPy0w8mUewCY0ACR33KI3gm9X/1i7+r2oLF/v7zcarVq8grIHhuGOww2vw26nS4lImLjwWjf9vnW2fUHuHl7p1xcMKro7CEE8bSjfTfD7kEXJz5VIJ8c9Q2fA6jsTtn8oMQmQpD3KXMjjYmp2cl/ut1w+gTwABtAc53/gFhFS7d+bCIEwYa+JoabnZyGw5q/3e5hyOYd6v/y3SqY7YQg2DDGVzgxtTg3PTaORm1jY+uDA1tffqsYrqznQWhsxKnZuTw3RhwbG89PT86WbbkRaR8hpWfEqbn8ODYcgJtbnDE1wsjlms3DGsgLrWWJHh/hT9pzRV/ftm2EYZ1wOjcO6cbHgOGmCJCquWat9bi83zi+irGFQgYrJAok+2Rqjb29rylj7ZlK7W24E5xMlGZOnB3Pj+UN4XLNw9by/uervRgbAmULLEQjEbVmCpSlhch+TaPF+KAkXPFvMd1okcOahQ2w36y2vQDXz0YwBpkQRkymdkJQj+5p0kEVXysuDE51y5tdaJEpreo0n59W/GyiWXs8OQ3GY1GOKR6PqQj8oQSQLbBaLYUoRahZKeE/qJxbNSQwovohBgnhBMj0i9P5d29+gaOLuFxtdLsfP15cLC0tXV6iKo6hhq5JWphsuxHDwtaK3LXDkiHDlEafCPL729lZmArFCWIwmEjEVQgB1d3dnVdaqEI+hj4vkU5UtxSIK2IiK/ktMfpp1becApHmk3xE+ms6LSHcu7m5ubtzunAN52prNADeWcUgd4LwC+LvIY/YBnGUPFoWbWyBMcww6rFmJs+Bffr0Do+5PwfhDBGCDQ9hOZ0cn7zTGKVHz7THQLnD2vL+8R5bSCKxvKHCsoBaBwkmVVgWPiQrjH6Nm1ET0/Au79wcGpIuzs7MbGwMDw6ODA4ODkvwBELeiqM080MDb6G23LiKJmG2DIW42UYoVeNNeiYNKqsoiSaT+4Kfg4+gM8YwTWt4E7y1DcD4GzIVj3sQ4g3LLSizoi8QUD9jtlDbv0oWMihpslKFQleidc9W4F0NnOsxYii5diBUCNcdIlIabtquL57BQQ1EjnCUHlE7J9h8PI4UMrgeaBvCQaUkM7hqdnPbT1HhldcAtc4xpgTGhe2OXDVMeM90gCPUsKJ31LepTDzNx8+hDFcXiHy7u0eXQKsURTGrmQOVN8tV5s8dr78eIcbC2jH/KWQdHQxXw4yDBLDiGRjRRAR85wpPqNYaMUAnrW92d0GmhAdFaXHPxlFKK+aW57e/fisgxtQBvx4VQZdAZG763TMyooHo8vkUhx9zj8eQTqxuABs/g5PvSakXllXfECu79S2ZQb56z//E/GoMEw2HX0FCNUSXz93+CeWWr1g2ItSo0YtLflIs23fDQYZC+u+c/VcKGjLJclG3uq0oY40IKa8x4ILHPTCgguga/dFWllVbx9B4mC8WAXS+9jmqnPDrsVFbvXO7BhnXDri/eG3WUynKeDyW7R8YUCK6vF/a/tfaZwEPVKlL4ig1oIKIthaFS8afb99CI5kEZsxwFVDFpKeGGeM3+e4ZaEcccvq+y+vO5s9YVCjCP975vNJRsRoiQzlowuPLuf0UYEztc8SUqZgaJjg+9AoTiojDTud3mXdVW2kpnmxWrDLwx4QOE7cWqvvAjqkr7k23TSFShtNvtAyliENeOR8wXyQW5/H4abEcMaBANAMIGe9TAJJbF4p2RB/RaCGCbChFHHJ+kfln7TjKdY4CnkiojUg5298nV2vd7x8cHDTuW6r3jqvAV/ki6NoEYtjwJs1vHrdbQBx0/pB+IrnHeIRrjPfuXE5Jo2FwZ4oJyINocz8CbFSAAk1HKsU2an0K5Q7WeMR5csSw4U6wL243jzgy5JHu5Gg2eLz4jXOIK1K9BvcXMWFYFmRaeyjtSZVMFQ6UtxubV79zHcemibVoVJr+cPOIg8O/SX5eexDN5xT7RS/J/UWH9OEBzb1kCN1jZPF/RMjQvcJda4XfM1dnHyoL5IRhlz5g1ePmEJ1fJJ7VSsfiuO2/GRoekncaWlYU1iIjjTKtVIhvp46wpJC3Cm9tLTdu/eH/IU+LYUqfsMwRDvaLBUx1OQb5UN+P0r9Kv6iH6JCs5f0kojuqS/fdrtZ5zEKqoDQkVIkYMezQ3yRVwYRD30W+kzjGS+zdgdyh0/VrIDKSHIwB68LuafHCVo90DNmnMqTTJtQPpr9hEwoGzP2McHw3gyODel2/5lqUJKhlABitMxrnwnhLFlLssrKAJb7lEda/CfXdDYzYz79+8zQWh3M3yDeg2/VrW5ERY1sxxUZZvR3+q3XekMlGu7NWiI2o30B9cXs8bu7Fm59jiTRUYmNgQK/r112Lkr2De2x012iHP2/I5NpB28YjmtCIYf3y6RWw4Sv0q9YDx/ceFDlaLbGAqG1Fn/DarUJ0l+BY2KrgrPKpR4nQiGH9yvSVx+MZKIPqJRFPYz6UGzW7fkNEyQ7XmCqg2g5/zllTt7JrI7y9Gmb0AKv9gNDjXo9j86XXhfrGCFEr9YsbBw8LUUXXr3lOAxsyJVuMhCsx7NDrsxcgoGc9CIT4PO62TkMn3KgjiveeG+ylmQNFkDElzxtq91dVCMN63cWCpx/8A/mC6Q23R6xRSRxVdQ+cWENFdwPmjoWtHhX25ZfnIvLTFb1Wu+zu70eE7zc8fP1mwopKxICQKxYylwF512+I6KhnZFf3gcxNV/Ru8+1Awn7PBjCkAEhuRa8SUZzu1Y7aun6KMT4XVtiT2qNK9piRFb09wxVECCE9ZhHV16L4LKvlevtgg+Bw31EmJU2LVZpkJa7olW0coQerC4i00Djd04rZjfHhvjqc9F9J4s0mwXhRl7DlkdiwG4gi4T6tHE8ZJw2uTm0JV1g0vt+/0lJlayPsCFGlgAsIXnpNq0zgjFK/kPv3RF8tbvr1fVWf0C0ntIwoEs4zqtNww8WIa7jMmiRxFDe7QdiltTgqxNIsozEqNs4ZnBm52qFkdKpBl7AmElpBFJPG6P/yL12mdAb+JIwFFiEa3ztdUeugeR1KCK2sRRHxTnhtWnPgb4yIGAt7IF9Ek3UDQMdrPcKmjLATRJc89XsvheJ5K6Ax8CdJ/Wg9Jg/69uAc8kgf8qvWiRao3IYKoaW1eCl8oGAhqg78idYiNmMSAdZX9W34VW/3UhuhGUQNP738Kbx4QOOeBum5foCYAXz6eIaE6/39aoydI/piwovP05p3psjMCBejMaDjm+4OtPVX3UCU5kVWnNbr3HwzTP0cIgGg40gPsO+9BmHHiK7dhvDiFUoFUS31a148CaAB4UM7oOW1uBQVnWaTUbn5ZsZPSRTe0yU88XQVETJGJPXWFq2N2K3HiIT3tfEg4YaS0MpaBKkxlpGs/C1SK3bO+FWfsKYMNeYQFanftRQ5lrzBvNpaNJX6DQn1ShpQ1ChDjUlHVab+GCt9zx0nE1BY0VTqN9A3/YPl1bgqoaW1eBFjZRmq5KTogJXUr681g21JQVVAAkcd1o6osciV/E3K10MM+kIWgKZjxY4Yw1F9wL5T1VBDuBYVjQZmXIrJliJ2lp3s/PWPc+eogIGYrCN+vVXDkuhRPdSQOKpaL4XDTSwW/az5jtWFnZ0d+Nyi67NzH4O+c8AK4bd7zXfCqiW0CK2sRYCosKK60HN8XGind2eIKf1QCt4hoQVoBfEuFoskzDzkppjd9EJM84gpw7dJay5EsrWomvqdF3ADqtGn26ZqZdP8gybabgSo6ad6RjSNKE/9zo+xWIz9bPphztXStrlHhnxT20wuVyttTNhB6keIEfbe/NFUAGnCkkm9QRvWQlzPTTtfi84ltJc41NCbomhd0zVFaMjVNYIj9A+a+YLMUTVT/x3eL83GGiqnS42UJTuBUY8QvNaJrpuSrUWN1P+R2xTOhiLHjeVWrZkz4bTlcwLGpH5jgVXTyRdkjqqV+kVGQIkeTgQPacT2ruBjxB5rhg/XKhvacdUwGyLFDdzUUhl+JzCK52yj3GPECpk97cf3IO349BnrRmU31qmRm1oabLi8apDCUdtQpnDc0rnMku5poYxRUYrV0k36xGtRY98NaBgB5NLHjyqA/Hnp0L6Ow55pm3GVIFdAVdO6SV/djMSIsidr3S0BXVxciI8Rw0fCQqljbW8tax5Q0D5Z1abTtCGghfuLwhFNmUBHDJ8jtiuc6y9I9+615LtOzzU2ZRTInBRGU6NYY8lRNbeGw9nGaOCSe4JYKCk5CNb6/Vg6nPig6qn1FJmTAiU0O32riC6pFTVOogRoDMlmYiJVbS11JWFUPS0USpECgqS/QWDELqxFDcQAZ0hWksBrqVDqVvTVsvJpGvX2LVQ6asaJjNgRIgY0siL4FzFmIkJUbaXYTEps4IsKxFDKRMn7EDROGCqEXViL4gQucIkjjrC2llMsm4wIFMU2R13N6I/z5aolgiRuaiUvGjgqmr9dIk8V7LZfgIfehfjTthvziKxi4xUkM6LF1G9gRaBdlDf4q7rNgFI2JUx8ZIeFVjOsOoqGHtOERrQh3MgG/pcQUWC6PAJWLET4gCPdvy9LLgSqpoNE4bSLqV/DihAxwyMWw3V0lIjbsZgTjVgPkdYzvE7SZOHUiqMShBvOUwXEUng1BBCT/KG2FdGERnNSFSOSFDYdI5KlfgFRSHXnDgp5KueoTJg3YdL0BMiEEbu1zU9rLUJEfpVVKYqqA0S8QUo4LGTehOClEkGCFsOiFY1TP9YFSBpczZZdgYgsn/zwEYUjEwWbKBBOCTOGzakfW5ENcY4J/JRaBbkf5xB0zmS1ExP2wZxImjGsOGpb6tc6SwwQr/Bl5cIUROSPKsC93yGjpzVoCBQ2xMGme6lfG5F/rMZ1GK9FHFtAOAWZgrhtkushSB5suhdutI5Lg2jD5Qj0vX11LktWV1bRrsWOBFoM8mDTxa5fK/WzHEgJGhEkjRQKPmfJUEr/1r2OTkwkxS6GG03EwiO+LvztkmwIER+mMv/XKSAKNsTxtENHVUv9Goi7LLc1J4uMuMriYBMKWfhqFRBszCxFu9diNNSQGrGOH67V+Lf2kx+NdZo2sxQ7v/nWnvrVrQj8FBsRr0QKd/XNsbHJzgn70kHSJqNzRLJD79hPOSPizQyXGfjbifH8WwuEIJ6aQrQ59UeT3GMkECLD/mGdEMZTU0vReurXQ1wK4fKsGEYbb/786999fZN5S16K8n4H0caucBPl6jMn3CDGsn/99ebNu/y4hW9v6oP7T4Kmok0XUr+OFZcyuED74KCYXZb9882nN5/GFy0BgpQa7xkiQbiJ4sImF6aPQIPRegdsOGMREPRRwIomapt+K6nfCDFwUcAl2jZoEkHPNDM3aR0QZcUeIBI90idAcwnjPsOG4K2mKZJHdBvrwWRatJD6NXtijjCwG0JdU7PAdtpRqKkKT+jbj0i0Fi+5WMOy+S4S9uXSZhFtqFE5RK7ZP/57rDsOygnWNr1aiwaIS7iuWRyzUnB3BdG21P/nP+AFzYzlrZUyCtV6g+gysuLoxV+/wOsB5ajyafJdQHxv3k+7ijga2I38+Qdy046+NpUA0f4y3CVjbEeED/P9A5Vp01brURU1MWJvmik1RN8l2nPzK3LPuXx3gylGTJtNjB2HG7XU71tCe4r+HnsDLwYE024UbG3KBdMmF2P31qLP9xECRnLT+TfQPWe7nS6wqg9ps57aJUSvD36fBntVBS3vJ2i8mbExq22Tuk4TnXmqxbzoXYpFYrEQnHMvjr2btZOw7xHFm/fkZuxC6vf6duE+xgy6dTE7hnpe+wj7DpEVTZjRBKJT3VG5bfC4NZwaQ7nepnWIlMOLkdyM1hBdXrQZlb3i92CM599MwYw/3v1sIegk3pEZO0F0eS/QVtuQuGsNLMQ3+U+f8l1tn9rVRGnDBGMniOi0DXeIISK9vzQNvzfmk50mhPqJzUjqqp2FG44vFmrI3xx+gbgNFU2bDjkzEjJ2sBaHnHg3eDSm2LI2OTfX9aJURdxqNMdIjDjkvMFPRmdPlG89QfQlcdbVfOAZTWy51UUc4jV8d4OfjB696uCkVBdVCyZ4RmNDkjgqxhu628N8kbjJU4s26DGBl2MwuG7ISLQWAeUN9z1hkYi5DYc2qXoiMBoa0hhxcJAzH/witGfBB1U9SfOMhpB6iCMDgyM3Ce4b0WIRlSdCP52qj8GEDFKbUgMRaPDuBj9ZGyBGEo/PiQ+p9hAXGMGa1KRUOCrHydNBwMjx08cXNTVP0gkJ5HtEqcRsQwS/2Fh/j56qjfFisZOnzQ+6qp2mE0GpACbckfPqlYxVgNzYWE8Lwninz9N8oqqt07jUkhzo+/V1wCoI/O79e/w8ZhEQBJfPemcPn4+qtZ/BeFpB2S70FyR4wZ+K7w9+zlp4/BlMJIwxg4gunvj5aP5899MrV3s8fYhrcnKmezh91PuC3f8ANWsnJ6eAB4QRGCpRxITYweDpyUntGUdNs6rmcjn8Dd61w2ZuwcxJ/Be96EUvetGLXvSiF73oRc9f/w9q3llfOwVfBgAAAABJRU5ErkJggg==;" vertex="1" parent="1">
          <mxGeometry x="99" y="230" width="81" height="81" as="geometry" />
        </mxCell>
        <mxCell id="_aATQ9_5qBSlt04u06Cs-36" style="edgeStyle=none;rounded=0;orthogonalLoop=1;jettySize=auto;html=1;exitX=1;exitY=0.5;exitDx=0;exitDy=0;" edge="1" parent="1" source="_aATQ9_5qBSlt04u06Cs-26">
          <mxGeometry relative="1" as="geometry">
            <mxPoint x="465" y="323" as="targetPoint" />
          </mxGeometry>
        </mxCell>
        <mxCell id="_aATQ9_5qBSlt04u06Cs-26" value="" style="shape=image;verticalLabelPosition=bottom;labelBackgroundColor=default;verticalAlign=top;aspect=fixed;imageAspect=0;image=data:image/png,iVBORw0KGgoAAAANSUhEUgAAAOEAAADhCAMAAAAJbSJIAAABblBMVEX///8nd/8knv8llv8llP8lkf8ljv8ljP8kmf8knP8miv8lkv8llf8miP89hf8mg/8mhf8nfP8mgf8ZbrImfv8bU7Imdv8bXLIbWrIbYLIlof8bV7J2dnYaZbIAbf90dHQaZ7Lx8fEASq9SUlIARK0ZarKwsLDh4eEATq7E1v+WlpbX19fu8vl+fn4ATK7Jycnm7v+2zf/b5v+lpaXN3f+lwf/p8P/1+f+ZmZlpaWm6urohdd2ZrdUQcP/Dz+ckb+4AP6wiZ9weg9McesUgjuWRtP9yov9dlv/U4v9yksiux/8dYsE1abiHndBzjsrL1eofcM8dWsBZhMKCqdFYj8TS4O6Grv9rnv+Unq6xx+cvWY9dXV1MXHVZhcAgcdUjdelJdL5pnd6du/8fdtNvtf8NZecAUMKJwv9Idcxoq/9fgssif+ifzf8AL6gAY/+VqNVTkOVynck5frtYdLFbbJAAJ28YTJwRPX9udoabudn2pwhSAAAXuUlEQVR4nO2diVca2baHxYFJAasoppREJKCggIAoiQOKcSJOcUAvnY56NcONdj9ffLcH//t3hhqp6RRFofcuf91rdWLSUB97nz3VOUVf34te9KIXvehFL3rRi170ov8iVReKxXIlWyqVspVysbjw1NfTRRUr85tbPj/NUEAMFPoF7fdvbc5Xik99eZaUq8xvbUMYGuCoCPwc0G5vzVdyT32pHWihdOanKA20dlCK8p+V/pP8tpo98yI3NCFgTe9ZtvrUl06iauncoUIHHBKtP04Mo2JemnGcl547ZPacacMDXA6HIwzlEMX/HrDKKRl6K/vUENoqbjKMHM7RBqYi+BdkLk1T9PXzjLDZbYpuo9Nnk2E6pMZkqO1nZ8jqvJ/qkE5KKX5ElP/DUzNJVb0W3RPimaYTKCWmZJj55xJ1AB//2dNW8ARI/tUYev6p2ZDmBT7GMh4PyYh2fGq8vqyPvxrr5pMy8qua8T9tzClvU7x7dg+Pg+SdldouPx3gJtVd92xjdPCMm0/EV/HjK6Bt4ZMy0v7KUwBuMTbzIUbOS6iznvPt+AP4re3kkzDS/p3eAm4yfp8PLsBeiOn9asxtB3xAfqongPxyZLZ7Ngqo0KMQsDcGxIzYVZkeBZx5GhsQqmeI2IxUT0qcLeShNNes9wqRMyN1bjtfdRt7KNVrQmBGFFO3bW44il6f1+v1S0YuvUN0hBmUNmwdyu2MAj5vgJIOlXppRuSpjI2ZcScAAeVTsydApGwLqZVRl8sFAfnR/BN4KlqMlE0dFQZkmKclRGnDHkQE6GNo3oZPxYjijR2OuuNzOp0+GkrFir1H7Hq4KYuAAuHTWrHDzn9mcXFxcnJyTtTbt9PT02//4USAARnik61FFFLpTvLizBhSXinANwQAAwFtK/Yc0W++upkaz+cx4zjQmER3KM8bqceI9LZpwrf5/NuZmSmgCblyC0hFoPJOpZItfZi/3jzbOt/20eGVFf4uUs/XIr1llhBY0PSn0lctVkrzZ+c+CrH2FtF0MwUIJ8wj8sqVs/Nb3pXXvQIN0+bT4iSIMYuzszPASTsHXcheb1MQsyeIjLnBxgQgHB9/hwVCTX767dzkYqvWXDA7ICmWzgCl7bYE8dRktJmYfqPQL7FYLJTJsHvHjf3l2mGuShqjc6UtSGkzImN2AjcH0jtYju/efeIAf40nEoAxFolEoyzLZjKhyN5VY7l1SJRvy9e0nZAwZ5gt36ZmcVEziQubt9OJRCIe4xTBgqihTCEZvW081ppGDlyc99sHieo3c4ScJiZAUpyZmZ39HOcAIxGBUA6aidzetw71Ia+p1zYxgmhDWxr47wwPDMDJzN3S0sXH3d12RCRs0L3G46GOOXe27IquFjupkcEBl1eQzzc6enkJYHelhJiSDRWShUijpUlZ/QC81QZCqlM/Rfo+PDDEsSGNCgoEAOrFroQQCWBGj5ebGi9XPrPBjGAp0h3f0Sg7BwYF87UhYswADUB3d6WQyJgHGrb024HYea/Y92NkwOXSQgzwgs0UDThZEZLNJFORfZXwYwchXIrmuwyk7NDAkECohUiLYi4vj5ARQ6BCyBRSa2sKU9pCCPy0w8mUewCY0ACR33KI3gm9X/1i7+r2oLF/v7zcarVq8grIHhuGOww2vw26nS4lImLjwWjf9vnW2fUHuHl7p1xcMKro7CEE8bSjfTfD7kEXJz5VIJ8c9Q2fA6jsTtn8oMQmQpD3KXMjjYmp2cl/ut1w+gTwABtAc53/gFhFS7d+bCIEwYa+JoabnZyGw5q/3e5hyOYd6v/y3SqY7YQg2DDGVzgxtTg3PTaORm1jY+uDA1tffqsYrqznQWhsxKnZuTw3RhwbG89PT86WbbkRaR8hpWfEqbn8ODYcgJtbnDE1wsjlms3DGsgLrWWJHh/hT9pzRV/ftm2EYZ1wOjcO6cbHgOGmCJCquWat9bi83zi+irGFQgYrJAok+2Rqjb29rylj7ZlK7W24E5xMlGZOnB3Pj+UN4XLNw9by/uervRgbAmULLEQjEbVmCpSlhch+TaPF+KAkXPFvMd1okcOahQ2w36y2vQDXz0YwBpkQRkymdkJQj+5p0kEVXysuDE51y5tdaJEpreo0n59W/GyiWXs8OQ3GY1GOKR6PqQj8oQSQLbBaLYUoRahZKeE/qJxbNSQwovohBgnhBMj0i9P5d29+gaOLuFxtdLsfP15cLC0tXV6iKo6hhq5JWphsuxHDwtaK3LXDkiHDlEafCPL729lZmArFCWIwmEjEVQgB1d3dnVdaqEI+hj4vkU5UtxSIK2IiK/ktMfpp1becApHmk3xE+ms6LSHcu7m5ubtzunAN52prNADeWcUgd4LwC+LvIY/YBnGUPFoWbWyBMcww6rFmJs+Bffr0Do+5PwfhDBGCDQ9hOZ0cn7zTGKVHz7THQLnD2vL+8R5bSCKxvKHCsoBaBwkmVVgWPiQrjH6Nm1ET0/Au79wcGpIuzs7MbGwMDw6ODA4ODkvwBELeiqM080MDb6G23LiKJmG2DIW42UYoVeNNeiYNKqsoiSaT+4Kfg4+gM8YwTWt4E7y1DcD4GzIVj3sQ4g3LLSizoi8QUD9jtlDbv0oWMihpslKFQleidc9W4F0NnOsxYii5diBUCNcdIlIabtquL57BQQ1EjnCUHlE7J9h8PI4UMrgeaBvCQaUkM7hqdnPbT1HhldcAtc4xpgTGhe2OXDVMeM90gCPUsKJ31LepTDzNx8+hDFcXiHy7u0eXQKsURTGrmQOVN8tV5s8dr78eIcbC2jH/KWQdHQxXw4yDBLDiGRjRRAR85wpPqNYaMUAnrW92d0GmhAdFaXHPxlFKK+aW57e/fisgxtQBvx4VQZdAZG763TMyooHo8vkUhx9zj8eQTqxuABs/g5PvSakXllXfECu79S2ZQb56z//E/GoMEw2HX0FCNUSXz93+CeWWr1g2ItSo0YtLflIs23fDQYZC+u+c/VcKGjLJclG3uq0oY40IKa8x4ILHPTCgguga/dFWllVbx9B4mC8WAXS+9jmqnPDrsVFbvXO7BhnXDri/eG3WUynKeDyW7R8YUCK6vF/a/tfaZwEPVKlL4ig1oIKIthaFS8afb99CI5kEZsxwFVDFpKeGGeM3+e4ZaEcccvq+y+vO5s9YVCjCP975vNJRsRoiQzlowuPLuf0UYEztc8SUqZgaJjg+9AoTiojDTud3mXdVW2kpnmxWrDLwx4QOE7cWqvvAjqkr7k23TSFShtNvtAyliENeOR8wXyQW5/H4abEcMaBANAMIGe9TAJJbF4p2RB/RaCGCbChFHHJ+kfln7TjKdY4CnkiojUg5298nV2vd7x8cHDTuW6r3jqvAV/ki6NoEYtjwJs1vHrdbQBx0/pB+IrnHeIRrjPfuXE5Jo2FwZ4oJyINocz8CbFSAAk1HKsU2an0K5Q7WeMR5csSw4U6wL243jzgy5JHu5Gg2eLz4jXOIK1K9BvcXMWFYFmRaeyjtSZVMFQ6UtxubV79zHcemibVoVJr+cPOIg8O/SX5eexDN5xT7RS/J/UWH9OEBzb1kCN1jZPF/RMjQvcJda4XfM1dnHyoL5IRhlz5g1ePmEJ1fJJ7VSsfiuO2/GRoekncaWlYU1iIjjTKtVIhvp46wpJC3Cm9tLTdu/eH/IU+LYUqfsMwRDvaLBUx1OQb5UN+P0r9Kv6iH6JCs5f0kojuqS/fdrtZ5zEKqoDQkVIkYMezQ3yRVwYRD30W+kzjGS+zdgdyh0/VrIDKSHIwB68LuafHCVo90DNmnMqTTJtQPpr9hEwoGzP2McHw3gyODel2/5lqUJKhlABitMxrnwnhLFlLssrKAJb7lEda/CfXdDYzYz79+8zQWh3M3yDeg2/VrW5ERY1sxxUZZvR3+q3XekMlGu7NWiI2o30B9cXs8bu7Fm59jiTRUYmNgQK/r112Lkr2De2x012iHP2/I5NpB28YjmtCIYf3y6RWw4Sv0q9YDx/ceFDlaLbGAqG1Fn/DarUJ0l+BY2KrgrPKpR4nQiGH9yvSVx+MZKIPqJRFPYz6UGzW7fkNEyQ7XmCqg2g5/zllTt7JrI7y9Gmb0AKv9gNDjXo9j86XXhfrGCFEr9YsbBw8LUUXXr3lOAxsyJVuMhCsx7NDrsxcgoGc9CIT4PO62TkMn3KgjiveeG+ylmQNFkDElzxtq91dVCMN63cWCpx/8A/mC6Q23R6xRSRxVdQ+cWENFdwPmjoWtHhX25ZfnIvLTFb1Wu+zu70eE7zc8fP1mwopKxICQKxYylwF512+I6KhnZFf3gcxNV/Ru8+1Awn7PBjCkAEhuRa8SUZzu1Y7aun6KMT4XVtiT2qNK9piRFb09wxVECCE9ZhHV16L4LKvlevtgg+Bw31EmJU2LVZpkJa7olW0coQerC4i00Djd04rZjfHhvjqc9F9J4s0mwXhRl7DlkdiwG4gi4T6tHE8ZJw2uTm0JV1g0vt+/0lJlayPsCFGlgAsIXnpNq0zgjFK/kPv3RF8tbvr1fVWf0C0ntIwoEs4zqtNww8WIa7jMmiRxFDe7QdiltTgqxNIsozEqNs4ZnBm52qFkdKpBl7AmElpBFJPG6P/yL12mdAb+JIwFFiEa3ztdUeugeR1KCK2sRRHxTnhtWnPgb4yIGAt7IF9Ek3UDQMdrPcKmjLATRJc89XsvheJ5K6Ax8CdJ/Wg9Jg/69uAc8kgf8qvWiRao3IYKoaW1eCl8oGAhqg78idYiNmMSAdZX9W34VW/3UhuhGUQNP738Kbx4QOOeBum5foCYAXz6eIaE6/39aoydI/piwovP05p3psjMCBejMaDjm+4OtPVX3UCU5kVWnNbr3HwzTP0cIgGg40gPsO+9BmHHiK7dhvDiFUoFUS31a148CaAB4UM7oOW1uBQVnWaTUbn5ZsZPSRTe0yU88XQVETJGJPXWFq2N2K3HiIT3tfEg4YaS0MpaBKkxlpGs/C1SK3bO+FWfsKYMNeYQFanftRQ5lrzBvNpaNJX6DQn1ShpQ1ChDjUlHVab+GCt9zx0nE1BY0VTqN9A3/YPl1bgqoaW1eBFjZRmq5KTogJXUr681g21JQVVAAkcd1o6osciV/E3K10MM+kIWgKZjxY4Yw1F9wL5T1VBDuBYVjQZmXIrJliJ2lp3s/PWPc+eogIGYrCN+vVXDkuhRPdSQOKpaL4XDTSwW/az5jtWFnZ0d+Nyi67NzH4O+c8AK4bd7zXfCqiW0CK2sRYCosKK60HN8XGind2eIKf1QCt4hoQVoBfEuFoskzDzkppjd9EJM84gpw7dJay5EsrWomvqdF3ADqtGn26ZqZdP8gybabgSo6ad6RjSNKE/9zo+xWIz9bPphztXStrlHhnxT20wuVyttTNhB6keIEfbe/NFUAGnCkkm9QRvWQlzPTTtfi84ltJc41NCbomhd0zVFaMjVNYIj9A+a+YLMUTVT/x3eL83GGiqnS42UJTuBUY8QvNaJrpuSrUWN1P+R2xTOhiLHjeVWrZkz4bTlcwLGpH5jgVXTyRdkjqqV+kVGQIkeTgQPacT2ruBjxB5rhg/XKhvacdUwGyLFDdzUUhl+JzCK52yj3GPECpk97cf3IO349BnrRmU31qmRm1oabLi8apDCUdtQpnDc0rnMku5poYxRUYrV0k36xGtRY98NaBgB5NLHjyqA/Hnp0L6Ow55pm3GVIFdAVdO6SV/djMSIsidr3S0BXVxciI8Rw0fCQqljbW8tax5Q0D5Z1abTtCGghfuLwhFNmUBHDJ8jtiuc6y9I9+615LtOzzU2ZRTInBRGU6NYY8lRNbeGw9nGaOCSe4JYKCk5CNb6/Vg6nPig6qn1FJmTAiU0O32riC6pFTVOogRoDMlmYiJVbS11JWFUPS0USpECgqS/QWDELqxFDcQAZ0hWksBrqVDqVvTVsvJpGvX2LVQ6asaJjNgRIgY0siL4FzFmIkJUbaXYTEps4IsKxFDKRMn7EDROGCqEXViL4gQucIkjjrC2llMsm4wIFMU2R13N6I/z5aolgiRuaiUvGjgqmr9dIk8V7LZfgIfehfjTthvziKxi4xUkM6LF1G9gRaBdlDf4q7rNgFI2JUx8ZIeFVjOsOoqGHtOERrQh3MgG/pcQUWC6PAJWLET4gCPdvy9LLgSqpoNE4bSLqV/DihAxwyMWw3V0lIjbsZgTjVgPkdYzvE7SZOHUiqMShBvOUwXEUng1BBCT/KG2FdGERnNSFSOSFDYdI5KlfgFRSHXnDgp5KueoTJg3YdL0BMiEEbu1zU9rLUJEfpVVKYqqA0S8QUo4LGTehOClEkGCFsOiFY1TP9YFSBpczZZdgYgsn/zwEYUjEwWbKBBOCTOGzakfW5ENcY4J/JRaBbkf5xB0zmS1ExP2wZxImjGsOGpb6tc6SwwQr/Bl5cIUROSPKsC93yGjpzVoCBQ2xMGme6lfG5F/rMZ1GK9FHFtAOAWZgrhtkushSB5suhdutI5Lg2jD5Qj0vX11LktWV1bRrsWOBFoM8mDTxa5fK/WzHEgJGhEkjRQKPmfJUEr/1r2OTkwkxS6GG03EwiO+LvztkmwIER+mMv/XKSAKNsTxtENHVUv9Goi7LLc1J4uMuMriYBMKWfhqFRBszCxFu9diNNSQGrGOH67V+Lf2kx+NdZo2sxQ7v/nWnvrVrQj8FBsRr0QKd/XNsbHJzgn70kHSJqNzRLJD79hPOSPizQyXGfjbifH8WwuEIJ6aQrQ59UeT3GMkECLD/mGdEMZTU0vReurXQ1wK4fKsGEYbb/786999fZN5S16K8n4H0caucBPl6jMn3CDGsn/99ebNu/y4hW9v6oP7T4Kmok0XUr+OFZcyuED74KCYXZb9882nN5/GFy0BgpQa7xkiQbiJ4sImF6aPQIPRegdsOGMREPRRwIomapt+K6nfCDFwUcAl2jZoEkHPNDM3aR0QZcUeIBI90idAcwnjPsOG4K2mKZJHdBvrwWRatJD6NXtijjCwG0JdU7PAdtpRqKkKT+jbj0i0Fi+5WMOy+S4S9uXSZhFtqFE5RK7ZP/57rDsOygnWNr1aiwaIS7iuWRyzUnB3BdG21P/nP+AFzYzlrZUyCtV6g+gysuLoxV+/wOsB5ajyafJdQHxv3k+7ijga2I38+Qdy046+NpUA0f4y3CVjbEeED/P9A5Vp01brURU1MWJvmik1RN8l2nPzK3LPuXx3gylGTJtNjB2HG7XU71tCe4r+HnsDLwYE024UbG3KBdMmF2P31qLP9xECRnLT+TfQPWe7nS6wqg9ps57aJUSvD36fBntVBS3vJ2i8mbExq22Tuk4TnXmqxbzoXYpFYrEQnHMvjr2btZOw7xHFm/fkZuxC6vf6duE+xgy6dTE7hnpe+wj7DpEVTZjRBKJT3VG5bfC4NZwaQ7nepnWIlMOLkdyM1hBdXrQZlb3i92CM599MwYw/3v1sIegk3pEZO0F0eS/QVtuQuGsNLMQ3+U+f8l1tn9rVRGnDBGMniOi0DXeIISK9vzQNvzfmk50mhPqJzUjqqp2FG44vFmrI3xx+gbgNFU2bDjkzEjJ2sBaHnHg3eDSm2LI2OTfX9aJURdxqNMdIjDjkvMFPRmdPlG89QfQlcdbVfOAZTWy51UUc4jV8d4OfjB696uCkVBdVCyZ4RmNDkjgqxhu628N8kbjJU4s26DGBl2MwuG7ISLQWAeUN9z1hkYi5DYc2qXoiMBoa0hhxcJAzH/witGfBB1U9SfOMhpB6iCMDgyM3Ce4b0WIRlSdCP52qj8GEDFKbUgMRaPDuBj9ZGyBGEo/PiQ+p9hAXGMGa1KRUOCrHydNBwMjx08cXNTVP0gkJ5HtEqcRsQwS/2Fh/j56qjfFisZOnzQ+6qp2mE0GpACbckfPqlYxVgNzYWE8Lwninz9N8oqqt07jUkhzo+/V1wCoI/O79e/w8ZhEQBJfPemcPn4+qtZ/BeFpB2S70FyR4wZ+K7w9+zlp4/BlMJIwxg4gunvj5aP5899MrV3s8fYhrcnKmezh91PuC3f8ANWsnJ6eAB4QRGCpRxITYweDpyUntGUdNs6rmcjn8Dd61w2ZuwcxJ/Be96EUvetGLXvSiF73oRc9f/w9q3llfOwVfBgAAAABJRU5ErkJggg==;" vertex="1" parent="1">
          <mxGeometry x="101" y="338" width="81" height="81" as="geometry" />
        </mxCell>
        <mxCell id="_aATQ9_5qBSlt04u06Cs-27" value="" style="shape=image;verticalLabelPosition=bottom;labelBackgroundColor=default;verticalAlign=top;aspect=fixed;imageAspect=0;image=data:image/png,iVBORw0KGgoAAAANSUhEUgAAAOEAAADhCAMAAAAJbSJIAAABblBMVEX///8nd/8knv8llv8llP8lkf8ljv8ljP8kmf8knP8miv8lkv8llf8miP89hf8mg/8mhf8nfP8mgf8ZbrImfv8bU7Imdv8bXLIbWrIbYLIlof8bV7J2dnYaZbIAbf90dHQaZ7Lx8fEASq9SUlIARK0ZarKwsLDh4eEATq7E1v+WlpbX19fu8vl+fn4ATK7Jycnm7v+2zf/b5v+lpaXN3f+lwf/p8P/1+f+ZmZlpaWm6urohdd2ZrdUQcP/Dz+ckb+4AP6wiZ9weg9McesUgjuWRtP9yov9dlv/U4v9yksiux/8dYsE1abiHndBzjsrL1eofcM8dWsBZhMKCqdFYj8TS4O6Grv9rnv+Unq6xx+cvWY9dXV1MXHVZhcAgcdUjdelJdL5pnd6du/8fdtNvtf8NZecAUMKJwv9Idcxoq/9fgssif+ifzf8AL6gAY/+VqNVTkOVynck5frtYdLFbbJAAJ28YTJwRPX9udoabudn2pwhSAAAXuUlEQVR4nO2diVca2baHxYFJAasoppREJKCggIAoiQOKcSJOcUAvnY56NcONdj9ffLcH//t3hhqp6RRFofcuf91rdWLSUB97nz3VOUVf34te9KIXvehFL3rRi170ov8iVReKxXIlWyqVspVysbjw1NfTRRUr85tbPj/NUEAMFPoF7fdvbc5Xik99eZaUq8xvbUMYGuCoCPwc0G5vzVdyT32pHWihdOanKA20dlCK8p+V/pP8tpo98yI3NCFgTe9ZtvrUl06iauncoUIHHBKtP04Mo2JemnGcl547ZPacacMDXA6HIwzlEMX/HrDKKRl6K/vUENoqbjKMHM7RBqYi+BdkLk1T9PXzjLDZbYpuo9Nnk2E6pMZkqO1nZ8jqvJ/qkE5KKX5ElP/DUzNJVb0W3RPimaYTKCWmZJj55xJ1AB//2dNW8ARI/tUYev6p2ZDmBT7GMh4PyYh2fGq8vqyPvxrr5pMy8qua8T9tzClvU7x7dg+Pg+SdldouPx3gJtVd92xjdPCMm0/EV/HjK6Bt4ZMy0v7KUwBuMTbzIUbOS6iznvPt+AP4re3kkzDS/p3eAm4yfp8PLsBeiOn9asxtB3xAfqongPxyZLZ7Ngqo0KMQsDcGxIzYVZkeBZx5GhsQqmeI2IxUT0qcLeShNNes9wqRMyN1bjtfdRt7KNVrQmBGFFO3bW44il6f1+v1S0YuvUN0hBmUNmwdyu2MAj5vgJIOlXppRuSpjI2ZcScAAeVTsydApGwLqZVRl8sFAfnR/BN4KlqMlE0dFQZkmKclRGnDHkQE6GNo3oZPxYjijR2OuuNzOp0+GkrFir1H7Hq4KYuAAuHTWrHDzn9mcXFxcnJyTtTbt9PT02//4USAARnik61FFFLpTvLizBhSXinANwQAAwFtK/Yc0W++upkaz+cx4zjQmER3KM8bqceI9LZpwrf5/NuZmSmgCblyC0hFoPJOpZItfZi/3jzbOt/20eGVFf4uUs/XIr1llhBY0PSn0lctVkrzZ+c+CrH2FtF0MwUIJ8wj8sqVs/Nb3pXXvQIN0+bT4iSIMYuzszPASTsHXcheb1MQsyeIjLnBxgQgHB9/hwVCTX767dzkYqvWXDA7ICmWzgCl7bYE8dRktJmYfqPQL7FYLJTJsHvHjf3l2mGuShqjc6UtSGkzImN2AjcH0jtYju/efeIAf40nEoAxFolEoyzLZjKhyN5VY7l1SJRvy9e0nZAwZ5gt36ZmcVEziQubt9OJRCIe4xTBgqihTCEZvW081ppGDlyc99sHieo3c4ScJiZAUpyZmZ39HOcAIxGBUA6aidzetw71Ia+p1zYxgmhDWxr47wwPDMDJzN3S0sXH3d12RCRs0L3G46GOOXe27IquFjupkcEBl1eQzzc6enkJYHelhJiSDRWShUijpUlZ/QC81QZCqlM/Rfo+PDDEsSGNCgoEAOrFroQQCWBGj5ebGi9XPrPBjGAp0h3f0Sg7BwYF87UhYswADUB3d6WQyJgHGrb024HYea/Y92NkwOXSQgzwgs0UDThZEZLNJFORfZXwYwchXIrmuwyk7NDAkECohUiLYi4vj5ARQ6BCyBRSa2sKU9pCCPy0w8mUewCY0ACR33KI3gm9X/1i7+r2oLF/v7zcarVq8grIHhuGOww2vw26nS4lImLjwWjf9vnW2fUHuHl7p1xcMKro7CEE8bSjfTfD7kEXJz5VIJ8c9Q2fA6jsTtn8oMQmQpD3KXMjjYmp2cl/ut1w+gTwABtAc53/gFhFS7d+bCIEwYa+JoabnZyGw5q/3e5hyOYd6v/y3SqY7YQg2DDGVzgxtTg3PTaORm1jY+uDA1tffqsYrqznQWhsxKnZuTw3RhwbG89PT86WbbkRaR8hpWfEqbn8ODYcgJtbnDE1wsjlms3DGsgLrWWJHh/hT9pzRV/ftm2EYZ1wOjcO6cbHgOGmCJCquWat9bi83zi+irGFQgYrJAok+2Rqjb29rylj7ZlK7W24E5xMlGZOnB3Pj+UN4XLNw9by/uervRgbAmULLEQjEbVmCpSlhch+TaPF+KAkXPFvMd1okcOahQ2w36y2vQDXz0YwBpkQRkymdkJQj+5p0kEVXysuDE51y5tdaJEpreo0n59W/GyiWXs8OQ3GY1GOKR6PqQj8oQSQLbBaLYUoRahZKeE/qJxbNSQwovohBgnhBMj0i9P5d29+gaOLuFxtdLsfP15cLC0tXV6iKo6hhq5JWphsuxHDwtaK3LXDkiHDlEafCPL729lZmArFCWIwmEjEVQgB1d3dnVdaqEI+hj4vkU5UtxSIK2IiK/ktMfpp1becApHmk3xE+ms6LSHcu7m5ubtzunAN52prNADeWcUgd4LwC+LvIY/YBnGUPFoWbWyBMcww6rFmJs+Bffr0Do+5PwfhDBGCDQ9hOZ0cn7zTGKVHz7THQLnD2vL+8R5bSCKxvKHCsoBaBwkmVVgWPiQrjH6Nm1ET0/Au79wcGpIuzs7MbGwMDw6ODA4ODkvwBELeiqM080MDb6G23LiKJmG2DIW42UYoVeNNeiYNKqsoiSaT+4Kfg4+gM8YwTWt4E7y1DcD4GzIVj3sQ4g3LLSizoi8QUD9jtlDbv0oWMihpslKFQleidc9W4F0NnOsxYii5diBUCNcdIlIabtquL57BQQ1EjnCUHlE7J9h8PI4UMrgeaBvCQaUkM7hqdnPbT1HhldcAtc4xpgTGhe2OXDVMeM90gCPUsKJ31LepTDzNx8+hDFcXiHy7u0eXQKsURTGrmQOVN8tV5s8dr78eIcbC2jH/KWQdHQxXw4yDBLDiGRjRRAR85wpPqNYaMUAnrW92d0GmhAdFaXHPxlFKK+aW57e/fisgxtQBvx4VQZdAZG763TMyooHo8vkUhx9zj8eQTqxuABs/g5PvSakXllXfECu79S2ZQb56z//E/GoMEw2HX0FCNUSXz93+CeWWr1g2ItSo0YtLflIs23fDQYZC+u+c/VcKGjLJclG3uq0oY40IKa8x4ILHPTCgguga/dFWllVbx9B4mC8WAXS+9jmqnPDrsVFbvXO7BhnXDri/eG3WUynKeDyW7R8YUCK6vF/a/tfaZwEPVKlL4ig1oIKIthaFS8afb99CI5kEZsxwFVDFpKeGGeM3+e4ZaEcccvq+y+vO5s9YVCjCP975vNJRsRoiQzlowuPLuf0UYEztc8SUqZgaJjg+9AoTiojDTud3mXdVW2kpnmxWrDLwx4QOE7cWqvvAjqkr7k23TSFShtNvtAyliENeOR8wXyQW5/H4abEcMaBANAMIGe9TAJJbF4p2RB/RaCGCbChFHHJ+kfln7TjKdY4CnkiojUg5298nV2vd7x8cHDTuW6r3jqvAV/ki6NoEYtjwJs1vHrdbQBx0/pB+IrnHeIRrjPfuXE5Jo2FwZ4oJyINocz8CbFSAAk1HKsU2an0K5Q7WeMR5csSw4U6wL243jzgy5JHu5Gg2eLz4jXOIK1K9BvcXMWFYFmRaeyjtSZVMFQ6UtxubV79zHcemibVoVJr+cPOIg8O/SX5eexDN5xT7RS/J/UWH9OEBzb1kCN1jZPF/RMjQvcJda4XfM1dnHyoL5IRhlz5g1ePmEJ1fJJ7VSsfiuO2/GRoekncaWlYU1iIjjTKtVIhvp46wpJC3Cm9tLTdu/eH/IU+LYUqfsMwRDvaLBUx1OQb5UN+P0r9Kv6iH6JCs5f0kojuqS/fdrtZ5zEKqoDQkVIkYMezQ3yRVwYRD30W+kzjGS+zdgdyh0/VrIDKSHIwB68LuafHCVo90DNmnMqTTJtQPpr9hEwoGzP2McHw3gyODel2/5lqUJKhlABitMxrnwnhLFlLssrKAJb7lEda/CfXdDYzYz79+8zQWh3M3yDeg2/VrW5ERY1sxxUZZvR3+q3XekMlGu7NWiI2o30B9cXs8bu7Fm59jiTRUYmNgQK/r112Lkr2De2x012iHP2/I5NpB28YjmtCIYf3y6RWw4Sv0q9YDx/ceFDlaLbGAqG1Fn/DarUJ0l+BY2KrgrPKpR4nQiGH9yvSVx+MZKIPqJRFPYz6UGzW7fkNEyQ7XmCqg2g5/zllTt7JrI7y9Gmb0AKv9gNDjXo9j86XXhfrGCFEr9YsbBw8LUUXXr3lOAxsyJVuMhCsx7NDrsxcgoGc9CIT4PO62TkMn3KgjiveeG+ylmQNFkDElzxtq91dVCMN63cWCpx/8A/mC6Q23R6xRSRxVdQ+cWENFdwPmjoWtHhX25ZfnIvLTFb1Wu+zu70eE7zc8fP1mwopKxICQKxYylwF512+I6KhnZFf3gcxNV/Ru8+1Awn7PBjCkAEhuRa8SUZzu1Y7aun6KMT4XVtiT2qNK9piRFb09wxVECCE9ZhHV16L4LKvlevtgg+Bw31EmJU2LVZpkJa7olW0coQerC4i00Djd04rZjfHhvjqc9F9J4s0mwXhRl7DlkdiwG4gi4T6tHE8ZJw2uTm0JV1g0vt+/0lJlayPsCFGlgAsIXnpNq0zgjFK/kPv3RF8tbvr1fVWf0C0ntIwoEs4zqtNww8WIa7jMmiRxFDe7QdiltTgqxNIsozEqNs4ZnBm52qFkdKpBl7AmElpBFJPG6P/yL12mdAb+JIwFFiEa3ztdUeugeR1KCK2sRRHxTnhtWnPgb4yIGAt7IF9Ek3UDQMdrPcKmjLATRJc89XsvheJ5K6Ax8CdJ/Wg9Jg/69uAc8kgf8qvWiRao3IYKoaW1eCl8oGAhqg78idYiNmMSAdZX9W34VW/3UhuhGUQNP738Kbx4QOOeBum5foCYAXz6eIaE6/39aoydI/piwovP05p3psjMCBejMaDjm+4OtPVX3UCU5kVWnNbr3HwzTP0cIgGg40gPsO+9BmHHiK7dhvDiFUoFUS31a148CaAB4UM7oOW1uBQVnWaTUbn5ZsZPSRTe0yU88XQVETJGJPXWFq2N2K3HiIT3tfEg4YaS0MpaBKkxlpGs/C1SK3bO+FWfsKYMNeYQFanftRQ5lrzBvNpaNJX6DQn1ShpQ1ChDjUlHVab+GCt9zx0nE1BY0VTqN9A3/YPl1bgqoaW1eBFjZRmq5KTogJXUr681g21JQVVAAkcd1o6osciV/E3K10MM+kIWgKZjxY4Yw1F9wL5T1VBDuBYVjQZmXIrJliJ2lp3s/PWPc+eogIGYrCN+vVXDkuhRPdSQOKpaL4XDTSwW/az5jtWFnZ0d+Nyi67NzH4O+c8AK4bd7zXfCqiW0CK2sRYCosKK60HN8XGind2eIKf1QCt4hoQVoBfEuFoskzDzkppjd9EJM84gpw7dJay5EsrWomvqdF3ADqtGn26ZqZdP8gybabgSo6ad6RjSNKE/9zo+xWIz9bPphztXStrlHhnxT20wuVyttTNhB6keIEfbe/NFUAGnCkkm9QRvWQlzPTTtfi84ltJc41NCbomhd0zVFaMjVNYIj9A+a+YLMUTVT/x3eL83GGiqnS42UJTuBUY8QvNaJrpuSrUWN1P+R2xTOhiLHjeVWrZkz4bTlcwLGpH5jgVXTyRdkjqqV+kVGQIkeTgQPacT2ruBjxB5rhg/XKhvacdUwGyLFDdzUUhl+JzCK52yj3GPECpk97cf3IO349BnrRmU31qmRm1oabLi8apDCUdtQpnDc0rnMku5poYxRUYrV0k36xGtRY98NaBgB5NLHjyqA/Hnp0L6Ow55pm3GVIFdAVdO6SV/djMSIsidr3S0BXVxciI8Rw0fCQqljbW8tax5Q0D5Z1abTtCGghfuLwhFNmUBHDJ8jtiuc6y9I9+615LtOzzU2ZRTInBRGU6NYY8lRNbeGw9nGaOCSe4JYKCk5CNb6/Vg6nPig6qn1FJmTAiU0O32riC6pFTVOogRoDMlmYiJVbS11JWFUPS0USpECgqS/QWDELqxFDcQAZ0hWksBrqVDqVvTVsvJpGvX2LVQ6asaJjNgRIgY0siL4FzFmIkJUbaXYTEps4IsKxFDKRMn7EDROGCqEXViL4gQucIkjjrC2llMsm4wIFMU2R13N6I/z5aolgiRuaiUvGjgqmr9dIk8V7LZfgIfehfjTthvziKxi4xUkM6LF1G9gRaBdlDf4q7rNgFI2JUx8ZIeFVjOsOoqGHtOERrQh3MgG/pcQUWC6PAJWLET4gCPdvy9LLgSqpoNE4bSLqV/DihAxwyMWw3V0lIjbsZgTjVgPkdYzvE7SZOHUiqMShBvOUwXEUng1BBCT/KG2FdGERnNSFSOSFDYdI5KlfgFRSHXnDgp5KueoTJg3YdL0BMiEEbu1zU9rLUJEfpVVKYqqA0S8QUo4LGTehOClEkGCFsOiFY1TP9YFSBpczZZdgYgsn/zwEYUjEwWbKBBOCTOGzakfW5ENcY4J/JRaBbkf5xB0zmS1ExP2wZxImjGsOGpb6tc6SwwQr/Bl5cIUROSPKsC93yGjpzVoCBQ2xMGme6lfG5F/rMZ1GK9FHFtAOAWZgrhtkushSB5suhdutI5Lg2jD5Qj0vX11LktWV1bRrsWOBFoM8mDTxa5fK/WzHEgJGhEkjRQKPmfJUEr/1r2OTkwkxS6GG03EwiO+LvztkmwIER+mMv/XKSAKNsTxtENHVUv9Goi7LLc1J4uMuMriYBMKWfhqFRBszCxFu9diNNSQGrGOH67V+Lf2kx+NdZo2sxQ7v/nWnvrVrQj8FBsRr0QKd/XNsbHJzgn70kHSJqNzRLJD79hPOSPizQyXGfjbifH8WwuEIJ6aQrQ59UeT3GMkECLD/mGdEMZTU0vReurXQ1wK4fKsGEYbb/786999fZN5S16K8n4H0caucBPl6jMn3CDGsn/99ebNu/y4hW9v6oP7T4Kmok0XUr+OFZcyuED74KCYXZb9882nN5/GFy0BgpQa7xkiQbiJ4sImF6aPQIPRegdsOGMREPRRwIomapt+K6nfCDFwUcAl2jZoEkHPNDM3aR0QZcUeIBI90idAcwnjPsOG4K2mKZJHdBvrwWRatJD6NXtijjCwG0JdU7PAdtpRqKkKT+jbj0i0Fi+5WMOy+S4S9uXSZhFtqFE5RK7ZP/57rDsOygnWNr1aiwaIS7iuWRyzUnB3BdG21P/nP+AFzYzlrZUyCtV6g+gysuLoxV+/wOsB5ajyafJdQHxv3k+7ijga2I38+Qdy046+NpUA0f4y3CVjbEeED/P9A5Vp01brURU1MWJvmik1RN8l2nPzK3LPuXx3gylGTJtNjB2HG7XU71tCe4r+HnsDLwYE024UbG3KBdMmF2P31qLP9xECRnLT+TfQPWe7nS6wqg9ps57aJUSvD36fBntVBS3vJ2i8mbExq22Tuk4TnXmqxbzoXYpFYrEQnHMvjr2btZOw7xHFm/fkZuxC6vf6duE+xgy6dTE7hnpe+wj7DpEVTZjRBKJT3VG5bfC4NZwaQ7nepnWIlMOLkdyM1hBdXrQZlb3i92CM599MwYw/3v1sIegk3pEZO0F0eS/QVtuQuGsNLMQ3+U+f8l1tn9rVRGnDBGMniOi0DXeIISK9vzQNvzfmk50mhPqJzUjqqp2FG44vFmrI3xx+gbgNFU2bDjkzEjJ2sBaHnHg3eDSm2LI2OTfX9aJURdxqNMdIjDjkvMFPRmdPlG89QfQlcdbVfOAZTWy51UUc4jV8d4OfjB696uCkVBdVCyZ4RmNDkjgqxhu628N8kbjJU4s26DGBl2MwuG7ISLQWAeUN9z1hkYi5DYc2qXoiMBoa0hhxcJAzH/witGfBB1U9SfOMhpB6iCMDgyM3Ce4b0WIRlSdCP52qj8GEDFKbUgMRaPDuBj9ZGyBGEo/PiQ+p9hAXGMGa1KRUOCrHydNBwMjx08cXNTVP0gkJ5HtEqcRsQwS/2Fh/j56qjfFisZOnzQ+6qp2mE0GpACbckfPqlYxVgNzYWE8Lwninz9N8oqqt07jUkhzo+/V1wCoI/O79e/w8ZhEQBJfPemcPn4+qtZ/BeFpB2S70FyR4wZ+K7w9+zlp4/BlMJIwxg4gunvj5aP5899MrV3s8fYhrcnKmezh91PuC3f8ANWsnJ6eAB4QRGCpRxITYweDpyUntGUdNs6rmcjn8Dd61w2ZuwcxJ/Be96EUvetGLXvSiF73oRc9f/w9q3llfOwVfBgAAAABJRU5ErkJggg==;" vertex="1" parent="1">
          <mxGeometry x="101" y="461" width="81" height="81" as="geometry" />
        </mxCell>
        <mxCell id="_aATQ9_5qBSlt04u06Cs-34" value="" style="endArrow=none;html=1;rounded=0;" edge="1" parent="1">
          <mxGeometry width="50" height="50" relative="1" as="geometry">
            <mxPoint x="187" y="512" as="sourcePoint" />
            <mxPoint x="179" y="161" as="targetPoint" />
            <Array as="points">
              <mxPoint x="467" y="323" />
            </Array>
          </mxGeometry>
        </mxCell>
        <mxCell id="_aATQ9_5qBSlt04u06Cs-37" value="Attacker" style="text;strokeColor=none;align=center;fillColor=none;html=1;verticalAlign=middle;whiteSpace=wrap;rounded=0;" vertex="1" parent="1">
          <mxGeometry x="107.5" y="182" width="60" height="30" as="geometry" />
        </mxCell>
        <mxCell id="_aATQ9_5qBSlt04u06Cs-38" value="Attacker" style="text;strokeColor=none;align=center;fillColor=none;html=1;verticalAlign=middle;whiteSpace=wrap;rounded=0;" vertex="1" parent="1">
          <mxGeometry x="109.5" y="308" width="60" height="30" as="geometry" />
        </mxCell>
        <mxCell id="_aATQ9_5qBSlt04u06Cs-39" value="Attacker" style="text;strokeColor=none;align=center;fillColor=none;html=1;verticalAlign=middle;whiteSpace=wrap;rounded=0;" vertex="1" parent="1">
          <mxGeometry x="107.5" y="421" width="60" height="30" as="geometry" />
        </mxCell>
        <mxCell id="_aATQ9_5qBSlt04u06Cs-40" value="Attacker" style="text;strokeColor=none;align=center;fillColor=none;html=1;verticalAlign=middle;whiteSpace=wrap;rounded=0;" vertex="1" parent="1">
          <mxGeometry x="109.5" y="552" width="60" height="30" as="geometry" />
        </mxCell>
        <mxCell id="_aATQ9_5qBSlt04u06Cs-41" value="NXDOMAIN flood attack" style="text;strokeColor=none;align=center;fillColor=none;html=1;verticalAlign=middle;whiteSpace=wrap;rounded=0;" vertex="1" parent="1">
          <mxGeometry x="243" y="156" width="95" height="36" as="geometry" />
        </mxCell>
        <mxCell id="_aATQ9_5qBSlt04u06Cs-45" value="NXDOMAIN flood attack" style="text;strokeColor=none;align=center;fillColor=none;html=1;verticalAlign=middle;whiteSpace=wrap;rounded=0;" vertex="1" parent="1">
          <mxGeometry x="191" y="233.92000000000002" width="95" height="36" as="geometry" />
        </mxCell>
        <mxCell id="_aATQ9_5qBSlt04u06Cs-46" value="NXDOMAIN flood attack" style="text;strokeColor=none;align=center;fillColor=none;html=1;verticalAlign=middle;whiteSpace=wrap;rounded=0;" vertex="1" parent="1">
          <mxGeometry x="220" y="375" width="95" height="36" as="geometry" />
        </mxCell>
        <mxCell id="_aATQ9_5qBSlt04u06Cs-47" value="NXDOMAIN flood attack" style="text;strokeColor=none;align=center;fillColor=none;html=1;verticalAlign=middle;whiteSpace=wrap;rounded=0;" vertex="1" parent="1">
          <mxGeometry x="294" y="453" width="95" height="36" as="geometry" />
        </mxCell>
        <mxCell id="_aATQ9_5qBSlt04u06Cs-48" value="&lt;font style=&quot;font-size: 18px;&quot;&gt;DNS&amp;nbsp;&lt;br&gt;Server&lt;br&gt;&lt;/font&gt;" style="text;strokeColor=none;align=left;fillColor=none;html=1;verticalAlign=middle;whiteSpace=wrap;rounded=0;" vertex="1" parent="1">
          <mxGeometry x="929" y="360.51" width="98" height="33" as="geometry" />
        </mxCell>
        <mxCell id="_aATQ9_5qBSlt04u06Cs-49" value="&lt;font style=&quot;font-size: 18px;&quot;&gt;192.168.44.137&lt;/font&gt;" style="text;strokeColor=none;align=center;fillColor=none;html=1;verticalAlign=middle;whiteSpace=wrap;rounded=0;" vertex="1" parent="1">
          <mxGeometry x="1049" y="248" width="60" height="30" as="geometry" />
        </mxCell>
        <mxCell id="_aATQ9_5qBSlt04u06Cs-50" value="&lt;font style=&quot;font-size: 18px;&quot;&gt;192.168.44.138&lt;/font&gt;" style="text;strokeColor=none;align=center;fillColor=none;html=1;verticalAlign=middle;whiteSpace=wrap;rounded=0;" vertex="1" parent="1">
          <mxGeometry x="593" y="288" width="60" height="30" as="geometry" />
        </mxCell>
        <mxCell id="1zGRVm_AC68f59mxdgWm-1" value="&lt;b&gt;N&lt;/b&gt;" style="text;strokeColor=none;align=center;fillColor=none;html=1;verticalAlign=middle;whiteSpace=wrap;rounded=0;fontColor=#FF0000;" vertex="1" parent="1">
          <mxGeometry x="299" y="141" width="60" height="30" as="geometry" />
        </mxCell>
        <mxCell id="1zGRVm_AC68f59mxdgWm-2" value="&lt;b&gt;N&lt;/b&gt;" style="text;strokeColor=none;align=center;fillColor=none;html=1;verticalAlign=middle;whiteSpace=wrap;rounded=0;fontColor=#FF0000;" vertex="1" parent="1">
          <mxGeometry x="247" y="223.99999999999997" width="60" height="30" as="geometry" />
        </mxCell>
        <mxCell id="1zGRVm_AC68f59mxdgWm-3" value="&lt;b&gt;N&lt;/b&gt;" style="text;strokeColor=none;align=center;fillColor=none;html=1;verticalAlign=middle;whiteSpace=wrap;rounded=0;fontColor=#FF0000;" vertex="1" parent="1">
          <mxGeometry x="276" y="362.01" width="60" height="30" as="geometry" />
        </mxCell>
        <mxCell id="1zGRVm_AC68f59mxdgWm-4" value="&lt;b&gt;N&lt;/b&gt;" style="text;strokeColor=none;align=center;fillColor=none;html=1;verticalAlign=middle;whiteSpace=wrap;rounded=0;fontColor=#FF0000;" vertex="1" parent="1">
          <mxGeometry x="346" y="430" width="60" height="30" as="geometry" />
        </mxCell>
      </root>
    </mxGraphModel>
  </diagram>
</mxfile>
